<?xml version="1.0" encoding="UTF-8"?>
<svg width="32px" height="32px" viewBox="0 0 32 32" version="1.1" xmlns="http://www.w3.org/2000/svg" xmlns:xlink="http://www.w3.org/1999/xlink">
    <!-- Generator: Sketch 52.2 (67145) - http://www.bohemiancoding.com/sketch -->
    <title>Fill 4</title>
    <desc>Created with Sketch.</desc>
    <defs>
        <linearGradient x1="50%" y1="2.79800394%" x2="50%" y2="97.9711416%" id="linearGradient-1">
            <stop stop-color="#B4BFC5" offset="0%"></stop>
            <stop stop-color="#DBE1E4" offset="100%"></stop>
        </linearGradient>
        <path d="M16,0 L16,0 C24.836556,-1.623249e-15 32,7.163444 32,16 L32,16 C32,24.836556 24.836556,32 16,32 L16,32 C7.163444,32 1.082166e-15,24.836556 0,16 L0,16 C-1.082166e-15,7.163444 7.163444,1.623249e-15 16,0 Z" id="path-2"></path>
        <circle id="path-4" cx="16" cy="16" r="15"></circle>
    </defs>
    <g id="20190125" stroke="none" stroke-width="1" fill="none" fill-rule="evenodd">
        <g id="多窗口12号字" transform="translate(-1396.000000, -4.000000)">
            <g id="Fill-4" transform="translate(1396.000000, 4.000000)">
                <mask id="mask-3" fill="white">
                    <use xlink:href="#path-2"></use>
                </mask>
                <g id="Mask">
                    <use fill="url(#linearGradient-1)" xlink:href="#path-2"></use>
                    <path stroke="#FFFFFF" stroke-width="2" d="M16,1 C7.71572875,1 1,7.71572875 1,16 C1,24.2842712 7.71572875,31 16,31 C24.2842712,31 31,24.2842712 31,16 C31,7.71572875 24.2842712,1 16,1 Z" stroke-linejoin="square" fill="#BEC1C8"></path>
                </g>
                <mask id="mask-5" fill="white">
                    <use xlink:href="#path-4"></use>
                </mask>
                <use id="Mask" fill="#BBC1C8" xlink:href="#path-4"></use>
                <path d="M10.211,20.5 C8.99173684,20.5 8,21.4957744 8,22.7191294 L8,33.5 L9.73684211,33.5 L24.5,33.5 L24.5,22.7191294 C24.5,21.4957744 23.5082632,20.5 22.2898684,20.5 L10.211,20.5 Z M21.9615385,19 L13.4064201,19 C11.9651728,19 10.7923077,17.8294576 10.7923077,16.3891248 L10.7923077,9.98116689 C10.7923077,8.06130335 12.3555469,6.5 14.2777908,6.5 L18.4760553,6.5 C20.3982993,6.5 21.9615385,8.06130335 21.9615385,9.98116689 L21.9615385,19 Z M17.667334,24.2551864 C18.0113033,23.9149379 18.5672844,23.9149379 18.9112538,24.2551864 C19.2552231,24.5954349 19.2552231,25.1454019 18.9112538,25.4856504 L17.1298269,27.2478071 L17.1298269,30.25 L15.370393,30.25 L15.370393,27.2478071 L13.5880864,25.4856504 C13.2449968,25.1454019 13.2449968,24.5954349 13.5880864,24.2551864 C13.9320558,23.9149379 14.4889166,23.9149379 14.8320062,24.2551864 L16.25011,25.65708 L17.667334,24.2551864 Z" fill="#F3F6F8" mask="url(#mask-5)"></path>
            </g>
        </g>
    </g>
</svg>