<?xml version="1.0" encoding="UTF-8"?>
<svg width="200px" height="200px" viewBox="0 0 200 200" version="1.1" xmlns="http://www.w3.org/2000/svg" xmlns:xlink="http://www.w3.org/1999/xlink">
    <!-- Generator: Sketch 52.2 (67145) - http://www.bohemiancoding.com/sketch -->
    <title>九、Emotional Design - 情感化设计</title>
    <desc>Created with Sketch.</desc>
    <defs>
        <polygon id="path-1" points="0.000157607658 0.30442913 195.178582 0.30442913 195.178582 124.286524 0.000157607658 124.286524"></polygon>
        <polygon id="path-3" points="0 127.695289 195.178582 127.695289 195.178582 1.77706667 0 1.77706667"></polygon>
    </defs>
    <g id="20190125" stroke="none" stroke-width="1" fill="none" fill-rule="evenodd">
        <g id="新建服务" transform="translate(-620.000000, -226.000000)">
            <g id="分组-4" transform="translate(620.000000, 226.000000)">
                <g id="服务器出错" transform="translate(2.000000, 36.000000)">
                    <g id="分组">
                        <g transform="translate(0.000000, 1.473067)">
                            <mask id="mask-2" fill="white">
                                <use xlink:href="#path-1"></use>
                            </mask>
                            <g id="Clip-2"></g>
                            <path d="M26.8170764,39.0833778 C34.0405673,34.9322667 33.0801673,11.8638222 43.7443491,6.49137778 C54.9395127,0.850488889 74.42904,-1.02862222 96.6144582,8.65671111 C106.359222,12.9109333 119.879658,-14.7655111 155.107985,12.4167111 C177.207876,29.4709333 174.287476,43.6416 167.580713,53.8993778 C160.872167,64.1571556 198.77144,69.8176 194.901331,84.7136 C191.031222,99.6113778 199.314895,91.3073778 183.319513,106.935822 C167.324131,122.566044 150.273913,115.291378 124.667404,120.861156 C96.9779491,126.886044 67.0808218,123.181156 65.2740582,122.935822 C63.4672945,122.690489 33.8998036,126.242489 25.33104,113.454933 C19.6220945,104.932267 7.13511273,114.926933 1.57405818,99.5278222 C-4.36117818,83.0958222 8.40198545,78.1162667 8.40376727,63.3802667 C8.40554909,52.6318222 22.9665673,41.2967111 26.8170764,39.0833778" id="Fill-1" fill="#E8E7E8" mask="url(#mask-2)"></path>
                        </g>
                        <path d="M58.6984364,127.137956 L16.0078545,127.137956 L16.0078545,62.2988444 C16.0078545,60.3361778 17.6043636,58.7432889 19.5714909,58.7432889 L55.1348,58.7432889 C57.1019273,58.7432889 58.6984364,60.3361778 58.6984364,62.2988444 L58.6984364,127.137956 Z" id="Fill-3" fill="#BFBFC1"></path>
                        <path d="M42.3349309,121.726578 L32.07344,121.726578 C31.5816582,121.726578 31.1825309,121.328356 31.1825309,120.837689 C31.1825309,120.347022 31.5816582,119.9488 32.07344,119.9488 L42.3349309,119.9488 C42.8267127,119.9488 43.22584,120.347022 43.22584,120.837689 C43.22584,121.328356 42.8267127,121.726578 42.3349309,121.726578" id="Fill-5" fill="#FFFFFF"></path>
                        <path d="M47.2609455,121.726578 L45.6198909,121.726578 C45.1281091,121.726578 44.7289818,121.328356 44.7289818,120.837689 C44.7289818,120.347022 45.1281091,119.9488 45.6198909,119.9488 L47.2609455,119.9488 C47.7527273,119.9488 48.1518545,120.347022 48.1518545,120.837689 C48.1518545,121.328356 47.7527273,121.726578 47.2609455,121.726578" id="Fill-7" fill="#FFFFFF"></path>
                        <mask id="mask-4" fill="white">
                            <use xlink:href="#path-3"></use>
                        </mask>
                        <g id="Clip-10"></g>
                        <polygon id="Fill-9" fill="#FFFFFF" mask="url(#mask-4)" points="39.4993455 73.5086222 57.2124 73.5086222 57.2124 71.0499556 39.4993455 71.0499556"></polygon>
                        <polygon id="Fill-11" fill="#FFFFFF" mask="url(#mask-4)" points="39.4993455 79.6508444 57.2124 79.6508444 57.2124 77.1939556 39.4993455 77.1939556"></polygon>
                        <polygon id="Fill-12" fill="#FFFFFF" mask="url(#mask-4)" points="39.4993455 85.7948444 57.2124 85.7948444 57.2124 83.3361778 39.4993455 83.3361778"></polygon>
                        <path d="M65.1765927,104.256 C65.1765927,104.256 63.7743018,98.2151111 66.9316836,91.5217778 C68.43732,88.3306667 69.9821564,86.6844444 71.2704109,85.7137778 C71.9546291,85.1982222 72.9185927,85.7671111 72.8099018,86.6151111 L71.1706291,99.4755556 C71.1706291,99.4755556 70.9746291,106.103111 69.3834655,109.144889 C67.5802655,112.597333 61.3955745,109.301333 60.0503018,108.581333 C58.7192836,107.864889 54.4589564,104.901333 52.2548473,101.692444 C48.8551382,96.7377778 48.2528836,94.8728889 50.4783745,92.3022222 C52.5933927,89.8577778 56.5472473,85.5182222 61.1140473,94.0248889 C61.9194291,95.5235556 61.8731018,97.8364444 62.2971745,98.8124444 C63.2468836,101.002667 66.9299018,107.301333 66.9299018,107.301333" id="Fill-13" fill="#FFFFFF" mask="url(#mask-4)"></path>
                        <path d="M55.4966873,89.8897778 C53.8859236,89.8897778 52.4159236,91.4257778 51.1526145,92.8853333 C49.4563236,94.8408889 49.4955236,96.096 52.9896691,101.189333 C55.1135964,104.280889 59.2759236,107.155556 60.4733055,107.797333 C64.6267236,110.023111 66.6366145,109.925333 67.4598145,109.674667 C67.9836691,109.512889 68.3435964,109.214222 68.5948327,108.734222 C70.07196,105.909333 70.2786509,99.5128889 70.2804327,99.4488889 L71.9268327,86.5031111 C70.2554873,87.5928889 68.9244691,89.3848889 67.7377782,91.9004444 C64.9991236,97.7048889 65.8454873,103.022222 66.0165418,103.923556 C66.9252691,105.528889 67.6843236,106.824889 67.70036,106.853333 C67.9480327,107.276444 67.8037055,107.822222 67.3796327,108.069333 C66.9573418,108.316444 66.4085418,108.172444 66.1608691,107.749333 C66.09316,107.632 65.3447964,106.353778 64.4521055,104.775111 C64.4164691,104.723556 64.3826145,104.666667 64.3576691,104.606222 C63.2689782,102.677333 61.9949782,100.357333 61.4782509,99.1662222 C61.2608691,98.6631111 61.1610873,98 61.0417055,97.2302222 C60.8973782,96.2773333 60.7316691,95.1964444 60.3289782,94.4462222 C58.8001782,91.5982222 57.2678145,90.0711111 55.7710873,89.9057778 C55.6802145,89.8951111 55.58756,89.8897778 55.4966873,89.8897778 M66.4744691,111.582222 C64.6783964,111.582222 62.3851964,110.840889 59.6287236,109.363556 C58.2798873,108.64 53.8556327,105.594667 51.5214509,102.193778 C48.2785418,97.472 47.0526509,94.8977778 49.80556,91.7208889 C50.9833418,90.3626667 53.1803236,87.8346667 55.9688691,88.1386667 C58.1123964,88.3751111 60.0527964,90.1635556 61.89876,93.6053333 C62.44756,94.6275556 62.6382145,95.8684444 62.8057055,96.9635556 C62.8947964,97.5555556 62.9874509,98.1671111 63.11396,98.4604444 C63.3046145,98.8977778 63.6110873,99.5111111 63.9781418,100.209778 C64.0405055,97.7831111 64.5162509,94.5528889 66.1270145,91.1431111 C67.4384327,88.3608889 68.9458509,86.352 70.7330145,85.0044444 C71.3299236,84.56 72.12996,84.5084444 72.77676,84.8817778 C73.4289055,85.2568889 73.7888327,85.9822222 73.6943964,86.7271111 L72.0551236,99.5875556 C72.0533418,99.7795556 71.8395236,106.371556 70.1735236,109.557333 C69.7013418,110.460444 68.9654509,111.072 67.9854509,111.372444 C67.5293055,111.512889 67.0250509,111.582222 66.4744691,111.582222" id="Fill-14" fill="#545A6D" mask="url(#mask-4)"></path>
                        <path d="M114.742142,101.771733 L107.418869,109.154844 C106.068251,110.516622 106.075378,112.708622 107.433124,114.059733 L113.726505,120.317511 C114.792033,121.377067 116.518615,121.377067 117.584142,120.315733 L127.548069,110.383289" id="Fill-15" fill="#FFFFFF" mask="url(#mask-4)"></path>
                        <path d="M115.653898,121.999111 C114.727353,121.999111 113.802589,121.648889 113.096989,120.946667 L106.805389,114.690667 C105.101971,112.998222 105.093062,110.235556 106.784007,108.530667 L114.109062,101.147556 C114.452953,100.799111 115.017789,100.792 115.368807,101.140444 C115.718044,101.485333 115.721607,102.047111 115.375935,102.397333 L108.05088,109.780444 C107.049498,110.790222 107.054844,112.427556 108.061571,113.430222 L114.354953,119.686222 C115.076589,120.404444 116.238335,120.400889 116.952844,119.686222 L126.916771,109.753778 C127.266007,109.407111 127.829062,109.407111 128.176516,109.753778 C128.525753,110.102222 128.525753,110.664 128.176516,111.010667 L118.214371,120.943111 C117.508771,121.647111 116.582225,121.999111 115.653898,121.999111" id="Fill-16" fill="#545A6D" mask="url(#mask-4)"></path>
                        <path d="M109.064378,100.856711 L94.6957964,90.3393778 L93.4538691,84.8104889 C93.2632145,83.9518222 93.8547782,82.6558222 94.6191782,83.0949333 C98.6603418,85.4273778 108.059433,91.4327111 111.232851,94.5633778 C112.086342,95.4060444 113.110887,96.0336 114.254815,96.3927111 C116.31816,97.0398222 119.59136,98.6807111 120.674705,102.725156 C121.007905,103.973156 121.679651,107.429156 119.128087,108.894044 C118.545433,109.228267 117.041578,109.434489 116.380524,109.450489 C115.343505,109.475378 114.438342,107.759822 113.661469,107.070044 L111.67296,104.863822 L108.535178,108.028267 C106.77296,106.613156 109.064378,100.856711 109.064378,100.856711" id="Fill-17" fill="#FFFFFF" mask="url(#mask-4)"></path>
                        <path d="M111.703964,103.568533 L114.325018,106.476978 C114.528145,106.647644 114.818582,107.001422 115.121491,107.374756 C115.435091,107.762311 116.021309,108.615644 116.359855,108.562311 C117.054764,108.546311 118.332327,108.325867 118.685127,108.124978 C120.650473,106.996089 120.130182,104.132089 119.813018,102.953422 C118.874,99.4458667 116.126436,97.9098667 113.988255,97.2414222 C112.716036,96.8432 111.579236,96.1534222 110.606364,95.1952 C107.655673,92.2849778 98.7733091,86.5427556 94.4042909,83.9987556 C94.3330182,84.1640889 94.2795636,84.4165333 94.3241091,84.6174222 L95.4912,89.8209778 L110.146655,100.546311 L109.891855,101.184533 C109.155964,103.036978 108.653491,105.289422 108.776436,106.519644 L111.703964,103.568533 Z M116.358073,110.340089 C115.230182,110.340089 114.401636,109.316089 113.735236,108.492978 C113.500036,108.201422 113.280873,107.922311 113.070618,107.733867 L111.643382,106.156978 L108.6036,109.225422 L107.9764,108.720533 C106.103709,107.218311 107.3492,102.980089 107.992436,101.173867 L93.8982545,90.8592 L92.5850545,85.0049778 C92.3730182,84.0556444 92.7489818,82.9178667 93.4421091,82.4112 C93.9267636,82.0538667 94.5361455,82.0236444 95.0635636,82.3240889 C99.1581818,84.6885333 108.596473,90.7152 111.858982,93.9312 C112.628727,94.6885333 113.5232,95.2325333 114.5228,95.5454222 C116.621782,96.2014222 120.326182,97.9792 121.536036,102.494756 C121.956545,104.069867 122.608691,107.920533 119.572473,109.666311 C118.738582,110.140978 116.956764,110.325867 116.402618,110.340089 L116.358073,110.340089 Z" id="Fill-18" fill="#545A6D" mask="url(#mask-4)"></path>
                        <path d="M123.05272,44.8099556 C122.922647,44.8099556 122.789011,44.7815111 122.662502,44.7210667 C112.915956,39.9957333 104.655447,43.7610667 104.573484,43.8001778 C104.126247,44.0064 103.597047,43.8179556 103.388575,43.3735111 C103.17832,42.9290667 103.368975,42.4010667 103.814429,42.1912889 C104.181484,42.0188444 112.928429,38.0295111 123.442938,43.1210667 C123.884829,43.3361778 124.068356,43.8677333 123.854538,44.3104 C123.69952,44.6250667 123.384138,44.8099556 123.05272,44.8099556" id="Fill-19" fill="#FFFFFF" mask="url(#mask-4)"></path>
                        <polygon id="Fill-20" fill="#FFFFFF" mask="url(#mask-4)" points="33.6015273 73.4588444 36.064 73.4588444 36.064 71.0001778 33.6015273 71.0001778"></polygon>
                        <polygon id="Fill-21" fill="#FFFFFF" mask="url(#mask-4)" points="33.6015273 79.6010667 36.064 79.6010667 36.064 77.1441778 33.6015273 77.1441778"></polygon>
                        <polygon id="Fill-22" fill="#FFFFFF" mask="url(#mask-4)" points="33.6015273 85.7450667 36.064 85.7450667 36.064 83.2864 33.6015273 83.2864"></polygon>
                        <path d="M98.7022145,90.3845333 C99.4149418,98.4467556 94.8107236,121.029867 86.7301782,121.742756 C78.6496327,122.453867 70.1521418,101.022756 69.4394145,92.9605333 C68.7266873,84.8983111 75.0788691,82.0876444 83.1594145,81.3765333 C91.2417418,80.6636444 97.9912691,82.3223111 98.7022145,90.3845333" id="Fill-23" fill="#FFFFFF" mask="url(#mask-4)"></path>
                        <path d="M86.3096691,82.1189333 C85.3439236,82.1189333 84.32116,82.1651556 83.2378145,82.2611556 C78.8563236,82.6469333 75.6793418,83.5856 73.52156,85.1322667 C71.0662145,86.8958222 70.0202873,89.4291556 70.32676,92.8833778 C70.6492691,96.5331556 72.7411236,103.667378 76.1141055,110.236267 C79.7205055,117.256711 83.5157782,121.119822 86.6517782,120.856711 C89.7432327,120.584711 92.8453782,116.101156 95.1635236,108.559822 C97.3319964,101.503822 98.13916,94.1153778 97.8148691,90.4620444 C97.5101782,87.0096 96.0366145,84.6949333 93.3104327,83.3918222 C91.5393055,82.5438222 89.1908691,82.1189333 86.3096691,82.1189333 M86.3239236,122.648711 C81.5165782,122.650489 77.2758509,116.394489 74.5300691,111.046933 C71.4599964,105.070044 68.9458509,97.4967111 68.5520691,93.0398222 C67.89636,85.6193778 72.7838873,81.3971556 83.0810145,80.4904889 C87.7939236,80.0744889 91.3878509,80.4993778 94.0801782,81.7882667 C97.3765418,83.3651556 99.2296327,86.2309333 99.58956,90.3056 C100.250615,97.7864889 95.8887236,121.827378 86.8085782,122.627378 C86.6464327,122.6416 86.4860691,122.648711 86.3239236,122.648711" id="Fill-24" fill="#545A6D" mask="url(#mask-4)"></path>
                        <path d="M88.6413564,35.3568 C105.777102,35.9292444 109.763029,43.3656889 110.425865,50.8750222 L110.83212,55.4634667 C111.617902,64.3452444 107.902811,73.6803556 82.4174655,75.9239111 C58.2043382,78.0572444 52.6753564,69.6554667 51.8895745,60.7754667 L51.46372,55.9576889 C50.7795018,48.2154667 53.71772,40.1496889 70.6200473,36.8145778" id="Fill-25" fill="#FFFFFF" mask="url(#mask-4)"></path>
                        <path d="M75.3577236,77.1448889 C59.9556873,77.1448889 51.9695782,71.7795556 51.0020509,60.8533333 L50.5761964,56.0355556 C49.6318327,45.3404444 56.1301236,38.768 70.4470327,35.9431111 L70.7909236,37.6871111 C53.1295418,41.1733333 51.8074327,49.7386667 52.3508873,55.8791111 L52.7767418,60.6968889 C53.4181964,67.9146667 57.1582327,77.2586667 82.3388873,75.0382222 C108.134269,72.7662222 110.641287,63.424 109.944596,55.5413333 L109.538342,50.9546667 C109.005578,44.9226667 106.256233,36.8355556 88.6108873,36.2453333 L88.6714691,34.4675556 C103.177251,34.9546667 110.370451,40.1422222 111.313033,50.7982222 L111.719287,55.3848889 C112.847178,68.1457778 103.560342,74.9546667 82.4956873,76.8106667 C79.9619418,77.0346667 77.5814327,77.1448889 75.3577236,77.1448889" id="Fill-26" fill="#545A6D" mask="url(#mask-4)"></path>
                        <path d="M88.6413564,35.3568 C105.777102,35.9292444 109.763029,43.3656889 110.425865,50.8750222 L110.83212,55.4634667 C111.617902,64.3452444 107.902811,73.6803556 82.4174655,75.9239111 C58.2043382,78.0572444 52.6753564,69.6554667 51.8895745,60.7754667 L51.46372,55.9576889 C50.7795018,48.2154667 53.71772,40.1496889 70.6200473,36.8145778" id="Fill-27" fill="#FFFFFF" mask="url(#mask-4)"></path>
                        <path d="M75.3577236,77.1448889 C59.9556873,77.1448889 51.9695782,71.7795556 51.0020509,60.8533333 L50.5761964,56.0355556 C49.6318327,45.3404444 56.1301236,38.768 70.4470327,35.9431111 L70.7909236,37.6871111 C53.1295418,41.1733333 51.8074327,49.7386667 52.3508873,55.8791111 L52.7767418,60.6968889 C53.4181964,67.9146667 57.1582327,77.2586667 82.3388873,75.0382222 C108.134269,72.7662222 110.641287,63.424 109.944596,55.5413333 L109.538342,50.9546667 C109.005578,44.9226667 106.256233,36.8355556 88.6108873,36.2453333 L88.6714691,34.4675556 C103.177251,34.9546667 110.370451,40.1422222 111.313033,50.7982222 L111.719287,55.3848889 C112.847178,68.1457778 103.560342,74.9546667 82.4956873,76.8106667 C79.9619418,77.0346667 77.5814327,77.1448889 75.3577236,77.1448889" id="Fill-28" fill="#545A6D" mask="url(#mask-4)"></path>
                        <path d="M71.0459018,41.2318222 L70.6218291,36.4371556 C70.3759382,33.6638222 72.4179018,32.5278222 75.1886291,32.0727111 C76.2292109,31.9020444 77.4800473,31.7420444 78.98212,31.6104889 C80.6516836,31.4629333 82.03972,31.4042667 83.1889927,31.3989333 C85.9668473,31.3882667 87.7878655,32.1313778 88.3740836,34.8976 L88.7945927,39.6691556" id="Fill-29" fill="#FFFFFF" mask="url(#mask-4)"></path>
                        <path d="M69.2710327,41.3879111 L68.84696,36.5932444 C68.6367055,34.2199111 69.5169236,31.2030222 74.8980145,30.3176889 C76.0704509,30.1256889 77.39256,29.9656889 78.8251418,29.8394667 C80.3984873,29.7008 81.8631418,29.6261333 83.1816873,29.6208 C84.6356509,29.6154667 89.07416,29.5976889 90.1165236,34.5328 L90.1485964,34.7425778 L90.5691055,39.5123556 L87.0197236,39.8252444 L86.6081236,35.1656889 C86.2980873,33.7950222 85.7047418,33.1763556 83.25296,33.1763556 L83.1959418,33.1763556 C81.9807418,33.1816889 80.6140873,33.2510222 79.1387418,33.3808 C77.7916873,33.4999111 76.5604509,33.6474667 75.4771055,33.8270222 C72.2252873,34.3621333 72.3286327,35.5159111 72.3963418,36.2803556 L72.8204145,41.0750222 L69.2710327,41.3879111 Z" id="Fill-30" fill="#545A6D" mask="url(#mask-4)"></path>
                        <path d="M87.5328873,43.4938667 C85.2824509,43.4156444 82.74336,43.4885333 79.8746327,43.7427556 C60.9196509,45.4103111 57.8246327,52.7596444 58.4464873,59.7800889 L58.7832509,63.5969778 C59.4051055,70.6298667 63.7402691,77.2876444 82.6934691,75.6165333 C102.642705,73.8618667 105.543505,66.4716444 104.923433,59.4369778 L104.600924,55.8032 C104.075287,49.8547556 100.949978,43.9614222 87.5328873,43.4938667" id="Fill-31" fill="#545A6D" mask="url(#mask-4)"></path>
                        <path d="M91.9056473,97.0858667 L94.8492109,97.6956444 L94.0064109,88.1898667 L91.1180836,88.7356444 L84.3151018,89.3436444 C84.1672109,89.3560889 84.0567382,89.4894222 84.0709927,89.6369778 L84.76412,97.4307556 C84.7748109,97.5587556 84.9173564,97.6832 85.0545564,97.6760889 L91.9056473,97.0858667 Z M94.8545564,99.4734222 C94.7333927,99.4734222 94.6122291,99.4609778 94.4892836,99.4360889 L91.7987382,98.8814222 L85.2095745,99.4467556 C84.6589927,99.4947556 84.1351382,99.3294222 83.7146291,98.9756444 C83.29412,98.6254222 83.0357564,98.1312 82.9894291,97.5854222 L82.29452,89.7934222 C82.1947382,88.6716444 83.0304109,87.6725333 84.15652,87.5712 L90.8721927,86.9756444 L93.6678655,86.4423111 C94.1649927,86.3480889 94.6763745,86.4672 95.0772836,86.7694222 C95.4799745,87.0716444 95.7347745,87.5320889 95.7811018,88.0316444 L96.6256836,97.5338667 C96.6773564,98.0974222 96.4635382,98.6396444 96.0376836,99.0183111 C95.7062655,99.3152 95.2875382,99.4734222 94.8545564,99.4734222 Z" id="Fill-32" fill="#545A6D" mask="url(#mask-4)"></path>
                        <polygon id="Fill-33" fill="#545A6D" mask="url(#mask-4)" points="91.7768218 97.9557333 84.7600218 98.5779556 83.89584 88.8659556 90.91264 88.2437333"></polygon>
                        <path d="M71.0459018,41.2318222 L70.6218291,36.4371556 C70.3759382,33.6638222 72.4179018,32.5278222 75.1886291,32.0727111 C76.2292109,31.9020444 77.4800473,31.7420444 78.98212,31.6104889 C80.6516836,31.4629333 82.03972,31.4042667 83.1889927,31.3989333 C85.9668473,31.3882667 87.7878655,32.1313778 88.3740836,34.8976 L88.7945927,39.6691556" id="Fill-34" fill="#FFFFFF" mask="url(#mask-4)"></path>
                        <path d="M72.3316618,41.0912 L71.9699527,36.9969778 C71.76148,34.6307556 73.5023164,33.6600889 75.8685709,33.2743111 C76.7559164,33.1285333 77.8250073,32.9898667 79.1079164,32.8778667 C80.5315891,32.7516444 81.71828,32.7000889 82.69828,32.6965333 C85.0680982,32.6876444 86.6236255,33.3223111 87.1243164,35.6849778 L87.4842436,39.7560889" id="Fill-35" fill="#E5564F" mask="url(#mask-4)"></path>
                        <polygon id="Fill-36" fill="#FFFFFF" mask="url(#mask-4)" points="82.5927964 37.3514667 77.1172691 37.8368 76.9693782 36.1781333 82.4449055 35.6910222"></polygon>
                        <polygon id="Fill-37" fill="#FFFFFF" mask="url(#mask-4)" points="79.2014618 39.6675556 78.6972073 34.0088889 80.3596436 33.8613333 80.86568 39.52"></polygon>
                        <path d="M185.280582,127.695289 L13.6326909,127.695289 C13.1409091,127.695289 12.7417818,127.297067 12.7417818,126.8064 C12.7417818,126.315733 13.1409091,125.917511 13.6326909,125.917511 L185.280582,125.917511 C185.772364,125.917511 186.171491,126.315733 186.171491,126.8064 C186.171491,127.297067 185.772364,127.695289 185.280582,127.695289" id="Fill-38" fill="#545A6D" mask="url(#mask-4)"></path>
                        <path d="M174.727051,126.372444 L112.95676,126.372444 L112.95676,30.9644444 C112.95676,29.0017778 114.553269,27.4088889 116.520396,27.4088889 L171.163415,27.4088889 C173.130542,27.4088889 174.727051,29.0017778 174.727051,30.9644444 L174.727051,126.372444 Z" id="Fill-39" fill="#FFFFFF" mask="url(#mask-4)"></path>
                        <path d="M113.847669,125.483556 L173.836142,125.483556 L173.836142,30.9644444 C173.836142,29.4942222 172.636978,28.2977778 171.163415,28.2977778 L116.520396,28.2977778 C115.046833,28.2977778 113.847669,29.4942222 113.847669,30.9644444 L113.847669,125.483556 Z M175.61796,127.261333 L112.065851,127.261333 L112.065851,30.9644444 C112.065851,28.5128889 114.063269,26.52 116.520396,26.52 L171.163415,26.52 C173.620542,26.52 175.61796,28.5128889 175.61796,30.9644444 L175.61796,127.261333 Z" id="Fill-40" fill="#545A6D" mask="url(#mask-4)"></path>
                        <path d="M173.825807,125.481778 L160.684898,125.481778 L160.684898,28.2977778 L171.416789,28.2977778 C172.747807,28.2977778 173.825807,29.3733333 173.825807,30.7013333 L173.825807,125.481778 Z" id="Fill-41" fill="#D1D1D5" mask="url(#mask-4)"></path>
                        <polygon id="Fill-42" fill="#E5564F" mask="url(#mask-4)" points="123.693818 87.3557333 159.173382 87.3557333 159.173382 39.7432889 123.693818 39.7432889"></polygon>
                        <polygon id="Fill-43" fill="#545A6D" mask="url(#mask-4)" points="159.209018 126.169956 160.990836 126.169956 160.990836 27.8535111 159.209018 27.8535111"></polygon>
                        <path d="M137.086142,119.483556 L122.236469,119.483556 C121.744687,119.483556 121.34556,119.085333 121.34556,118.594667 C121.34556,118.104 121.744687,117.705778 122.236469,117.705778 L137.086142,117.705778 C137.577924,117.705778 137.977051,118.104 137.977051,118.594667 C137.977051,119.085333 137.577924,119.483556 137.086142,119.483556" id="Fill-44" fill="#545A6D" mask="url(#mask-4)"></path>
                        <path d="M144.213415,119.483556 L141.836469,119.483556 C141.344687,119.483556 140.94556,119.085333 140.94556,118.594667 C140.94556,118.104 141.344687,117.705778 141.836469,117.705778 L144.213415,117.705778 C144.705196,117.705778 145.104324,118.104 145.104324,118.594667 C145.104324,119.085333 144.705196,119.483556 144.213415,119.483556" id="Fill-45" fill="#545A6D" mask="url(#mask-4)"></path>
                        <polygon id="Fill-46" fill="#FCCB4F" mask="url(#mask-4)" points="127.025818 50.0384 130.589455 50.0384 130.589455 46.4828444 127.025818 46.4828444"></polygon>
                        <polygon id="Fill-47" fill="#FFFFFF" mask="url(#mask-4)" points="132.982436 50.1077333 156.0356 50.1077333 156.0356 46.5521778 132.982436 46.5521778"></polygon>
                        <polygon id="Fill-48" fill="#FFFFFF" mask="url(#mask-4)" points="127.025818 58.9272889 130.589455 58.9272889 130.589455 55.3717333 127.025818 55.3717333"></polygon>
                        <polygon id="Fill-49" fill="#FFFFFF" mask="url(#mask-4)" points="132.982436 58.9966222 156.0356 58.9966222 156.0356 55.4410667 132.982436 55.4410667"></polygon>
                        <polygon id="Fill-50" fill="#FCCB4F" mask="url(#mask-4)" points="127.025818 67.8161778 130.589455 67.8161778 130.589455 64.2606222 127.025818 64.2606222"></polygon>
                        <polygon id="Fill-51" fill="#FCCB4F" mask="url(#mask-4)" points="132.982436 67.8855111 156.0356 67.8855111 156.0356 64.3299556 132.982436 64.3299556"></polygon>
                        <path d="M129.055844,81.0424889 C128.537335,81.0442667 128.106135,80.6407111 128.074062,80.1233778 L127.710571,74.0007111 C127.667807,73.2487111 128.264716,72.6140444 129.018425,72.6104889 C129.772135,72.6069333 130.374389,73.2362667 130.338753,73.9882667 L130.028716,80.1162667 C130.001989,80.6336 129.576135,81.0389333 129.055844,81.0424889" id="Fill-52" fill="#FFFFFF" mask="url(#mask-4)"></path>
                        <path d="M130.10676,82.8862222 C130.108542,83.4586667 129.643487,83.928 129.069742,83.9297778 C128.494215,83.9315556 128.025596,83.4693333 128.022033,82.8951111 C128.020251,82.3208889 128.485305,81.8533333 129.059051,81.8497778 C129.634578,81.848 130.103196,82.312 130.10676,82.8862222" id="Fill-53" fill="#FFFFFF" mask="url(#mask-4)"></path>
                        <path d="M49.784,36.3098667 C49.1300727,36.8040889 48.1999636,36.7045333 47.6689818,36.0787556 L41.3756,28.6814222 C40.6058545,27.7729778 40.7555273,26.4058667 41.7052364,25.6840889 C42.6567273,24.9658667 44.0180364,25.1898667 44.6862182,26.1765333 L50.1296727,34.2156444 C50.5911636,34.8947556 50.4379273,35.8138667 49.784,36.3098667" id="Fill-54" fill="#E5564F" mask="url(#mask-4)"></path>
                        <path d="M52.8674364,37.6449778 C53.4180182,38.3667556 53.2754727,39.3978667 52.5502727,39.9489778 C51.8250727,40.4965333 50.7916182,40.3543111 50.2410364,39.6307556 C49.6922364,38.9089778 49.8347818,37.8778667 50.5582,37.3285333 C51.2834,36.7809778 52.3168545,36.9214222 52.8674364,37.6449778" id="Fill-55" fill="#E5564F" mask="url(#mask-4)"></path>
                        <path d="M88.0236,61.1761778 C88.0236,64.6535111 85.1976364,67.4730667 81.7124,67.4730667 C78.2271636,67.4730667 75.4029818,64.6535111 75.4029818,61.1761778 C75.4029818,57.6988444 78.2271636,54.8792889 81.7124,54.8792889 C85.1976364,54.8792889 88.0236,57.6988444 88.0236,61.1761778" id="Fill-56" fill="#FFFFFF" mask="url(#mask-4)"></path>
                        <path d="M64.0143127,118.006044 C63.6935855,118.006044 63.3782036,117.956267 63.06104,117.846044 C60.7607127,117.058489 59.4065309,113.277156 58.6670764,105.584711 L60.4417673,105.414044 C61.2328945,113.666489 62.6173673,115.815822 63.6401309,116.166044 C65.0192582,116.630044 67.4995491,114.030933 69.6804945,111.730489 C73.2387855,107.972267 77.2799491,103.710933 81.3585309,106.171378 C82.3224945,106.7456 82.8499127,106.5856 83.1652945,106.407822 C85.3498036,105.184711 86.1997309,98.0789333 86.2228945,93.8869333 L88.0047127,93.8958222 C87.9975855,95.1118222 87.8283127,105.8336 84.0366036,107.958044 C83.2935855,108.3776 82.0623491,108.669156 80.4408945,107.693156 C77.5775127,105.968711 74.2223491,109.522489 70.9740945,112.951822 C68.4296582,115.638044 66.1863491,118.006044 64.0143127,118.006044" id="Fill-57" fill="#545A6D" mask="url(#mask-4)"></path>
                        <path d="M63.64708,98.9226667 C63.9642436,102.467556 61.3378436,105.598222 57.7848982,105.914667 C54.2319527,106.227556 51.0941709,103.610667 50.7770073,100.065778 C50.4634073,96.5173333 53.0862436,93.3902222 56.6409709,93.0737778 C60.1956982,92.7573333 63.3316982,95.3777778 63.64708,98.9226667" id="Fill-58" fill="#FFFFFF" mask="url(#mask-4)"></path>
                        <path d="M57.2245164,93.9365333 C57.0570255,93.9365333 56.8895345,93.9436444 56.7202618,93.9596444 C53.6626618,94.2316444 51.3944073,96.9356444 51.6652436,99.9863111 C51.93608,103.036978 54.6373164,105.287644 57.7073891,105.028089 C59.18808,104.896533 60.5280073,104.196089 61.4848436,103.058311 C62.4398982,101.920533 62.89248,100.480533 62.7588436,99.0014222 C62.6287709,97.5240889 61.9285164,96.1854222 60.7863709,95.2325333 C59.77608,94.3880889 58.5252436,93.9365333 57.2245164,93.9365333 M57.20848,106.828978 C53.4470618,106.828978 50.23088,103.952533 49.8905527,100.142756 C49.5324073,96.1160889 52.5258618,92.5480889 56.5634618,92.1889778 C58.50208,92.0200889 60.42288,92.6103111 61.9302982,93.8689778 C63.4359345,95.1258667 64.3606982,96.8929778 64.5353164,98.8449778 C64.7081527,100.793422 64.1094618,102.697422 62.8497164,104.199644 C61.5899709,105.701867 59.8188436,106.626311 57.8624073,106.798756 C57.6432436,106.818311 57.4258618,106.828978 57.20848,106.828978" id="Fill-59" fill="#545A6D" mask="url(#mask-4)"></path>
                        <path d="M61.2736982,99.1484444 C61.4732618,101.408 59.8019164,103.406222 57.5336618,103.607111 C55.2689709,103.808 53.2679891,102.138667 53.0684255,99.8755556 C52.8652982,97.616 54.5402073,95.6213333 56.8048982,95.4186667 C59.0713709,95.2177778 61.0723527,96.8888889 61.2736982,99.1484444" id="Fill-60" fill="#E8E7E8" mask="url(#mask-4)"></path>
                    </g>
                </g>
            </g>
        </g>
    </g>
</svg>