<svg xmlns="http://www.w3.org/2000/svg" viewBox="0 0 125 68">
  <g fill="none" fill-rule="nonzero">
    <g fill="#717071">
      <path d="M81.49224797 6.58914729s-1.25968992 2.51937984-1.35658915 2.61627907c-.09689922.29069767 0 .48449612.29069768.48449612h1.84108527s4.36046511-8.52713178 4.45736434-8.62403101c0-.09689922 0-.19379845-.09689923-.19379845h-1.74418604c-.29069768 0-.48449613.09689923-.58139535.29069768 0 .09689922-1.35658915 2.61627907-1.35658915 2.61627907-.09689922.19379845-.29069767.19379845-.3875969 0 0 0-1.1627907-2.42248062-1.25968992-2.51937985-.09689923-.29069767-.3875969-.3875969-.67829457-.3875969h-1.64728683c-.09689922 0-.09689922.09689923-.09689922.09689923l2.61627907 5.62015504M87.30620146 5.71705426c.67829457.58139535 1.64728684.87209303 2.71317834.87209303 1.1627906 0 2.0348837-.29069768 2.7131782-.87209303.5813954-.58139535.9689923-1.45348837.9689923-2.13178294 0-.87209303-.2906977-1.64728682-.9689923-2.13178295-.6782945-.58139535-1.5503876-.87209302-2.8100775-.87209302-1.1627907 0-2.03488369.29069767-2.71317827.87209302-.58139535.58139535-.96899225 1.45348837-.96899225 2.13178295.19379845.87209302.48449613 1.64728682 1.06589148 2.13178294m1.64728684-2.71317829c.5813953-1.06589147 1.2596899-1.45348837 2.0348837-1.1627907.7751938.3875969.872093 1.1627907.2906977 2.3255814-.5813954 1.06589147-1.2596899 1.45348837-2.0348837 1.16279069-.87209307-.38759689-.96899229-1.16279069-.2906977-2.32558139M104.0697673 6.58914729s-1.2596899 2.51937984-1.3565891 2.61627907c-.0968992.29069767 0 .48449612.2906977.48449612h1.8410852s4.3604652-8.52713178 4.4573644-8.62403101c0-.09689922 0-.19379845-.0968992-.19379845h-1.7441861c-.2906977 0-.4844961.09689923-.5813953.29069768 0 .09689922-1.3565892 2.61627907-1.3565892 2.61627907-.0968992.19379845-.2906977.19379845-.3875969 0 0 0-1.1627907-2.42248062-1.2596899-2.51937985-.0968992-.29069767-.3875969-.3875969-.6782946-.3875969h-1.6472868c-.0968992 0-.0968992.09689923-.0968992.09689923l2.616279 5.62015504M109.8837208 5.71705426c.6782946.58139535 1.6472869.87209303 2.7131783.87209303 1.1627907 0 2.0348838-.29069768 2.7131783-.87209303.5813954-.58139535.9689923-1.45348837.9689923-2.13178294 0-.87209303-.2906977-1.64728682-.9689923-2.13178295-.6782945-.58139535-1.5503876-.87209302-2.8100775-.87209302-1.1627907 0-2.0348837.29069767-2.7131783.87209302-.5813953.58139535-.9689922 1.45348837-.9689922 2.13178295.0968992.87209302.4844961 1.64728682 1.0658914 2.13178294m1.5503876-2.71317829c.5813954-1.06589147 1.25969-1.45348837 2.0348838-1.1627907.7751938.3875969.872093 1.1627907.2906976 2.3255814-.5813953 1.06589147-1.2596899 1.45348837-2.0348837 1.16279069-.7751938-.38759689-.872093-1.16279069-.2906977-2.32558139M94.3798449 6.49224806h2.0348837c.1937984 0 .2906977-.09689922.2906977-.29069767V2.03488372c1.3565891-.3875969 2.2286821 0 2.2286821.58139535v3.58527132c0 .19379845.0968993.29069767.2906977.29069767h2.0348837V2.71317829c0-1.9379845-2.4224806-2.81007751-6.5891473-1.64728682-.1937984.09689923-.3875969.29069768-.3875969.58139535l.0968993 4.84496124zM123.5465115 6.20155039c.1937985-.09689923.3875969-.29069768.3875969-.58139535V.7751938h-2.0348837c-.1937984 0-.2906977.09689922-.2906977.29069767v4.16666667c-1.3565891.3875969-2.2286821 0-2.2286821-.58139535V1.06589147c0-.19379845-.0968993-.29069767-.2906977-.29069767h-2.0348837v3.77906977c-.1937985 1.93798449 2.2286821 2.81007752 6.492248 1.64728682"/>
    </g>
    <path fill="#E60014" d="M123.9341087 36.2403099h-8.3333333v.96899225c0 7.36434108-2.5193799 10.85271315-7.5581396 10.75581395-1.5503876 0-3.6821705-.3875969-6.29844957-1.2596899V36.2403099h-8.624031v31.0077519H94.76744204c1.06589147 0 2.71317829-.0968992 3.87596899-.6782945 2.61627907-1.3565892 3.10077519-2.6162791 3.19767442-7.8488372V53.972868c2.42248064.6782946 4.55426354 1.0658915 6.29844964 1.0658915 10.8527131.1937985 16.0852713-5.7170543 15.9883721-17.82945735v-.96899225h-.1937985z"/>
    <path fill="#F50F2D" d="M107.9457366 47.9651161c-1.5503876 0-3.6821705-.3875969-6.29844959-1.2596899v-6.49224808c-2.7131783 1.45348837-5.62015504 2.22868217-8.62403101 2.90697674V53.8759688c3.00387597 2.131783 5.91085271 4.2635659 8.62403101 6.5891473V53.972868c2.42248059.6782946 4.55426359 1.0658915 6.29844959 1.0658915 4.4573644.0968992 7.9457365-.872093 10.5620155-2.9069767-1.8410852-1.9379845-3.6821705-3.9728682-5.5232558-5.9108527-1.2596899 1.1627907-2.9069767 1.744186-5.0387597 1.744186zM123.9341087 36.2403099h-8.3333333v.96899225c0 1.35658914-.0968992 2.51937984-.2906977 3.58527132 2.8100775-.19379845 5.620155-.09689923 8.5271318-.09689923.0968992-1.06589147.0968992-2.22868217.0968992-3.48837209v-.96899225z"/>
    <path fill="#0096FF" d="M110.0775196 16.2790698c-3.1007752 0-6.007752.7751938-8.62403104 2.32558139v-2.22868217h-1.84108527c-1.06589148 0-2.42248062.19379845-3.39147287.67829458-2.51937985 1.25968992-3.1007752 2.51937984-3.19767442 7.46124031V35.3682171h8.62403101v-8.9147287c2.61627909-1.55038759 5.13565889-2.32558139 7.55813949-2.32558139 3.2945737-.09689923 5.2325582 1.84108529 6.007752 5.81395349l6.3953488-7.26744186c-2.1317829-4.16666667-6.0077519-6.29844962-11.5310077-6.39534884z"/>
    <path fill="#69CD00" d="M121.70542684 22.6744189l-6.39534884 7.26744186c.19379845 1.06589147.29069767 2.42248064.29069767 3.77906974v1.5503876h8.33333334v-1.5503876c0-4.55426354-.7751938-8.23643408-2.22868217-11.0465116z"/>
    <path fill="#FFB400" d="M99.61240329 16.37596902c-1.06589148 0-2.42248062.19379845-3.39147287.67829458-2.51937985 1.25968992-3.1007752 2.51937984-3.19767442 7.46124031v3.29457369l8.33333333-9.49612408V16.2790698h-1.74418604v.09689922zM76.3565891 16.86046488c-.2906976-.09689922-.5813953-.19379845-.872093-.19379845l-1.0658914-.19379845c-.2906977 0-2.2286822-.19379845-2.3255814-.19379845h-2.2286822c-2.131783 0-4.1666667.09689923-5.9108527.29069768-1.1627907.19379845-2.8100775.48449612-3.5852713.87209302-1.7441861.7751938-3.003876 2.22868217-3.003876 7.46124027.3875969-.0968992 1.5503876-.1937984 1.6472868-.2906976.7751938-.0968993 1.6472868-.1937985 2.4224806-.2906977.7751938-.0968992 1.5503876-.1937985 2.2286822-.1937985 2.0348837-.1937984 3.9728682-.2906976 5.8139535-.2906976h1.6472868c.4844961 0 .9689923.0968992 1.4534884.1937984 2.7131783.5813954 3.9728682 2.5193799 3.6821705 5.8139535v1.0658915h-3.6821705c-7.5581396-.2906977-12.5968992 1.1627907-15.2131783 4.4573643h27.5193798V29.844961c.1937985-7.1705426-2.616279-11.43410852-8.5271318-12.98449612z"/>
    <path fill="#E60014" d="M.48449612 36.2403099v18.7984496s3.19767442.3875969 5.23255814-.6782946c2.7131783-1.3565891 3.19767442-2.7131783 3.19767442-8.3333333v-9.7868217H.48449612z"/>
    <path fill="#69CD00" d="M3.77906977 9.98061992C1.45348837 11.14341062.48449612 13.37209279.48449612 19.1860463c0 0 1.1627907-1.16279072 3.00387597-1.84108529 1.35658915-.48449613 2.3255814-1.1627907 3.00387597-1.64728682 2.03488372-1.5503876 2.3255814-3.29457365 2.3255814-6.49224807 0 0-3.19767442-.19379845-5.03875969.7751938zM69.7674419 16.27906953c-2.131783 0-4.1666667.09689923-5.9108528.29069768-1.1627907.19379845-2.8100775.48449612-3.5852713.87209302-1.744186.7751938-3.0038759 2.22868217-3.0038759 7.46124027 4.3604651-.6782945 8.4302325-1.0658914 12.0155038-1.0658914 1.1627907-.0968993 2.2286822 0 3.1007752.1937984l5.8139535-6.58914727c-2.2286822-.87209302-5.0387597-1.35658914-8.4302325-1.1627907z"/>
    <path fill="#FFB400" d="M24.4186047 16.27906953H23.9341085c-1.0658914 0-2.616279.09689923-3.7790697.67829458-2.6162791 1.35658915-3.1976745 2.61627909-3.1976745 8.33333329v6.9767442l8.3333334-9.496124v-6.39534884h-.872093v-.09689923z"/>
    <path fill="#FFF" d="M115.600775 35.3682168h8.33333333v1H115.600775zM93.0232558 35.3682168h8.62403101v1H93.0232558z"/>
    <path fill="#69CD00" d="M62.20930269 35.36821712l3.77906977-4.2635659c-4.06976744.58139535-6.97674419 2.03488373-8.81782946 4.2635659h5.03875969z"/>
    <path fill="#FFF" d="M39.1472868 35.3682168h8.62403101v1H39.1472868z"/>
    <path fill="#69CD00" d="M47.77131791 35.3682166V21.80232512l-8.62403101 6.00775194v7.55813954z"/>
    <path fill="#FFF" d="M16.9573643 35.3682168h8.33333333v1H16.9573643z"/>
    <path fill="#F50F2D" d="M.48449612 36.2403098v6.7829458c2.81007752.2906977 5.52325582.2906977 8.33333334.1937984v-6.9767442H.48449612z"/>
    <path fill="#FFF" d="M.48449612 35.3682168h8.33333333v1H.48449612z"/>
    <path fill="#E60014" d="M54.84496135 42.92635641v1.25968992C55.0387598 51.356589 58.81782957 54.9418603 66.8604652 54.9418603c3.1007752 0 6.2984496-.6782946 9.3992248-2.131783v2.131783h8.3333334V36.2403099H56.49224817c-1.06589147 1.74418605-1.64728682 4.06976744-1.64728682 6.68604651zM72.383721 37.98449595h3.6821706v8.13953485c-2.131783 1.3565892-4.8449613 2.131783-8.1395349 2.131783-3.003876 0-4.36046512-1.1627907-4.55426357-3.39147289v-1.84108527c-.09689922-3.58527132 2.71317827-5.23255814 9.01162787-5.03875969z"/>
    <path fill="#F50F2D" d="M63.66279081 46.0271316c-2.61627907-2.61627907-5.32945737-5.13565891-8.13953489-7.26744186-.3875969 1.25968993-.58139535 2.61627907-.58139535 4.16666667v1.25968992C55.13565902 51.356589 58.9147288 54.9418603 66.9573644 54.9418603c1.25969 0 2.4224807-.0968992 3.6821706-.2906977-1.5503876-2.4224806-3.3914729-4.748062-5.4263566-6.9767442-.7751938-.3875969-1.25968992-.872093-1.55038759-1.6472868zM82.1705427 36.2403099c-2.0348837 5.71705426-4.0697674 11.4341085-6.492248 16.9573643.1937984-.0968992.4844961-.1937984.6782946-.2906976v2.1317829h1.8410852c1.0658915 0 2.4224806-.1937984 3.3914729-.6782946 2.4224806-1.2596899 3.1007752-2.4224806 3.1976744-6.8798449V36.2403099h-2.6162791z"/>
    <path fill="#FFB400" d="M8.81782946 35.3682168V16.08527109s-.87209303 1.16279069-2.51937985 2.13178294c-1.1627907.67829457-2.13178294.96899227-3.29457364 1.64728687-2.03488372.9689922-2.51937985 2.0348837-2.51937985 3.488372v11.9186047l8.33333334.0968992z"/>
    <g fill="#69CD00">
      <path d="M25.29069746 35.3682168V20.93023235l-8.33333334 7.17054263v7.26744182z"/>
    </g>
    <path fill="#0096FF" d="M45.6395349 16.27906953c-1.0658915 0-2.3255814.19379845-3.2945737.67829458-2.616279 1.35658915-3.1976744 2.61627909-3.1976744 8.33333329v9.0116279l8.624031-9.7868217v-8.23643407h-2.1317829z"/>
    <path fill="#FFB400" d="M24.4186047 16.27906953H23.9341085c-1.0658914 0-2.616279.09689923-3.7790697.67829458-2.6162791 1.35658915-3.1976745 2.61627909-3.1976745 8.33333329v6.9767442l8.3333334-9.496124v-6.39534884h-.872093v-.09689923z"/>
    <g>
      <path fill="#E60014" d="M39.1472866 36.2403099v8.52713178c-3.1007752 1.93798452-6.1046512 2.90697672-8.9147287 2.90697672-3.2945736 0-4.94186044-2.32558137-4.94186044-7.07364338V36.2403099h-8.33333334v4.36046512c-.19379845 9.78682168 3.875969 14.53488368 12.01550388 14.34108528 3.6821705 0 7.0736434-.7751938 10.1744186-2.3255814v2.3255814h1.1627907c1.0658915 0 3.003876 0 4.3604651-.6782946 2.6162791-1.3565891 3.1976744-2.6162791 3.1976744-8.3333333v-9.6899225h-8.7209302z"/>
      <path fill="#F50F2D" d="M16.95736412 36.2403099V42.34496106c2.81007752-.48449612 5.62015504-1.1627907 8.33333334-2.03488372v-4.16666667h-8.33333334v.09689923zM39.1472866 36.2403099v8.52713178c-3.1007752 1.93798452-6.1046512 2.90697672-8.9147287 2.90697672-1.4534883 0-2.616279-.4844961-3.4883721-1.4534883-1.74418602 2.3255813-3.48837206 4.5542635-5.32945733 6.7829457 1.93798449 1.3565891 4.36046511 2.0348837 7.46124033 1.9379845 2.0348837 0 3.875969-.1937985 5.7170542-.6782946 3.3914729-4.748062 7.8488372-8.91472867 12.3062016-12.49999999.1937984-.09689922.4844961-.29069767.7751938-.29069767V36.2403099h-8.5271318z"/>
    </g>
    <path fill="#FFF" d="M84.6899225 35.3682168H57.1705426c-.1937984.2906977-.3875969.5813954-.5813953.872093h28.1007752v-.872093z"/>
  </g>
</svg>
