<?xml version="1.0" encoding="UTF-8"?>
<svg width="145px" height="21px" viewBox="0 0 145 21" version="1.1" xmlns="http://www.w3.org/2000/svg" xmlns:xlink="http://www.w3.org/1999/xlink">
    <!-- Generator: Sketch 51.2 (57519) - http://www.bohemiancoding.com/sketch -->
    <title>logo</title>
    <desc>Created with Sketch.</desc>
    <defs></defs>
    <g id="Page-1" stroke="none" stroke-width="1" fill="none" fill-rule="evenodd" opacity="0.704464286">
        <g id="首页效果01" transform="translate(-648.000000, -14.000000)" fill="#717071" fill-rule="nonzero">
            <g id="logo" transform="translate(648.000000, 14.000000)">
                <path d="M28.6588235,5.92941176 C28.2882353,6.05294118 27.9176471,6.42352941 27.9176471,6.91764706 L27.9176471,15.4411765 L31.5,15.4411765 C31.8705882,15.4411765 32.1176471,15.1941176 32.1176471,14.8235294 L32.1176471,7.53529412 C34.5882353,6.91764706 36.0705882,7.53529412 36.0705882,8.64705882 L36.0705882,14.9470588 C36.0705882,15.3176471 36.1941176,15.4411765 36.5647059,15.4411765 L40.1470588,15.4411765 L40.1470588,8.77058824 C40.2705882,5.43529412 35.9470588,3.82941176 28.6588235,5.92941176 Z M54.1058824,5.43529412 L51.0176471,5.43529412 C50.5235294,5.43529412 50.2764706,5.68235294 50.0294118,5.92941176 C49.9058824,6.05294118 47.6823529,10.6235294 47.6823529,10.6235294 C47.5588235,10.9941176 47.1882353,10.9941176 46.9411765,10.6235294 C46.9411765,10.6235294 44.9647059,6.3 44.8411765,6.05294118 C44.5941176,5.55882353 44.2235294,5.31176471 43.6058824,5.31176471 L40.6411765,5.31176471 C40.5176471,5.31176471 40.3941176,5.43529412 40.5176471,5.55882353 C40.5176471,5.68235294 45.0882353,15.5647059 45.0882353,15.5647059 C45.0882353,15.5647059 42.7411765,20.0117647 42.7411765,20.1352941 C42.4941176,20.6294118 42.7411765,20.8764706 43.2352941,20.8764706 L46.4470588,20.8764706 C46.4470588,20.8764706 54.2294118,5.80588235 54.2294118,5.68235294 C54.3529412,5.68235294 54.3529412,5.43529412 54.1058824,5.43529412 Z M20.3823529,5.06470588 C18.2823529,5.06470588 16.8,5.55882353 15.5647059,6.67058824 C14.4529412,7.65882353 13.8352941,9.14117647 13.8352941,10.5 C13.8352941,12.1058824 14.4529412,13.4647059 15.4411765,14.3294118 C16.5529412,15.3176471 18.4058824,15.8117647 20.2588235,15.8117647 C22.3588235,15.8117647 23.9647059,15.3176471 25.0764706,14.2058824 C26.1882353,13.2176471 26.8058824,11.6117647 26.8058824,10.3764706 C26.8058824,8.77058824 26.3117647,7.53529412 25.2,6.54705882 C24.0882353,5.55882353 22.4823529,5.06470588 20.3823529,5.06470588 Z M22.4823529,11.3647059 C21.4941176,13.2176471 20.2588235,13.9588235 18.7764706,13.3411765 C17.2941176,12.7235294 17.1705882,11.3647059 18.2823529,9.26470588 C19.2705882,7.41176471 20.5058824,6.67058824 21.9882353,7.28823529 C23.4705882,7.90588235 23.5941176,9.38823529 22.4823529,11.3647059 Z M14.3294118,5.43529412 L11.2411765,5.43529412 C10.7470588,5.43529412 10.5,5.68235294 10.2529412,5.92941176 C10.1294118,6.05294118 7.90588235,10.6235294 7.90588235,10.6235294 C7.65882353,10.9941176 7.41176471,10.9941176 7.16470588,10.6235294 C7.16470588,10.6235294 5.06470588,6.3 5.06470588,6.05294118 C4.81764706,5.55882353 4.44705882,5.31176471 3.82941176,5.31176471 L0.864705882,5.31176471 C0.741176471,5.31176471 0.741176471,5.43529412 0.741176471,5.55882353 C0.741176471,5.68235294 5.31176471,15.5647059 5.31176471,15.5647059 C5.31176471,15.5647059 3.08823529,20.0117647 2.96470588,20.1352941 C2.71764706,20.6294118 2.96470588,20.8764706 3.45882353,20.8764706 L6.67058824,20.8764706 C6.67058824,20.8764706 14.3294118,5.80588235 14.4529412,5.68235294 C14.5764706,5.68235294 14.5764706,5.43529412 14.3294118,5.43529412 Z M76.3411765,5.43529412 C75.9705882,5.43529412 75.7235294,5.68235294 75.7235294,6.05294118 L75.7235294,13.3411765 C73.2529412,13.9588235 71.7705882,13.3411765 71.7705882,12.2294118 L71.7705882,5.92941176 C71.7705882,5.55882353 71.5235294,5.43529412 71.1529412,5.43529412 L67.5705882,5.43529412 L67.5705882,12.1058824 C67.5705882,15.4411765 71.8941176,17.0470588 79.1823529,14.9470588 C79.5529412,14.8235294 79.9235294,14.4529412 79.9235294,13.9588235 L79.9235294,5.43529412 L76.3411765,5.43529412 Z M60.1588235,5.06470588 C58.0588235,5.06470588 56.5764706,5.55882353 55.3411765,6.67058824 C54.2294118,7.65882353 53.6117647,9.14117647 53.6117647,10.5 C53.6117647,12.1058824 54.2294118,13.4647059 55.2176471,14.3294118 C56.3294118,15.3176471 58.1823529,15.8117647 60.0352941,15.8117647 C62.1352941,15.8117647 63.7411765,15.3176471 64.8529412,14.2058824 C65.9647059,13.2176471 66.5823529,11.6117647 66.5823529,10.3764706 C66.5823529,8.77058824 66.0882353,7.53529412 64.9764706,6.54705882 C63.8647059,5.55882353 62.2588235,5.06470588 60.1588235,5.06470588 Z M62.2588235,11.3647059 C61.2705882,13.2176471 60.0352941,13.9588235 58.5529412,13.3411765 C57.0705882,12.7235294 56.9470588,11.3647059 58.0588235,9.26470588 C59.0470588,7.41176471 60.2823529,6.67058824 61.7647059,7.28823529 C63.1235294,7.90588235 63.2470588,9.38823529 62.2588235,11.3647059 Z" id="Shape"></path>
                <path d="M133.535294,14.3294118 C134.770588,15.3176471 136.376471,15.8117647 138.476471,15.8117647 C138.970588,15.8117647 139.464706,15.8117647 139.958824,15.6882353 L143.541176,15.6882353 C143.911765,15.6882353 144.158824,15.4411765 144.158824,15.0705882 L144.158824,0 L140.576471,0 C140.205882,0 139.958824,0.247058824 139.958824,0.617647059 L139.958824,5.31176471 C139.464706,5.18823529 138.970588,5.18823529 138.476471,5.18823529 C136.376471,5.18823529 134.770588,5.68235294 133.658824,6.79411765 C132.547059,7.78235294 131.929412,9.38823529 131.929412,10.6235294 C131.805882,12.1058824 132.423529,13.3411765 133.535294,14.3294118 Z M136.252941,9.51176471 C137.241176,7.78235294 138.352941,6.91764706 139.835294,7.41176471 L139.835294,12.4764706 C138.970588,13.5882353 137.982353,13.9588235 136.870588,13.4647059 C135.388235,12.9705882 135.264706,11.6117647 136.252941,9.51176471 Z" id="Shape"></path>
                <path d="M98.8235294,15.8117647 L102.405882,15.8117647 C102.776471,15.8117647 103.023529,15.5647059 103.023529,15.1941176 L103.023529,0 L99.4411765,0 C99.0705882,0 98.8235294,0.247058824 98.8235294,0.494117647 L98.8235294,5.18823529 L98.8235294,7.41176471 L98.8235294,12.4764706 L98.8235294,15.8117647 Z" id="Shape"></path>
                <path d="M126.864706,5.43529412 C126.494118,5.43529412 126.247059,5.68235294 126.247059,6.05294118 L126.247059,13.3411765 C123.776471,13.9588235 122.294118,13.3411765 122.294118,12.2294118 L122.294118,5.92941176 C122.294118,5.55882353 122.047059,5.43529412 121.676471,5.43529412 L118.094118,5.43529412 L118.094118,12.1058824 C118.094118,15.4411765 122.417647,17.0470588 129.705882,14.9470588 C130.076471,14.8235294 130.447059,14.4529412 130.447059,13.9588235 L130.447059,5.43529412 L126.864706,5.43529412 Z M110.682353,5.06470588 C108.582353,5.06470588 107.1,5.55882353 105.864706,6.67058824 C104.752941,7.65882353 104.135294,9.14117647 104.135294,10.5 C104.135294,12.1058824 104.752941,13.4647059 105.741176,14.3294118 C106.852941,15.3176471 108.705882,15.8117647 110.558824,15.8117647 C112.658824,15.8117647 114.264706,15.3176471 115.376471,14.2058824 C116.488235,13.2176471 117.105882,11.6117647 117.105882,10.3764706 C117.105882,8.77058824 116.611765,7.53529412 115.5,6.54705882 C114.388235,5.55882353 112.782353,5.06470588 110.682353,5.06470588 Z M112.782353,11.3647059 C111.794118,13.2176471 110.558824,13.9588235 109.076471,13.3411765 C107.594118,12.7235294 107.470588,11.3647059 108.582353,9.26470588 C109.570588,7.41176471 110.805882,6.67058824 112.288235,7.28823529 C113.647059,7.90588235 113.770588,9.38823529 112.782353,11.3647059 Z" id="Shape"></path>
                <path d="M96.8470588,12.8470588 C96.7235294,12.8470588 96.6,12.8470588 96.6,12.9705882 C96.2294118,13.0941176 95.7352941,13.0941176 95.2411765,13.0941176 C94.8705882,13.0941176 94.5,13.0941176 94.1294118,12.9705882 C93.7588235,12.8470588 93.5117647,12.7235294 93.1411765,12.6 C92.8941176,12.3529412 92.6470588,12.1058824 92.5235294,11.8588235 C92.4,11.4882353 92.2764706,11.1176471 92.2764706,10.6235294 C92.2764706,9.63529412 92.5235294,9.01764706 93.1411765,8.64705882 C93.6352941,8.27647059 94.3764706,8.02941176 95.2411765,8.02941176 C95.4882353,8.02941176 95.7352941,8.02941176 95.8588235,8.02941176 C96.1058824,8.02941176 96.2294118,8.02941176 96.4764706,8.02941176 C96.7235294,8.02941176 96.8470588,8.02941176 97.0941176,8.02941176 C97.5882353,7.90588235 97.5882353,7.53529412 97.5882353,7.53529412 L97.5882353,5.18823529 C97.2176471,5.06470588 96.9705882,5.06470588 96.7235294,5.06470588 C96.3529412,5.06470588 95.9823529,4.94117647 95.6117647,4.94117647 C95.2411765,4.94117647 94.9941176,4.94117647 94.6235294,4.94117647 C93.5117647,4.94117647 92.6470588,5.06470588 91.7823529,5.31176471 C90.9176471,5.55882353 90.3,5.92941176 89.6823529,6.42352941 C89.0647059,6.91764706 88.6941176,7.53529412 88.4470588,8.15294118 C88.2,8.77058824 87.9529412,9.63529412 87.9529412,10.3764706 C87.9529412,11.2411765 88.0764706,11.9823529 88.4470588,12.6 C88.6941176,13.2176471 89.1882353,13.8352941 89.8058824,14.3294118 C90.4235294,14.8235294 91.1647059,15.1941176 91.9058824,15.4411765 C92.7705882,15.6882353 93.7588235,15.8117647 94.8705882,15.8117647 C95.4882353,15.8117647 96.2294118,15.8117647 96.8470588,15.6882353 C97.0941176,15.6882353 97.3411765,15.5647059 97.7117647,15.5647059 L97.7117647,13.2176471 C97.5882353,13.3411765 97.5882353,12.8470588 96.8470588,12.8470588 Z" id="Shape"></path>
            </g>
        </g>
    </g>
</svg>