<?xml version="1.0" encoding="utf-8"?>
<!-- Generator: Adobe Illustrator 18.0.0, SVG Export Plug-In . SVG Version: 6.00 Build 0)  -->
<!DOCTYPE svg PUBLIC "-//W3C//DTD SVG 1.1//EN" "http://www.w3.org/Graphics/SVG/1.1/DTD/svg11.dtd">
<svg version="1.1" id="图层_1" xmlns="http://www.w3.org/2000/svg" xmlns:xlink="http://www.w3.org/1999/xlink" x="0px" y="0px"
	 viewBox="0 0 100 35" enable-background="new 0 0 100 35" xml:space="preserve">
<g id="页面-1">
	<g id="空白页" transform="translate(-675.000000, -11.000000)">
		<g id="顶部栏">
			<g id="分组-3" transform="translate(675.000000, 11.000000)">
				<g id="分组">
					<path id="Fill-1" fill="#D52727" d="M62.1,21.2c-1,1.9-2.3,2.7-3.8,2.1c-1.5-0.6-1.6-2.1-0.5-4.1c1-2,2.3-2.7,3.8-2.1
						C63.1,17.7,63.2,19.1,62.1,21.2 M65,16.3c-1.2-1-2.9-1.6-5.1-1.6c-2.2,0-3.8,0.5-5,1.6c-1.1,1-1.8,2.6-1.8,3.9
						c0,1.6,0.7,3,1.7,3.9c1.2,1.1,3,1.6,5,1.6c2.2,0,3.8-0.6,5-1.6c1.1-1,1.7-2.6,1.7-3.9C66.7,18.6,66.2,17.3,65,16.3"/>
					<path id="Fill-3" fill="#D52727" d="M47.7,25.7L47.7,25.7l3.7,0c0.4,0,0.6-0.2,0.6-0.6V9.4h-3.7c-0.4,0-0.6,0.2-0.6,0.6v4.9
						v2.2v5.2V25.7z"/>
					<path id="Fill-5" fill="#D52727" d="M76.8,15.1c-0.4,0-0.6,0.2-0.6,0.6v7.5c-2.5,0.7-4.1,0-4.1-1.1v-6.4c0-0.3-0.2-0.6-0.6-0.6
						h-3.7v6.8c0,3.4,4.4,5.1,12.1,3c0.4-0.1,0.7-0.5,0.7-1.1v-8.7h0H76.8z"/>
					<path id="Fill-7" fill="#D52727" d="M45.6,23.5c0-0.3-0.3-0.6-0.6-0.5c-0.7,0-1.9,0.1-2.9-0.2c-0.4-0.1-0.7-0.2-1-0.4
						c-0.3-0.2-1.2-0.9-1.2-2.1c-0.1-1.3,0.5-1.8,1.1-2.2c0.5-0.3,1.4-0.5,2.3-0.5c0.7,0,1.3,0,1.7,0.1c0.3,0,0.6-0.2,0.6-0.5l0-2.2
						c-0.3-0.1-0.6-0.1-1-0.2c-0.3,0-0.7-0.1-1-0.1c-0.3,0-0.7,0-1.1,0c-1.1,0-2.1,0.1-3,0.4c-0.9,0.3-1.6,0.7-2.2,1.2
						c-0.6,0.5-1,1.1-1.3,1.8c-0.3,0.7-0.5,1.5-0.5,2.3c0,0.9,0.2,1.6,0.5,2.3c0.3,0.7,0.8,1.3,1.4,1.8c0.6,0.5,1.3,0.9,2.2,1.1
						c0.9,0.3,1.9,0.4,3,0.4c0.7,0,1.4,0,2-0.1c0.3,0,0.6-0.1,0.9-0.1L45.6,23.5z"/>
					<g transform="translate(75.208315, 0.192546)">
						<defs>
							<filter id="Adobe_OpacityMaskFilter" filterUnits="userSpaceOnUse" x="6.3" y="9.2" width="13.2" height="16.4">
								<feColorMatrix  type="matrix" values="1 0 0 0 0  0 1 0 0 0  0 0 1 0 0  0 0 0 1 0"/>
							</filter>
						</defs>
						<mask maskUnits="userSpaceOnUse" x="6.3" y="9.2" width="13.2" height="16.4" id="mask-2_1_">
							<g filter="url(#Adobe_OpacityMaskFilter)">
								<polygon id="path-1_1_" fill="#FFFFFF" points="6.3,9.2 19.5,9.2 19.5,25.6 6.3,25.6 								"/>
							</g>
						</mask>
						<path id="Fill-9" mask="url(#mask-2_1_)" fill="#D52727" d="M14.4,21.6c-1,1.9-2.3,2.7-3.8,2.1c-1.5-0.6-1.6-2.1-0.5-4.1
							c1-2,2.3-2.7,3.8-2.1C15.4,18.1,15.5,19.6,14.4,21.6z M15.8,9.2c-0.4,0-0.6,0.2-0.6,0.6v6.1c-0.6-0.4-1.3-0.7-2.1-0.8
							c-2.1-0.3-3.8,0.5-5,1.6c-1.1,1-1.8,2.6-1.8,3.9c0,1.6,0.5,2.9,1.7,3.9c1.3,1.2,4.4,1.4,6,0.6c0.4-0.2,0.8-0.4,1.1-0.6v0.8v0
							h3.8c0.4,0,0.6-0.2,0.6-0.6V9.2H15.8z"/>
					</g>
					<g transform="translate(0.000000, 0.192546)">
						<defs>
							<filter id="Adobe_OpacityMaskFilter_1_" filterUnits="userSpaceOnUse" x="6" y="9.2" width="17" height="16.5">
								<feColorMatrix  type="matrix" values="1 0 0 0 0  0 1 0 0 0  0 0 1 0 0  0 0 0 1 0"/>
							</filter>
						</defs>
						<mask maskUnits="userSpaceOnUse" x="6" y="9.2" width="17" height="16.5" id="mask-4_1_">
							<g filter="url(#Adobe_OpacityMaskFilter_1_)">
								<polygon id="path-3_1_" fill="#FFFFFF" points="6,9.2 23,9.2 23,25.6 6,25.6 								"/>
							</g>
						</mask>
						<path id="Fill-11" mask="url(#mask-4_1_)" fill="#D52727" d="M22.9,10.3L23,9.2h-2.4h-2.8c0,0-0.1,0.6-0.1,1.9
							c-0.1,1.3-0.1,2.7-0.2,4.3c-0.1,1.8-0.2,3-0.3,3.5c-0.1,0.5-0.2,0.9-0.3,1.2c-0.1,0.3-0.3,0.6-0.4,0.8
							c-0.1,0.2-0.3,0.4-0.5,0.5c-0.2,0.2-0.4,0.3-0.7,0.4c-0.3,0.1-0.7,0.2-1.1,0.2c-0.4,0-0.9-0.1-1.3-0.2c-0.4-0.1-0.7-0.4-1-0.6
							c-0.2-0.3-0.4-0.6-0.5-1c-0.1-0.4-0.1-0.9-0.1-1.5c0-0.3,0-0.9,0.1-1.7s0.1-1.7,0.2-2.7l0.4-5c-1.1,0-1.9,0-2.5,0
							c-0.5,0-1.4,0-2.6,0l-0.2,4.7c0,1-0.1,1.7-0.1,2.2l-0.2,1.9C6.1,18.7,6,19.2,6,19.6c0,0.4,0,0.7,0,0.9C6,21,6.1,21.5,6.2,22
							c0.1,0.4,0.3,0.8,0.5,1.1c0.2,0.3,0.5,0.6,1,0.9c0.5,0.3,1,0.6,1.6,0.8c0.6,0.2,1.3,0.4,2.1,0.6c0.8,0.1,1.7,0.2,2.6,0.2
							c1,0,2-0.1,3-0.2c1-0.2,1.8-0.4,2.6-0.8c0.2-0.1,0.3-0.2,0.5-0.3c-0.6-0.5-1-1.3-1.2-2.3v-0.7c0.3-2.4,1.8-3.6,3.6-4.5
							c-1.1-0.6-2-1.4-1.9-3.1C20.7,12.2,21.7,11.1,22.9,10.3"/>
					</g>
					<g transform="translate(13.470146, 0.192546)">
						<defs>
							<filter id="Adobe_OpacityMaskFilter_2_" filterUnits="userSpaceOnUse" x="6.2" y="9.2" width="12.6" height="16.5">
								<feColorMatrix  type="matrix" values="1 0 0 0 0  0 1 0 0 0  0 0 1 0 0  0 0 0 1 0"/>
							</filter>
						</defs>
						<mask maskUnits="userSpaceOnUse" x="6.2" y="9.2" width="12.6" height="16.5" id="mask-6_1_">
							<g filter="url(#Adobe_OpacityMaskFilter_2_)">
								<polygon id="path-5_1_" fill="#FFFFFF" points="6.2,9.2 18.7,9.2 18.7,25.7 6.2,25.7 								"/>
							</g>
						</mask>
						<path id="Fill-13" mask="url(#mask-6_1_)" fill="#717172" d="M13.7,11.3c-0.1,0-0.3,0-0.4,0c-1.2,0.1-2.5,0.9-2.6,2.2
							c-0.1,1.1,0.7,1.5,1.4,1.9c0.6,0.3,1.2,0.6,1.8,0.8c0.6-0.3,1.1-0.7,1.5-1.2c0.4-0.5,0.7-1.3,0.7-2.1
							C16,11.4,14.2,11.3,13.7,11.3z M11.3,17.7c-0.4,0.2-0.7,0.4-0.9,0.6c-0.9,0.7-1.5,1.8-1.5,2.8c-0.1,1.6,1,2.3,2.2,2.4
							c0.2,0,0.3,0,0.5,0c2,0,3.4-1.2,3.5-2.9c0.1-0.9-0.2-1.3-0.7-1.6c-0.7-0.5-1.4-0.8-2.3-1.1C11.8,17.9,11.6,17.8,11.3,17.7z
							 M11.6,25.7l-0.8,0c-2.7-0.2-4.3-1.4-4.6-3.6l0,0l0-0.7c0.3-2.5,1.9-3.7,3.4-4.5c-1-0.6-1.7-1.5-1.6-3
							c0.2-2.9,3.1-4.4,5.7-4.6l0,0l0.8,0c1.3,0.1,2.1,0.4,2.8,0.8c1.1,0.8,1.6,1.8,1.5,3.2c-0.2,1.8-1.6,3.1-2.9,3.8
							c1.1,0.6,2.2,1.5,2,3.4c-0.1,1.5-0.8,2.8-2.1,3.7C14.6,25,13.1,25.6,11.6,25.7L11.6,25.7z"/>
					</g>
				</g>
			</g>
		</g>
	</g>
</g>
</svg>
