<?xml version="1.0" encoding="UTF-8"?>
<svg width="22px" height="21px" viewBox="0 0 22 21" version="1.1" xmlns="http://www.w3.org/2000/svg" xmlns:xlink="http://www.w3.org/1999/xlink">
    <!-- Generator: Sketch 52.2 (67145) - http://www.bohemiancoding.com/sketch -->
    <title>分组 6</title>
    <desc>Created with Sketch.</desc>
    <defs>
        <polygon id="path-1" points="0.0219909663 0.00503686383 10.8019482 0.00503686383 10.8019482 10.1936477 0.0219909663 10.1936477"></polygon>
        <polygon id="path-3" points="0.0119582224 0.0131427998 10.8340096 0.0131427998 10.8340096 10.2017835 0.0119582224 10.2017835"></polygon>
    </defs>
    <g id="页面-1" stroke="none" stroke-width="1" fill="none" fill-rule="evenodd">
        <g id="pin下拉" transform="translate(-13.000000, -5.000000)">
            <g id="多窗口收起" transform="translate(-1.000000, 0.000000)">
                <g id="分组-6" transform="translate(14.000000, 5.000000)">
                    <g id="分组">
                        <g transform="translate(10.214286, 0.000000)">
                            <mask id="mask-2" fill="white">
                                <use xlink:href="#path-1"></use>
                            </mask>
                            <g id="Clip-2"></g>
                            <path d="M10.1602381,6.22080002 C11.3562854,4.35652012 10.8321577,1.86425429 8.98950487,0.654126408 C7.91593544,-0.050906473 6.63166863,-0.164961559 5.51008686,0.231243272 C5.51012905,0.231200587 5.51021343,0.231200587 5.51025562,0.231157902 L5.5090743,0.227615023 C4.21358491,0.651223808 1.81195534,1.97365668 1.01295912,3.21908529 C-0.396696687,5.41618237 -0.258945992,8.1779631 1.14995039,10.1936477 L8.06043655,7.85530502 L8.06014122,7.85453669 C8.89466151,7.57900316 9.64505473,7.02375295 10.1602381,6.22080002" id="Fill-1" fill="#FFFFFF" mask="url(#mask-2)"></path>
                        </g>
                        <g transform="translate(1.100000, 10.672635)">
                            <mask id="mask-4" fill="white">
                                <use xlink:href="#path-3"></use>
                            </mask>
                            <g id="Clip-4"></g>
                            <path d="M0.656174983,3.98599049 C-0.544544381,5.85027039 -0.0183693248,8.34253623 1.8314814,9.55270679 C2.90924446,10.2577397 4.19852794,10.3717521 5.32449089,9.97558993 C5.32444853,9.97558993 5.32436382,9.97563261 5.32432147,9.97563261 L5.32550741,9.97917549 C6.62601494,9.5555667 9.03706823,8.23317652 9.83922789,6.98774791 C11.2543055,4.79065083 11.116059,2.0288701 9.70161678,0.0131427998 L2.76417889,2.35148549 L2.76443302,2.35229651 C1.92669524,2.62783004 1.1733708,3.18303756 0.656174983,3.98599049 Z" id="Fill-3" fill="#FFFFFF" mask="url(#mask-4)"></path>
                        </g>
                        <path d="M8.79161157,7.17468243 C8.64292769,9.59714617 6.55619131,11.4405226 4.13079078,11.2920636 C1.70534795,11.1435201 -0.140295452,9.05938905 0.00838842892,6.63692531 C0.15707231,4.21446157 2.24380869,2.37108512 4.66920922,2.51958638 C7.09465205,2.66808764 8.94029545,4.75226095 8.79161157,7.17468243" id="Fill-5" fill="#FFFFFF"></path>
                        <path d="M21.9916116,14.3944061 C21.8429277,16.8168699 19.7561913,18.6602464 17.3307908,18.5117874 C14.9053479,18.3632438 13.0597045,16.2791127 13.2083884,13.8566489 C13.3570723,11.4342274 15.4438087,9.59080867 17.8692092,9.73930993 C20.2946521,9.88781119 22.1402955,11.9719845 21.9916116,14.3944061" id="Fill-7" fill="#FFFFFF"></path>
                    </g>
                </g>
            </g>
        </g>
    </g>
</svg>