<?xml version="1.0" encoding="UTF-8"?>
<svg width="18px" height="18px" viewBox="0 0 18 18" version="1.1" xmlns="http://www.w3.org/2000/svg" xmlns:xlink="http://www.w3.org/1999/xlink">
    <!-- Generator: Sketch 52.2 (67145) - http://www.bohemiancoding.com/sketch -->
    <title>分组 7</title>
    <desc>Created with Sketch.</desc>
    <g id="20190125" stroke="none" stroke-width="1" fill="none" fill-rule="evenodd">
        <g id="菜单下拉" transform="translate(-15.000000, -488.000000)" stroke="#505766">
            <g id="菜单" transform="translate(0.000000, 33.000000)">
                <g id="分组-7" transform="translate(15.000000, 455.000000)">
                    <g id="分组" transform="translate(1.000000, 1.000000)">
                        <path d="M6.27027027,7.16575135 L1.08108108,7.16575135 C0.603675676,7.16575135 0.216216216,6.77829189 0.216216216,6.30088649 L0.216216216,1.97656216 C0.216216216,1.49915676 0.603675676,1.1116973 1.08108108,1.1116973 L5.40540541,1.1116973 C5.88281081,1.1116973 6.27027027,1.49915676 6.27027027,1.97656216 L6.27027027,7.16575135 Z" id="Stroke-1"></path>
                        <path d="M7.61107027,4.13872432 L11.2802595,0.469535135 C11.6179892,0.131805405 12.1658811,0.131805405 12.5031784,0.469535135 L15.5613405,3.52726486 C15.8990703,3.86499459 15.8990703,4.41288649 15.5613405,4.75018378 L12.5031784,7.80791351 C12.1658811,8.14607568 11.6179892,8.14607568 11.2802595,7.80791351 L7.61107027,4.13872432 Z" id="Stroke-3"></path>
                        <path d="M6.27027027,15.8144 L1.08108108,15.8144 C0.603675676,15.8144 0.216216216,15.4269405 0.216216216,14.9495351 L0.216216216,10.6252108 C0.216216216,10.1478054 0.603675676,9.76034595 1.08108108,9.76034595 L5.40540541,9.76034595 C5.88281081,9.76034595 6.27027027,10.1478054 6.27027027,10.6252108 L6.27027027,15.8144 Z" id="Stroke-5"></path>
                        <path d="M14.9189189,15.8144 L9.72972973,15.8144 C9.25232432,15.8144 8.86486486,15.4269405 8.86486486,14.9495351 L8.86486486,10.6252108 C8.86486486,10.1478054 9.25232432,9.76034595 9.72972973,9.76034595 L14.0540541,9.76034595 C14.5314595,9.76034595 14.9189189,10.1478054 14.9189189,10.6252108 L14.9189189,15.8144 Z" id="Stroke-7"></path>
                    </g>
                </g>
            </g>
        </g>
    </g>
</svg>