<?xml version="1.0" encoding="UTF-8"?>
<svg width="27px" height="26px" viewBox="0 0 27 26" version="1.1" xmlns="http://www.w3.org/2000/svg" xmlns:xlink="http://www.w3.org/1999/xlink">
    <!-- Generator: Sketch 52.2 (67145) - http://www.bohemiancoding.com/sketch -->
    <title>logo</title>
    <desc>Created with Sketch.</desc>
    <defs>
        <polygon id="path-1" points="0.0269889132 0.00618160561 13.2569364 0.00618160561 13.2569364 12.5103858 0.0269889132 12.5103858"></polygon>
        <polygon id="path-3" points="0.0146760002 0.0161297997 13.2962845 0.0161297997 13.2962845 12.5203707 0.0146760002 12.5203707"></polygon>
    </defs>
    <g id="页面-1" stroke="none" stroke-width="1" fill="none" fill-rule="evenodd">
        <g id="空白页" transform="translate(-11.000000, -7.000000)">
            <g id="顶部栏">
                <g id="logo" transform="translate(11.000000, 7.000000)">
                    <g id="分组">
                        <g transform="translate(12.535714, 0.000000)">
                            <mask id="mask-2" fill="white">
                                <use xlink:href="#path-1"></use>
                            </mask>
                            <g id="Clip-2"></g>
                            <path d="M12.4693831,7.63461821 C13.9372594,5.34663833 13.2940118,2.28794844 11.0325742,0.802791501 C9.71501168,-0.0624761259 8.13886604,-0.202452823 6.76237933,0.283798562 C6.76243111,0.283746175 6.76253466,0.283746175 6.76258644,0.283693789 L6.76113664,0.27934571 C5.17121785,0.799229219 2.22376337,2.42221501 1.2431771,3.95069558 C-0.486855025,6.6471329 -0.317797354,10.0365911 1.41130276,12.5103858 L9.89235395,9.64060162 L9.8919915,9.63965866 C10.9161755,9.30150388 11.8371126,8.62006044 12.4693831,7.63461821" id="Fill-1" fill="#FBBC05" mask="url(#mask-2)"></path>
                        </g>
                        <g transform="translate(1.350000, 13.098234)">
                            <mask id="mask-4" fill="white">
                                <use xlink:href="#path-3"></use>
                            </mask>
                            <g id="Clip-4"></g>
                            <path d="M0.805305661,4.89189742 C-0.668304467,7.1798773 -0.0225441713,10.2385672 2.24772717,11.7237765 C3.57043638,12.5890441 5.15273884,12.7289685 6.53460245,12.2427695 C6.53455047,12.2427695 6.53444651,12.2428218 6.53439453,12.2428218 L6.53585,12.2471699 C8.13192742,11.7272864 11.0909474,10.104353 12.075416,8.57587244 C13.8121021,5.87943511 13.6424361,2.48997693 11.9065297,0.0161297997 L3.39240136,2.88591401 L3.39271325,2.88690936 C2.36458052,3.22506414 1.44004598,3.90645519 0.805305661,4.89189742 Z" id="Fill-3" fill="#4285F4" mask="url(#mask-4)"></path>
                        </g>
                        <path d="M10.7897051,8.80529207 C10.6072294,11.7783158 8.04623478,14.0406414 5.06960687,13.8584417 C2.09292702,13.6761383 -0.172180782,11.1183411 0.01029489,8.14531743 C0.192770562,5.17229375 2.75376522,2.9099681 5.73039313,3.09221965 C8.70707298,3.27447119 10.9721808,5.83232025 10.7897051,8.80529207" id="Fill-5" fill="#EB4335"></path>
                        <path d="M26.9897051,17.665862 C26.8072294,20.6388857 24.2462348,22.9012114 21.2696069,22.7190118 C18.292927,22.5367083 16.0278192,19.9789111 16.2102949,17.0058873 C16.3927706,14.0329155 18.9537652,11.7705379 21.9303931,11.9527895 C24.907073,12.135041 27.1721808,14.6928901 26.9897051,17.665862" id="Fill-7" fill="#34A853"></path>
                    </g>
                </g>
            </g>
        </g>
    </g>
</svg>