<?xml version="1.0" encoding="UTF-8"?>
<svg width="141px" height="87px" viewBox="0 0 141 87" version="1.1" xmlns="http://www.w3.org/2000/svg" xmlns:xlink="http://www.w3.org/1999/xlink">
    <!-- Generator: Sketch 52.2 (67145) - http://www.bohemiancoding.com/sketch -->
    <title>分组 5</title>
    <desc>Created with Sketch.</desc>
    <defs>
        <polygon id="path-1" points="0.0962971078 0.397655889 27.4208464 0.397655889 27.4208464 40.969697 0.0962971078 40.969697"></polygon>
        <polygon id="path-3" points="0 0.137406061 47.2018182 0.137406061 47.2018182 38.4366568 0 38.4366568"></polygon>
        <polygon id="path-5" points="1.50831515 1.53006061 22.6849212 1.53006061 22.6849212 11.2124606 1.50831515 11.2124606"></polygon>
        <linearGradient x1="-1.11022302e-14%" y1="50%" x2="100%" y2="50%" id="linearGradient-7">
            <stop stop-color="#F2837C" offset="0%"></stop>
            <stop stop-color="#E14C46" offset="100%"></stop>
        </linearGradient>
        <linearGradient x1="5.62764831%" y1="50%" x2="90.620862%" y2="50%" id="linearGradient-8">
            <stop stop-color="#F0F0F0" stop-opacity="0" offset="0%"></stop>
            <stop stop-color="#DDDDDD" offset="23.3669651%"></stop>
            <stop stop-color="#DDDDDD" offset="71.484375%"></stop>
            <stop stop-color="#DDDDDD" stop-opacity="0" offset="100%"></stop>
        </linearGradient>
    </defs>
    <g id="Page-1" stroke="none" stroke-width="1" fill="none" fill-rule="evenodd">
        <g id="提示" transform="translate(-646.000000, -364.000000)">
            <g id="分组-8" transform="translate(520.000000, 327.000000)">
                <g id="分组-5" transform="translate(123.000000, 36.000000)">
                    <g id="分组-17" transform="translate(5.333333, 0.000000)">
                        <path d="M0.804036458,79.625 L135.958333,79.625" id="路径-27" stroke="#DDDDDD" stroke-width="1.4" stroke-linecap="round"></path>
                        <g id="分组-20" transform="translate(19.500000, 19.500000)">
                            <path d="M6.11666667,59.9666667 L87.05,59.9666667 L87.05,10.5 C87.05,8.67746033 85.5725397,7.2 83.75,7.2 L9.41666667,7.2 C7.59412699,7.2 6.11666667,8.67746033 6.11666667,10.5 L6.11666667,59.9666667 Z" id="矩形" stroke="#EBEBEB" stroke-width="1.4" fill="#FFFFFF"></path>
                            <path d="M18.25,15.1666667 L81.4166667,15.1666667 C82.5212362,15.1666667 83.4166667,16.0620972 83.4166667,17.1666667 L83.4166667,57.4166667 L16.25,57.4166667 L16.25,17.1666667 C16.25,16.0620972 17.1454305,15.1666667 18.25,15.1666667 Z" id="矩形"></path>
                            <path d="M21.3333333,27.511306 L21.3333333,49.0833333 L67.5,49.0833333 L67.5,27.511306 L44.4166667,13.8711545 L21.3333333,27.511306 Z" id="矩形" stroke="#DDDDDD" stroke-width="1.5" fill="#FAFAFA"></path>
                            <path d="M62.0833333,9.05417207 L54.9068883,0.75 L28,0.75 C27.3096441,0.75 26.75,1.30964406 26.75,2 L26.75,41.3333333 C26.75,42.0236893 27.3096441,42.5833333 28,42.5833333 L60.8333333,42.5833333 C61.5236893,42.5833333 62.0833333,42.0236893 62.0833333,41.3333333 L62.0833333,9.05417207 Z" id="矩形" stroke="#DDDDDD" stroke-width="1.5" fill="#FFFFFF"></path>
                            <path d="M1,54.8666667 C0.834314575,54.8666667 0.7,55.0009812 0.7,55.1666667 L0.7,57.4166667 C0.7,58.8249928 1.84167389,59.9666667 3.25,59.9666667 L91,59.9666667 C92.4083261,59.9666667 93.55,58.8249928 93.55,57.4166667 L93.55,55.1666667 C93.55,55.0009812 93.4156854,54.8666667 93.25,54.8666667 L1,54.8666667 Z" id="矩形" stroke="#DDDDDD" stroke-width="1.4" fill="#FFFFFF"></path>
                        </g>
                        <path d="M44.4166667,85.5833333 L89.375,85.5833333" id="路径-27" stroke="#DDDDDD" stroke-width="1.4" stroke-linecap="round"></path>
                        <path d="M27.0833333,85.5833333 L36.2916667,85.5833333" id="路径-27" stroke="#DDDDDD" stroke-width="1.4" stroke-linecap="round"></path>
                        <path d="M89.9166667,14.0833333 L130,15.1666667 L127.291667,70.4166667 C123.680556,81.6111111 119.888889,87.2083333 115.916667,87.2083333 C109.958333,87.2083333 105.625,83.4166667 101.887734,75.8333333 C96.08194,75.6286823 90.4990413,70.2979103 89.9166667,62.8333333 C89.2729259,54.5821979 93.6062593,48.0821979 102.916667,43.3333333 C93.1666667,39.3611111 88.2916667,34.125 88.2916667,27.625 C88.2916667,21.9854871 88.8333333,17.4715982 89.9166667,14.0833333 Z" id="矩形" fill="#FFFFFF"></path>
                        <g id="分组" transform="translate(91.000000, 0.000000)">
                            <path d="M10.1548121,49.747297 C0.00063030303,54.6447515 1.45347879,65.2448727 5.27941818,69.7877818 C7.52172121,72.4492364 11.0687515,73.1756606 12.8997818,72.5768727 C15.0270545,71.8803879 15.1814788,70.8640242 14.0957818,68.9053576 C12.1843879,65.451297 5.87190303,64.6571152 7.13566061,60.3647515 C8.59166061,55.4137212 12.2994182,54.4005091 12.2994182,54.4005091" id="Fill-1" fill="#FFFFFF"></path>
                            <path d="M11.5143758,73.5614061 C9.32249697,73.5614061 6.53498182,72.5009212 4.67716364,70.2948606 C2.57510303,67.8004364 0.901648485,63.1850424 1.9038303,58.4987394 C2.51837576,55.6261333 4.3888,51.6536485 9.81255758,49.0378909 C10.2096485,48.8519515 10.6760727,49.0142545 10.8635879,49.4050424 C11.0542545,49.7974061 10.8888,50.2685576 10.4964364,50.4560727 C6.65789091,52.3075879 4.22019394,55.2038303 3.44492121,58.8280727 C2.55461818,62.9928 4.02795152,67.0787394 5.88104242,69.2800727 C7.9358303,71.7161939 11.1330424,72.3291636 12.6552242,71.8280727 C13.3800727,71.5917091 13.8212848,71.319103 13.9300121,71.0401939 C14.054497,70.7266182 13.8780121,70.1372848 13.4068606,69.2879515 C12.7450424,68.0903758 11.3835879,67.1953455 10.0694061,66.3318303 C7.90431515,64.9089212 5.45086061,63.2969212 6.38055758,60.1422545 C7.94213333,54.8303758 11.922497,53.6863758 12.091103,53.6406788 C12.507103,53.5288 12.9435879,53.7730424 13.0586182,54.1921939 C13.1736485,54.6129212 12.9262545,55.0462545 12.507103,55.1612848 C12.3763152,55.1975273 9.19486061,56.1540121 7.89170909,60.5881939 C7.32128485,62.5232242 8.67643636,63.5301333 10.9329212,65.014497 C12.4094061,65.9835879 13.9347394,66.9873455 14.7856485,68.5237091 C15.315103,69.4786182 15.8004364,70.591103 15.3970424,71.6169212 C15.0046788,72.6159515 13.9237091,73.0713455 13.1452848,73.3266182 C12.6662545,73.4826182 12.1115879,73.5614061 11.5143758,73.5614061" id="Fill-3" fill="#BBBBBB"></path>
                            <path d="M8.35513939,57.7222061 C9.16350303,65.2070545 17.0092,86.0149333 24.2860485,84.2422061 C31.2619273,82.5403879 34.7254424,61.7356606 33.9170788,54.2508121 C33.1087152,46.7659636 27.9039879,44.9538424 20.0204727,45.4265697 C12.4584121,45.8788121 7.54677576,50.2373576 8.35513939,57.7222061" id="Fill-5" fill="#FFFFFF"></path>
                            <g transform="translate(7.386364, 44.167224)">
                                <mask id="mask-2" fill="white">
                                    <use xlink:href="#path-1"></use>
                                </mask>
                                <g id="Clip-8"></g>
                                <path d="M17.5766303,2.1216 C16.1568727,1.95772121 14.5306909,1.93408485 12.6807515,2.04596364 C8.7366303,2.28232727 5.6465697,3.59493333 3.74935758,5.84038788 C2.08850909,7.80378182 1.41881212,10.3706909 1.75287273,13.4702061 C2.4225697,19.6723879 7.83687273,34.4892364 13.4843879,38.4538424 C14.6362667,39.2606303 15.7203879,39.5489939 16.7115394,39.3094788 C19.4234182,38.6476606 22.0344485,34.1803879 23.8702061,27.0516606 C25.5830545,20.4114182 26.1109333,13.5316606 25.7485091,10.1689939 C25.215903,5.23529697 22.7656,2.72353939 17.5766303,2.1216 M15.4714182,40.9388121 C14.5243879,40.8285091 13.5568727,40.4298424 12.579903,39.7428121 C6.4896,35.4677818 0.900387879,20.2522667 0.186569697,13.6388121 C-0.191612121,10.1453576 0.623054545,7.09626667 2.54390303,4.82402424 C4.72790303,2.24135758 8.20087273,0.736509091 12.5877818,0.473357576 C18.9223273,0.0936 26.3252364,0.834206061 27.3132364,10.0003879 C28.0585697,16.8848727 24.9622061,38.9202667 17.0849939,40.8395394 C16.5555394,40.9687515 16.0166303,41.0018424 15.4714182,40.9388121" id="Fill-7" fill="#BBBBBB" mask="url(#mask-2)"></path>
                            </g>
                            <path d="M20.1071394,77.3254182 C19.6738061,77.2749939 19.2310182,77.0953576 18.783503,76.7896606 C15.1356242,74.2873576 11.8391394,63.6037212 11.4231394,59.7636 C11.2592606,58.2382667 11.3979273,56.8689333 11.8344121,55.6949939 L12.5750182,55.9707515 C12.179503,57.0280848 12.0565939,58.2760848 12.2078667,59.6785091 C12.6601091,63.8731758 16.014897,73.9359636 19.2278667,76.1404485 C19.7652,76.5044485 20.2473818,76.6257818 20.7122303,76.5044485 C22.1997455,76.1057818 23.5927152,73.2473576 24.5350182,68.661903 C25.4079879,64.4042061 25.6254424,59.9731758 25.3906545,57.7986303 C25.2267758,56.2606909 24.8170788,55.0930545 24.1410788,54.2279636 L24.7619273,53.7426303 C25.5324727,54.725903 25.9925939,56.025903 26.1753818,57.7151152 C26.6496848,62.109903 25.1889576,76.1199636 20.915503,77.2655394 C20.6492,77.3364485 20.3813212,77.3569333 20.1071394,77.3254182" id="Fill-9" fill="#BBBBBB"></path>
                            <path d="M18.3383515,52.7202788 L24.0000485,50.9648848 C24.3246545,50.8356727 24.6776242,51.1004 24.7028364,51.4927636 L25.0305939,56.930703 C25.0684121,57.5515515 24.5515636,58.0148242 24.0189576,57.8367636 L18.5526545,56.2751879" id="Fill-11" fill="#BBBBBB"></path>
                            <path d="M16.667103,53.0296 L11.7286788,52.4654788 C11.4387394,52.411903 11.1929212,52.6892364 11.2401939,53.0154182 L11.8878303,57.5394182 C11.9618909,58.0562667 12.4645576,58.3509333 12.8726788,58.1161455 L17.0011636,56.0424485" id="Fill-13" fill="#BBBBBB"></path>
                            <path d="M18.7491515,56.4957939 C18.7491515,56.4957939 18.5569091,56.8708242 18.2275758,57.0252485 C17.8966667,57.1812485 17.1765455,57.1844 17.1765455,57.1844 C16.7463636,57.230097 16.3571515,56.918097 16.3114545,56.4863394 L15.938,53.0401576 C15.8938788,52.6257333 16.1932727,52.2538545 16.607697,52.2081576 C16.607697,52.2081576 17.4270909,52.0316727 17.6744848,52.1293697 C17.9738788,52.250703 18.3158182,52.6462182 18.3158182,52.6462182 L18.7491515,56.4957939 Z" id="Fill-15" fill="#BBBBBB"></path>
                            <path d="M31.7853939,57.1245212 C54.6354545,52.9629455 43.1119394,27.602703 42.3130303,25.4139758 C41.6055152,23.482097 42.9228485,29.8528848 40.8302424,29.9096121 C38.395697,29.9757939 36.634,32.2527636 37.1571515,34.6305818 C38.0805455,38.822097 38.2743636,42.6133697 35.6270909,46.6945818 C32.5748485,51.4045212 30.1292727,52.2585818 30.1292727,52.2585818" id="Fill-17" fill="#FFFFFF"></path>
                            <path d="M31.7846061,57.9124 C31.4111515,57.9124 31.0802424,57.646097 31.0109091,57.2647636 C30.9321212,56.8377333 31.2157576,56.4280364 31.6443636,56.3492485 C37.2666667,55.3250061 41.1792727,52.8841576 43.2750303,49.0928848 C45.1643636,45.6750667 46.4990303,39.4193091 42.7140606,28.6884 C42.4887273,29.7709455 41.9797576,30.6659758 40.8515152,30.6974909 C39.9312727,30.722703 39.0787879,31.1544606 38.5115152,31.8793091 C37.9395152,32.6120364 37.7267879,33.5527636 37.9269091,34.4604 C38.9275152,39.0017333 39.0315152,42.8922788 36.2881212,47.1231879 C33.1271515,52.0033091 30.5003636,52.9629455 30.3884848,53.0023394 C29.9835152,53.1457333 29.529697,52.9298545 29.386303,52.5170061 C29.2429091,52.1057333 29.4587879,51.6566424 29.8700606,51.5132485 C29.8842424,51.5085212 32.142303,50.6245212 34.9676364,46.2659758 C37.4116364,42.4951879 37.3029091,38.9544606 36.3873939,34.7991879 C36.0864242,33.4314303 36.4078788,32.0132485 37.2698182,30.9102182 C38.1270303,29.8119152 39.4175758,29.1595515 40.8089697,29.1217333 C40.9019394,29.1201576 41.3604848,28.9515515 41.294303,25.8945818 C41.2769697,25.0657333 41.2627879,24.4102182 41.9766061,24.2762788 C42.698303,24.1391879 42.9425455,24.8451273 43.0528485,25.1445212 C43.0922424,25.2548242 43.1615758,25.4265818 43.2529697,25.6550667 C48.3852121,38.4675515 46.8472727,45.8877939 44.6538182,49.8555515 C42.3201212,54.0801576 38.0372121,56.7873091 31.9264242,57.8997939 C31.8791515,57.9092485 31.8318788,57.9124 31.7846061,57.9124" id="Fill-19" fill="#BBBBBB"></path>
                            <path d="M31.6453091,58.4970061 C30.8448242,58.4970061 30.060097,58.0731273 29.4644606,57.3151879 C28.8877333,56.5793091 28.5221576,55.5834303 28.4307636,54.5119152 C28.2290667,52.1356727 29.4093091,50.1596727 31.1174303,50.0162788 C31.5539152,49.9690061 31.932097,50.2999152 31.9699152,50.7332485 C32.0061576,51.1681576 31.684703,51.5479152 31.2513697,51.5857333 C30.5533091,51.6440364 29.8678545,52.8069455 30.0002182,54.3779758 C30.0648242,55.1374909 30.3216727,55.8528848 30.7045818,56.3429455 C30.8857939,56.5745818 31.2529455,56.9464606 31.7036121,56.9196727 C32.1432485,56.8755515 32.5182788,57.2033091 32.5545212,57.6366424 C32.5923394,58.0699758 32.2693091,58.4513091 31.8375515,58.4891273 C31.7729455,58.4938545 31.7083394,58.4970061 31.6453091,58.4970061" id="Fill-21" fill="#BBBBBB"></path>
                            <path d="M34.6222303,8.98229091 C34.6222303,8.98229091 33.8122909,6.19792727 33.6641697,6.15065455 C33.5144727,6.10180606 30.4102303,4.83962424 30.3487758,4.81598788 C30.2857455,4.79077576 23.0813818,2.66035152 22.969503,2.64932121 C22.8592,2.63829091 17.7348364,3.15356364 17.7238061,3.21501818 C17.7112,3.27804848 17.2747152,5.0492 17.2022303,5.23671515 C17.1297455,5.42265455 16.6601697,8.64192727 16.7594424,8.6781697 C16.8587152,8.71283636 28.0465939,11.0953818 28.3192,11.178897 C28.5918061,11.2624121 31.7259879,11.919503 32.0222303,11.8407152 C32.3184727,11.7650788 34.6222303,8.98229091 34.6222303,8.98229091" id="Fill-23" fill="#FFFFFF"></path>
                            <path d="M3.30467879,31.8799394 C5.9377697,36.0352121 11.4875879,38.0175152 17.4486788,39.3710909 C24.0794667,35.6223636 24.7806788,30.8336364 21.4952242,22.3103636 C18.4981333,14.5387273 13.8890424,11.5479394 3.52528485,15.0130303 C3.03837576,16.1223636 2.62710303,17.3388485 2.30249697,18.6813939 C0.985163636,24.4124242 1.31134545,28.7347273 3.30467879,31.8799394" id="Fill-25" fill="#545A6D"></path>
                            <path d="M42.5210303,17.5142303 C42.6281818,20.5554424 41.996303,24.0142303 41.3502424,27.8354424 C40.8129091,31.4234424 40.9909697,34.0202909 40.6852727,36.0687758 C42.1349697,33.9052606 43.1371515,30.9916848 43.699697,27.2398061 C44.3347273,23.476897 43.9407879,20.2513212 42.5210303,17.5142303" id="Fill-27" fill="#FFFFFF"></path>
                            <path d="M17.0295273,5.69998788 C7.83340606,5.86386667 3.40710303,11.1332 1.62019394,18.4100485 C-2.12065455,34.4292 7.22516364,38.5671394 20.4095273,41.1781697 C35.4627394,44.3958667 43.9135273,41.8525939 46.1085576,27.4517455 C47.3943758,19.9479879 44.8148606,13.2510182 35.6912242,9.10992727" id="Fill-29" fill="#FFFFFF"></path>
                            <g transform="translate(0.000000, 4.773285)">
                                <mask id="mask-4" fill="white">
                                    <use xlink:href="#path-3"></use>
                                </mask>
                                <g id="Clip-32"></g>
                                <path d="M27.9298303,38.3416485 C25.6434061,38.1746182 23.0954061,37.7838303 20.2448606,37.1755879 C12.9112848,35.7227394 5.63601212,33.6364364 2.17092121,28.2646788 C-0.187987879,24.6073455 -0.619745455,19.7634667 0.852012121,13.4572848 C2.98716364,4.77013333 8.42352727,0.291830303 17.0161333,0.137406061 L17.044497,1.71473939 C9.1468,1.85498182 4.35334545,5.81486061 2.38522424,13.8244364 C1.01746667,19.6846788 1.37989091,24.1314667 3.49613333,27.4106182 C6.64292121,32.2891636 13.5573455,34.2446788 20.5615879,35.6329212 C29.6253455,37.5663758 35.3957697,37.2323152 39.2863152,34.5472242 C42.4567394,32.3553455 44.4343152,28.4348606 45.3293455,22.5604364 C46.7002545,14.5618909 43.3470424,8.67643636 35.3658303,5.0537697 L36.0166182,3.61825455 C44.6092242,7.5198303 48.3689818,14.1553455 46.8861939,22.8125576 C45.9234061,29.1250424 43.7299515,33.3921939 40.1813455,35.842497 C37.1874061,37.9130424 33.2716485,38.7340121 27.9298303,38.3416485" id="Fill-31" fill="#BBBBBB" mask="url(#mask-4)"></path>
                            </g>
                            <g transform="translate(14.181818, 0.046012)">
                                <mask id="mask-6" fill="white">
                                    <use xlink:href="#path-5"></use>
                                </mask>
                                <g id="Clip-34"></g>
                                <path d="M17.915103,6.24567273 C18.0317091,6.67270303 18.0521939,7.12494545 17.9576485,7.59767273 C17.8772848,8.00421818 17.8252848,8.31464242 17.7701333,8.6534303 C17.7559515,8.73064242 17.7433455,8.8094303 17.7291636,8.89294545 C18.5595879,8.66918788 19.410497,8.4974303 20.2235879,8.38870303 C19.6563152,7.59767273 18.8574061,6.88070303 17.915103,6.24567273 Z M15.6806788,11.2124606 L15.9469818,9.86991515 C16.0761939,9.21597576 16.1486788,8.7873697 16.2148606,8.3934303 C16.2731636,8.04046061 16.3283152,7.71585455 16.4134061,7.2904 C16.7317091,5.68785455 13.9095273,4.11209697 10.9124364,3.45658182 C10.8872242,3.45185455 10.8604364,3.44555152 10.8352242,3.44082424 C10.7658909,3.42506667 10.6965576,3.41088485 10.6272242,3.39670303 C7.57498182,2.79318788 4.16189091,3.08627879 3.81837576,4.81803636 L3.05255758,8.66918788 L1.50831515,8.36191515 L2.27255758,4.51076364 C2.85243636,1.60033939 7.03922424,1.07876364 10.934497,1.85088485 C11.0416485,1.87294545 11.1488,1.89500606 11.2543758,1.91706667 C15.3387394,2.75221818 20.619103,5.02761212 22.2342545,8.74482424 L22.6849212,9.78797576 L21.5519515,9.84627879 C20.1416485,9.91876364 18.4729212,10.2544 16.9759515,10.768097 L15.6806788,11.2124606 Z" id="Fill-33" fill="#BBBBBB" mask="url(#mask-6)"></path>
                            </g>
                            <path d="M21.8584364,10.9504121 C9.18619394,8.51744242 4.55031515,13.5756242 2.73661818,20.3466545 C0.317830303,31.4179273 6.40813333,35.787503 16.3007394,38.4473818 C29.2534667,41.7974424 33.7380727,38.9862909 36.1741939,27.6502909 C38.0934667,18.718897 35.2744364,13.5252 21.8584364,10.9504121" id="Fill-35" fill="#BBBBBB"></path>
                            <path d="M18.4414061,8.86915152 C18.4414061,8.86915152 18.8873455,6.58430303 19.0543758,5.7349697 C19.1079515,5.46078788 19.2308606,5.21654545 19.4372848,5.02745455 C19.9698909,4.53739394 21.2761939,3.82830303 24.1409212,4.38769697 C25.6883152,4.69024242 26.9788606,5.28430303 27.8486788,5.77436364 C28.5861333,6.18878788 28.9658909,7.03024242 28.8083152,7.86224242 L28.2378909,10.8687879 C28.2378909,10.8687879 24.1094061,9.85872727 22.7227394,9.57666667 C21.6606788,9.35921212 18.4414061,8.86915152 18.4414061,8.86915152" id="Fill-43" fill="url(#linearGradient-7)"></path>
                        </g>
                        <ellipse id="椭圆形" fill="#FFFFFF" cx="109.958333" cy="24.9166667" rx="4.875" ry="5.41666667"></ellipse>
                    </g>
                    <path d="M0,14.2955083 L18.1412429,14.2955083 C17.1864407,12.9885835 17.1864407,11.8450244 18.1412429,10.8648308 C19.0960452,9.88463724 20.3691149,10.2113684 21.960452,11.8450244 C21.0056497,9.55790605 21.6421846,8.08761571 23.8700565,7.43415333 C26.0979284,6.78069096 27.3709981,8.08761571 27.6892655,11.3549276 C26.7344633,6.34504938 28.3258004,3.89456547 32.4632768,4.00347586 C36.6007533,4.11238626 38.0329567,7.05296695 36.759887,12.8252179 L56.3333333,12.8252179" id="矩形" stroke="url(#linearGradient-8)" stroke-width="1.5" stroke-linecap="round" stroke-linejoin="round"></path>
                    <path d="M86.5833333,27.3541667 L86.5833333,28.9791667 L81.1666667,28.9791667 C79.5213183,28.9791667 78.1875,27.6453483 78.1875,26 L78.1875,20.0416667 L79.8125,20.0416667 L79.8125,26 C79.8125,26.7478856 80.4187811,27.3541667 81.1666667,27.3541667 L86.5833333,27.3541667 Z" id="矩形" fill="#DDDDDD" fill-rule="nonzero"></path>
                    <path d="M69.2501672,29.293154 C68.3579788,30.2276704 67.3311486,31.0171948 66.1957095,31.673209 C64.7448989,32.511433 63.1964063,33.0900221 61.6485112,33.4577546 C61.1468379,33.5769369 60.6774607,33.6658396 60.25,33.7290059 L60.25,43.8372278 C60.25,45.8521525 61.9442615,47.9879189 64.811182,50.0375188 C65.8485032,50.7791137 66.9637818,51.4547254 68.0793428,52.0493436 C68.4698023,52.257467 68.8319547,52.4403679 69.1561807,52.5963377 C69.1891071,52.612177 69.2203675,52.6271324 69.2499139,52.6411956 C69.2794713,52.6271199 69.3107441,52.6121508 69.3436842,52.5962969 C69.6679171,52.4402444 70.0300765,52.2572555 70.4205433,52.0490425 C71.5361241,51.4541686 72.6514226,50.7783391 73.688764,50.0365931 C76.5556958,47.9866072 78.2499993,45.8510112 78.2499993,43.8372278 L78.2499993,33.7289694 C77.822165,33.6657192 77.3523577,33.5766797 76.8502133,33.4572962 C75.3014116,33.089073 73.7520156,32.5096868 72.3003712,31.6702917 C71.1668357,31.014839 70.1414725,30.2262675 69.2501672,29.293154 Z M79.0506873,32.3146287 L79.0505108,32.3146167 L79.0506874,32.3146286 Z" id="路径" stroke="#DDDDDD" stroke-width="1.5" fill="#FAFAFA"></path>
                    <path d="M46.1666667,47.8976696 L46.1666667,68.4166667 C46.1666667,69.1070226 46.7263107,69.6666667 47.4166667,69.6666667 L91.0833333,69.6666667 C91.7736893,69.6666667 92.3333333,69.1070226 92.3333333,68.4166667 L92.3333333,47.8976696 L71.6664642,60.1099105 C70.1758819,60.9907091 68.3241181,60.9907091 66.8335358,60.1099105 L46.1666667,47.8976696 Z" id="矩形" stroke="#DDDDDD" stroke-width="1.5" fill="#FAFAFA"></path>
                    <g id="分组-2" transform="translate(66.000000, 36.833333)" fill="#FAFAFA" stroke="#DDDDDD">
                        <path d="M1,3.75 C0.723857625,3.75 0.5,3.97385763 0.5,4.25 L0.5,7.66666667 C0.5,7.94280904 0.723857625,8.16666667 1,8.16666667 L5.5,8.16666667 C5.77614237,8.16666667 6,7.94280904 6,7.66666667 L6,4.25 C6,3.97385763 5.77614237,3.75 5.5,3.75 L1,3.75 Z" id="矩形"></path>
                        <path d="M1.58333333,3.83333333 L4.91666667,3.83333333 L4.91666667,2.16666667 C4.91666667,1.24619208 4.17047458,0.5 3.25,0.5 C2.32952542,0.5 1.58333333,1.24619208 1.58333333,2.16666667 L1.58333333,3.83333333 Z" id="矩形"></path>
                    </g>
                </g>
            </g>
        </g>
    </g>
</svg>