<?xml version="1.0" encoding="utf-8"?>
<!-- Generator: Adobe Illustrator 21.0.0, SVG Export Plug-In . SVG Version: 6.00 Build 0)  -->
<svg version="1.1" id="Layer_1" xmlns="http://www.w3.org/2000/svg" xmlns:xlink="http://www.w3.org/1999/xlink" x="0px" y="0px"
	 viewBox="0 0 64 64" style="enable-background:new 0 0 64 64;" xml:space="preserve">
<style type="text/css">
	.st0{opacity:0.6;}
	.st1{fill:#FFFFFF;}
</style>
<g class="st0">
	<path class="st1" d="M46,19H22c-1.7,0-3,1.3-3,3v27h30V22C49,20.3,47.7,19,46,19z M47,47H21V22c0-0.6,0.4-1,1-1h24c0.6,0,1,0.4,1,1
		V47z"/>
	<path class="st1" d="M42,15H18c-1.7,0-3,1.3-3,3v26h2V18c0-0.6,0.4-1,1-1h24V15z"/>
	<path class="st1" d="M40.9,29.1h0.9c1.1,0,2-0.9,2-2v-0.9c0-1.1-0.9-2-2-2h-0.9c-1.1,0-2,0.9-2,2v0.9
		C38.9,28.2,39.8,29.1,40.9,29.1z"/>
	<polygon class="st1" points="31.7,38.7 25.7,33.5 21.8,37.4 23.2,38.8 25.8,36.2 30.4,40.2 29.1,41.6 30.6,42.9 37.3,35.5 
		44.8,44.5 46.3,43.2 37.3,32.5 	"/>
</g>
</svg>
