<?xml version="1.0" encoding="UTF-8"?>
<svg width="342px" height="82px" viewBox="0 0 342 82" version="1.1" xmlns="http://www.w3.org/2000/svg" xmlns:xlink="http://www.w3.org/1999/xlink">
    <!-- Generator: Sketch 52.2 (67145) - http://www.bohemiancoding.com/sketch -->
    <title>YonSuite_英文logo_01</title>
    <desc>Created with Sketch.</desc>
    <defs>
        <polygon id="path-1" points="0.501 0.894 42.558 0.894 42.558 54 0.501 54"></polygon>
        <polygon id="path-3" points="0.141221755 0.046 41.712 0.046 41.712 35.892 0.141221755 35.892"></polygon>
    </defs>
    <g id="YonSuite_英文logo_01" stroke="none" stroke-width="1" fill="none" fill-rule="evenodd">
        <g id="分组" transform="translate(10.000000, 15.000000)">
            <path d="M93.1517,21.2361 C91.7347,21.6721 90.7497,22.9551 90.7497,24.6801 L90.7497,52.9261 L90.8517,53.0281 L90.8517,52.9261 L102.7837,52.9261 C104.0237,52.9261 104.6897,52.1541 104.6897,51.0161 L104.6897,26.6741 C112.8127,24.5301 118.0437,26.7961 118.0437,30.2131 L118.0437,51.1151 C118.0437,52.2481 118.6047,52.9261 119.8797,52.9261 L131.8737,52.9261 L131.8737,30.8011 C131.8737,19.6381 117.6287,14.3561 93.1517,21.2361 M72.1977,38.8151 C68.9497,44.9411 64.8307,47.5061 60.0057,45.5691 C55.2427,43.6311 54.7487,38.8571 58.3157,32.1651 C61.7177,25.8301 65.8417,23.3651 70.5207,25.3991 C75.2567,27.4421 75.7997,32.0931 72.1977,38.8151 M65.2687,17.6401 C58.3157,17.6401 53.1507,19.4041 49.3007,22.8401 C45.6987,26.0471 43.6067,31.2341 43.6067,35.4691 C43.6067,40.7351 45.8067,45.2411 49.1247,48.2141 C52.9477,51.6471 58.8447,53.3401 65.2687,53.3401 C72.1977,53.3401 77.4477,51.5341 81.3667,48.1101 C84.9947,44.8971 86.9977,39.5741 86.9977,35.4691 C86.9977,30.2451 85.2017,26.0091 81.5137,22.7551 C77.5917,19.3741 72.1977,17.6401 65.2687,17.6401" id="Fill-1" fill="#D61819"></path>
            <path d="M52.3598,1.2166 L41.6558,1.2166 C41.1128,1.2166 40.6068,1.4926 40.3118,1.9486 L26.9458,22.6406 L13.5798,1.9486 C13.2858,1.4926 12.7788,1.2166 12.2358,1.2166 L1.6028,1.2166 C0.3108,1.2166 -0.4482,2.6686 0.2888,3.7296 L20.1898,32.3866 L20.1898,51.5946 C20.1898,52.5586 20.9678,53.3406 21.9318,53.3406 L32.0308,53.3406 C32.9948,53.3406 33.7728,52.5586 33.7728,51.5946 L33.7728,32.3866 L53.6738,3.7296 C54.4108,2.6686 53.6518,1.2166 52.3598,1.2166" id="Fill-3" fill="#D61819"></path>
            <g transform="translate(138.000000, 0.106300)">
                <mask id="mask-2" fill="white">
                    <use xlink:href="#path-1"></use>
                </mask>
                <g id="Clip-6"></g>
                <path d="M40.454,29.4823 C39.061,27.2323 37.109,25.4353 34.649,24.1393 C32.255,22.8793 28.54,21.6493 23.609,20.4853 C17.692,19.0883 15.493,17.9923 14.69,17.3183 C13.871,16.6303 13.474,15.8363 13.474,14.8923 C13.474,13.8573 13.89,13.0523 14.748,12.4323 C16.258,11.3363 18.413,10.7803 21.153,10.7803 C23.791,10.7803 25.771,11.2893 27.039,12.2933 C28.065,13.1063 28.811,14.3893 29.265,16.1183 C29.451,16.8273 30.094,17.3243 30.828,17.3153 L41.131,17.1753 C40.96,12.2363 39.097,7.9823 35.885,5.1953 C32.593,2.3403 27.67,0.8933 21.255,0.8933 C17.338,0.8933 13.937,1.4973 11.146,2.6893 C8.307,3.9003 6.098,5.6963 4.58,8.0273 C3.064,10.3543 2.296,12.8923 2.296,15.5713 C2.296,19.7263 3.927,23.2953 7.143,26.1763 C9.435,28.2303 13.256,29.8993 18.824,31.2793 C22.976,32.3133 25.663,33.0373 26.804,33.4333 C28.384,33.9933 29.488,34.6413 30.084,35.3553 C30.66,36.0433 30.939,36.8633 30.939,37.8603 C30.939,39.4673 30.225,40.8433 28.756,42.0683 C27.266,43.3133 24.971,43.9433 21.934,43.9433 C19.082,43.9433 16.801,43.2303 15.154,41.8203 C13.728,40.6013 12.7,38.7353 12.09,36.2643 C11.912,35.5463 11.253,35.0513 10.514,35.0653 L0.501,35.2683 C1.228,41.4453 3.53,46.6123 6.814,49.4443 C10.319,52.4673 15.372,54.0003 21.833,54.0003 C26.242,54.0003 29.99,53.3683 32.973,52.1213 C36.008,50.8543 38.392,48.8833 40.058,46.2653 C41.718,43.6563 42.558,40.8183 42.558,37.8273 C42.558,34.5463 41.85,31.7383 40.454,29.4823" id="Fill-5" fill="#767472" mask="url(#mask-2)"></path>
            </g>
            <path d="M232.9589,17.8631 C232.0639,17.8631 231.3389,18.5881 231.3389,19.4831 L231.3389,52.7661 L243.3549,52.7661 C244.2489,52.7661 244.9749,52.0401 244.9749,51.1461 L244.9749,17.8631 L232.9589,17.8631 Z" id="Fill-7" fill="#767472"></path>
            <path d="M232.9364,1.0906 C232.0404,1.0906 231.3164,1.8166 231.3164,2.7106 L231.3164,12.1886 L243.3214,12.1886 C244.2154,12.1886 244.9414,11.4636 244.9414,10.5686 L244.9414,1.0906 L232.9364,1.0906 Z" id="Fill-9" fill="#D61819"></path>
            <path d="M272.6122,44.6966 C271.4712,44.9476 270.4042,45.0726 269.8332,45.0726 C269.1882,45.0726 268.6412,44.9126 268.1932,44.5896 C267.7442,44.2666 267.4562,43.8586 267.3302,43.3636 C267.2032,42.8686 267.1392,41.1246 267.1392,38.1326 L267.1392,25.6656 L272.1702,25.6656 C273.0532,25.6656 273.7702,24.9486 273.7702,24.0656 L273.7702,19.5296 C273.7702,18.6456 273.0532,17.9296 272.1702,17.9296 L267.1392,17.9296 L267.1392,2.8246 C267.1392,1.9416 266.4232,1.2246 265.5402,1.2246 L255.6232,1.2246 C254.7392,1.2246 254.0222,1.9416 254.0222,2.8246 L254.0222,17.9296 L250.1232,17.9296 C249.2392,17.9296 248.5222,18.6456 248.5222,19.5296 L248.5222,24.0656 C248.5222,24.9486 249.2392,25.6656 250.1232,25.6656 L254.0222,25.6656 L254.0222,39.3406 C254.0222,42.7706 254.1262,45.0506 254.3332,46.1776 C254.5872,47.7666 255.0422,49.0266 255.6982,49.9596 C256.3542,50.8916 257.3832,51.6516 258.7882,52.2386 C260.1922,52.8256 261.7692,53.1196 263.5192,53.1196 C265.9632,53.1196 270.6612,52.7646 273.3802,52.0566 C274.0832,51.8736 274.5642,51.2346 274.5642,50.5086 L274.5642,46.2556 C274.5642,45.2296 273.6142,44.4756 272.6122,44.6966" id="Fill-11" fill="#767472"></path>
            <path d="M213.3231,18.0174 C212.1041,18.0174 211.3731,18.7884 211.3731,19.9374 L211.3731,44.2764 C203.3301,46.4054 198.0991,44.1994 198.0991,40.7234 L198.0991,19.8074 C198.0991,18.7254 197.4811,18.0174 196.2401,18.0174 L184.2331,18.0174 L184.2331,40.1424 C184.2331,51.3364 198.5371,56.6454 223.0041,49.7444 C224.3861,49.2784 225.3391,48.0244 225.3391,46.2994 L225.3391,18.0174 L225.2691,18.0174 L213.3231,18.0174 Z" id="Fill-13" fill="#767472"></path>
            <g transform="translate(275.000000, 17.106300)">
                <mask id="mask-4" fill="white">
                    <use xlink:href="#path-3"></use>
                </mask>
                <g id="Clip-16"></g>
                <path d="M29.7323,15.184 L11.3153,15.265 C11.4283,14.995 11.5023,7.937 19.9323,7.695 C27.2713,7.483 29.9963,12.404 29.7323,15.184 M37.4413,6.179 C33.8413,2.109 28.1743,0.046 20.5963,0.046 C13.6863,0.046 8.3983,1.865 4.8783,5.451 C0.4733,9.939 0.1003,15.96 0.1443,18.341 C0.2323,23.141 0.4633,35.892 21.2423,35.892 C30.6833,35.892 37.2253,32.198 40.6873,24.915 L31.6193,24.915 C31.1103,24.915 30.6453,25.168 30.3333,25.569 C29.2633,26.942 27.0863,28.62 22.7043,29.174 C21.9633,29.268 21.2383,29.315 20.5453,29.315 C16.7193,29.315 11.9533,27.881 10.7173,21.14 L41.1693,21.14 L41.5403,21.125 L41.5863,20.759 C41.7643,19.309 42.4043,11.791 37.4413,6.179" id="Fill-15" fill="#767472" mask="url(#mask-4)"></path>
            </g>
        </g>
    </g>
</svg>