<?xml version="1.0" encoding="utf-8"?>
<!-- Generator: Adobe Illustrator 21.0.0, SVG Export Plug-In . SVG Version: 6.00 Build 0)  -->
<svg version="1.1" id="Layer_1" xmlns="http://www.w3.org/2000/svg" xmlns:xlink="http://www.w3.org/1999/xlink" x="0px" y="0px"
	 viewBox="0 0 70 20" style="enable-background:new 0 0 70 20;" xml:space="preserve">
<style type="text/css">
	.st0{fill:#ED1C24;}
</style>
<path class="st0" d="M22.7,2.1H6.9C6.4,2.1,5.9,2.4,5.9,3v7.6c0,4.3-0.7,7-1.1,8l0,0c0,0-0.1,0.3,0.1,0.4c0.1,0.1,0.2,0.1,0.3,0.1h2
	c0.4,0,0.6-0.3,0.7-0.4l0,0c0.5-1,0.7-2.9,0.9-4.6h4.4v3.6c0,0.4,0.3,0.5,0.5,0.5H16l0.1,0c0.2,0,0.4-0.1,0.4-0.5v-3.6l4.3,0v2.5
	c0,0,0,0.1-0.1,0.1h-1.4c-0.4,0-0.5,0.3-0.5,0.5v1.4c0,0.3,0.3,0.5,0.5,0.5c0,0,0,0,0.1,0h3.7c0,0,0.2,0,0.5-0.1
	c0.2-0.1,0.5-0.4,0.5-0.9V3.4C24,2.2,23.4,2.1,22.7,2.1 M9.4,4.6l3.9,0c0,0,0,2.4,0,2.4H8.9V5.1C8.9,5.1,8.9,4.6,9.4,4.6 M13.2,11.9
	c0,0,0-0.1,0-0.1H8.9V9.4h4.3V11.9z M16.4,4.6h3.8c0.3,0,0.5,0.1,0.5,0.5v1.9h-4.3V4.6z M20.8,11.7h-4.4V9.4h4.4V11.7z"/>
<path class="st0" d="M44.6,3.1H32.6c0.1-0.8,0.1-1.3,0.1-1.3c0-0.2,0-0.4-0.1-0.4c-0.1-0.2-0.4-0.2-0.4-0.2h-2
	c-0.4,0-0.6,0.3-0.6,0.5c0,0,0,0.6-0.1,1.5h-3.1c-0.3,0-0.5,0.2-0.5,0.5V5c0,0.3,0.2,0.5,0.5,0.5h2.9c-0.5,3.9-1.4,9.6-3.5,12.9
	c-0.1,0.1-0.2,0.4,0,0.6c0.1,0.1,0.2,0.2,0.4,0.2h2h0c0.1,0,0.5-0.1,0.8-0.5l0-0.1c0,0,0,0,0,0c1.3-2.3,2.2-5.8,2.8-9h8
	c0.1,0,0.3,0,0.3,0.3c0,0.5-0.9,1.9-2.2,3.2c-0.6-0.7-1.2-1.4-1.8-2.1c-0.1-0.2-0.4-0.2-0.4-0.2h-2.8c-0.3,0-0.3,0.2-0.2,0.3
	c0.9,1.6,2,3,3.1,4c-0.8,0.6-1.5,1.2-2.2,1.4c-0.3,0.1-0.8,0.2-1,0.2H32c-0.4,0-0.5,0.2-0.5,0.5v1.4c0,0.3,0.2,0.4,0.4,0.4h1.4
	c0.5,0,1.1-0.1,1.6-0.4c0.8-0.4,1.8-1,2.8-1.8c1.7,1.3,3,1.9,2.6,1.7c-0.2-0.1,1,0.6,2.7,0.6h1.3c0.2,0,0.5-0.1,0.5-0.4v-1.6
	c0-0.3-0.2-0.4-0.4-0.4h-0.2c-1.3,0-1.7-0.2-2.2-0.4c-0.7-0.4-1.4-0.9-2.1-1.4c2-2.1,3.8-4.6,3.8-6.6c0-0.9-0.8-1.3-1.5-1.3H32.1
	c0.1-0.6,0.2-1.2,0.2-1.7h12.3c0.3,0,0.5-0.2,0.5-0.5V3.6C45.1,3.3,44.9,3.1,44.6,3.1"/>
<g>
	<path class="st0" d="M48.3,4.6h15.8c0.3,0,0.5-0.2,0.5-0.5V2.7c0-0.3-0.2-0.5-0.5-0.5H48.3c-0.3,0-0.5,0.2-0.5,0.5v1.4
		C47.8,4.4,48,4.6,48.3,4.6z"/>
	<path class="st0" d="M65.2,7.2h-18c-0.3,0-0.5,0.2-0.5,0.5v1.4c0,0.3,0.2,0.5,0.5,0.5h2.9l-2.6,7.2c0,0.1-0.4,0.9,0,1.6
		c0.3,0.4,0.8,0.7,1.7,0.7h13.5c0.9,0,1.6-0.3,2-0.7c0.3-0.4,0.4-1,0.3-1.6l-1.2-4.1c-0.1-0.3-0.3-0.4-0.4-0.5l0,0h-2.1h-0.1h-1
		c-0.5,0-0.5,0.3-0.5,0.5v0.4c0,0.3,0.3,0.5,0.6,0.5c0,0,0,0,0.1,0h0.4c0.3,0.9,0.8,2.8,0.8,2.8H51.4c-0.2,0-0.2-0.1-0.2-0.2
		l2.3-6.6h11.7c0.3,0,0.5-0.2,0.5-0.5V7.7C65.8,7.4,65.5,7.2,65.2,7.2z"/>
</g>
</svg>
