<?xml version="1.0" encoding="UTF-8"?>
<svg width="116px" height="88px" viewBox="0 0 116 88" version="1.1" xmlns="http://www.w3.org/2000/svg" xmlns:xlink="http://www.w3.org/1999/xlink">
    <!-- Generator: Sketch 52.2 (67145) - http://www.bohemiancoding.com/sketch -->
    <title>分组 10</title>
    <desc>Created with Sketch.</desc>
    <defs>
        <polygon id="path-1" points="0 0.164784906 47.8406038 0.164784906 47.8406038 33.4382943 0 33.4382943"></polygon>
        <linearGradient x1="-1.11022302e-14%" y1="50%" x2="100%" y2="50%" id="linearGradient-3">
            <stop stop-color="#F2837C" offset="0%"></stop>
            <stop stop-color="#E14C46" offset="100%"></stop>
        </linearGradient>
    </defs>
    <g id="20190125" stroke="none" stroke-width="1" fill="none" fill-rule="evenodd">
        <g id="新手引导2" transform="translate(-26.000000, -114.000000)">
            <g id="分组-19" transform="translate(5.000000, 84.000000)">
                <g id="分组-10" transform="translate(21.000000, 30.000000)">
                    <g id="分组-8" transform="translate(2.000000, 15.000000)">
                        <path d="M60,6.7 C58.7297451,6.7 57.7,7.72974508 57.7,9 L57.7,58 C57.7,59.2702549 58.7297451,60.3 60,60.3 L98,60.3 C99.2702549,60.3 100.3,59.2702549 100.3,58 L100.3,9 C100.3,7.72974508 99.2702549,6.7 98,6.7 L60,6.7 Z" id="矩形" stroke="#DDDDDD" stroke-width="1.4" fill="#FAFAFA"></path>
                        <rect id="矩形" fill="#FFFFFF" x="61" y="11" width="36" height="46" rx="1"></rect>
                        <path d="M76.7283914,3.0991183 L76.642442,3.7 L72.5,3.7 C70.9536027,3.7 69.7,4.9536027 69.7,6.5 C69.7,8.0463973 70.9536027,9.3 72.5,9.3 L86.5,9.3 C88.0463973,9.3 89.3,8.0463973 89.3,6.5 C89.3,4.9536027 88.0463973,3.7 86.5,3.7 L82.357558,3.7 L82.2716086,3.0991183 C82.0758012,1.73020723 80.8973273,0.7 79.5,0.7 C78.1026727,0.7 76.9241988,1.73020723 76.7283914,3.0991183 Z" id="合并形状" stroke="#DDDDDD" stroke-width="1.4" fill="#FFFFFF"></path>
                        <path d="M65,17 L93,17 C93.5522847,17 94,17.4477153 94,18 L94,18 C94,18.5522847 93.5522847,19 93,19 L65,19 C64.4477153,19 64,18.5522847 64,18 L64,18 C64,17.4477153 64.4477153,17 65,17 Z" id="矩形" fill="#EEEEEE"></path>
                        <path d="M65,25 L93,25 C93.5522847,25 94,25.4477153 94,26 L94,26 C94,26.5522847 93.5522847,27 93,27 L65,27 C64.4477153,27 64,26.5522847 64,26 L64,26 C64,25.4477153 64.4477153,25 65,25 Z" id="矩形" fill="#EEEEEE"></path>
                        <path d="M65,32 L83,32 C83.5522847,32 84,32.4477153 84,33 L84,33 C84,33.5522847 83.5522847,34 83,34 L65,34 C64.4477153,34 64,33.5522847 64,33 L64,33 C64,32.4477153 64.4477153,32 65,32 Z" id="矩形" fill="#EEEEEE"></path>
                        <g id="分组-5" transform="translate(43.000000, 21.000000)">
                            <path d="M25.0478261,35.4311835 L25.0478261,38.7891545 C25.0478261,39.3630504 25.5130606,39.8282849 26.0869565,39.8282849 C26.6608524,39.8282849 27.126087,39.3630504 27.126087,38.7891545 L27.126087,35.4311835 L25.0478261,35.4311835 Z" id="矩形" stroke="#DDDDDD" stroke-width="1.4" fill="#FFFFFF" transform="translate(26.086957, 37.629734) rotate(-38.000000) translate(-26.086957, -37.629734) "></path>
                            <path d="M5.59410993,35.2276237 L5.59410993,38.5855947 C5.59410993,39.1594906 6.05934448,39.6247251 6.63324037,39.6247251 C7.20713626,39.6247251 7.6723708,39.1594906 7.6723708,38.5855947 L7.6723708,35.2276237 L5.59410993,35.2276237 Z" id="矩形" stroke="#DDDDDD" stroke-width="1.4" fill="#FFFFFF" transform="translate(6.633240, 37.426174) rotate(31.000000) translate(-6.633240, -37.426174) "></path>
                            <path d="M14.0144928,0 L19.0289855,0 C20.6858398,-3.04359188e-16 22.0289855,1.34314575 22.0289855,3 L22.0289855,8.69565217 L11.0144928,8.69565217 L11.0144928,3 C11.0144928,1.34314575 12.3576385,3.04359188e-16 14.0144928,0 Z" id="矩形" stroke="#DDDDDD" stroke-width="1.4" fill="#FFFFFF"></path>
                            <path d="M14.3333333,2.31884058 L18.7101449,2.31884058 C19.2624297,2.31884058 19.7101449,2.76655583 19.7101449,3.31884058 L19.7101449,7.53623188 L13.3333333,7.53623188 L13.3333333,3.31884058 C13.3333333,2.76655583 13.7810486,2.31884058 14.3333333,2.31884058 Z" id="矩形" stroke="#DDDDDD" stroke-width="1.4" fill="#FFFFFF"></path>
                            <circle id="椭圆形" stroke="#DDDDDD" stroke-width="1.4" fill="#FFFFFF" cx="16.5217391" cy="22.1594203" r="16.5217391"></circle>
                            <path d="M16.5217391,10.2753623 L16.5217391,14.1374397" id="路径-6" stroke="#EEEEEE" stroke-width="1.5" stroke-linecap="round"></path>
                            <path d="" id="路径-6-copy" stroke="#EEEEEE" stroke-width="1.5" stroke-linecap="round" transform="translate(40.406908, 30.503046) rotate(-270.000000) translate(-40.406908, -30.503046) "></path>
                            <path d="M18.7672668,14.3902586 L18.7672668,23.045105" id="路径-6" stroke="#DDDDDD" stroke-width="2" stroke-linecap="round" transform="translate(18.767267, 18.717682) rotate(28.000000) translate(-18.767267, -18.717682) "></path>
                            <path d="M19.1190731,21.1209655 L19.1190731,27.3096159" id="路径-6" stroke="#DDDDDD" stroke-width="2" stroke-linecap="round" transform="translate(19.119073, 24.215291) rotate(121.000000) translate(-19.119073, -24.215291) "></path>
                            <circle id="椭圆形" fill="#DDDDDD" cx="16.5217391" cy="22.7391304" r="1.44927536"></circle>
                            <path d="" id="路径-6" stroke="#DDDDDD" stroke-width="1.5" stroke-linecap="round" transform="translate(50.000000, 37.000000) rotate(90.000000) translate(-50.000000, -37.000000) "></path>
                            <path d="M16.5217391,30.761111 L16.5217391,34.6231884" id="路径-6" stroke="#EEEEEE" stroke-width="1.5" stroke-linecap="round" transform="translate(16.521739, 32.692150) rotate(180.000000) translate(-16.521739, -32.692150) "></path>
                            <path d="M26.7646135,20.5182367 L26.7646135,24.3803141" id="路径-6" stroke="#EEEEEE" stroke-width="1.5" stroke-linecap="round" transform="translate(26.764613, 22.449275) rotate(-270.000000) translate(-26.764613, -22.449275) "></path>
                            <path d="M6.2788648,20.5182367 L6.2788648,24.3803141" id="路径-6" stroke="#EEEEEE" stroke-width="1.5" stroke-linecap="round" transform="translate(6.278865, 22.449275) rotate(-90.000000) translate(-6.278865, -22.449275) "></path>
                            <path d="M6.35474111,16.1452814 L6.35474111,17.0134313" id="路径-6" stroke="#EEEEEE" stroke-width="1.5" stroke-linecap="round" transform="translate(6.354741, 16.579356) rotate(300.000000) translate(-6.354741, -16.579356) "></path>
                        </g>
                        <path d="M43,61 L111.5,61" id="路径-27" stroke="#DDDDDD" stroke-width="1.4" stroke-linecap="round"></path>
                        <path d="M0,61 L19.5,61" id="路径-27" stroke="#DDDDDD" stroke-width="1.4" stroke-linecap="round"></path>
                        <path d="M13,67 L56.5,67" id="路径-27" stroke="#DDDDDD" stroke-width="1.4" stroke-linecap="round"></path>
                        <path d="M65,67 L74.5,67" id="路径-27" stroke="#DDDDDD" stroke-width="1.4" stroke-linecap="round"></path>
                    </g>
                    <path d="M3,5 L54,5 C43.7619603,30.6103838 40.7619603,45.2770504 45,49 C51,54.2707617 55,59.6445635 55,63.1523543 C55,69.2800779 52,71.5626264 46,70 L3,70 L3,5 Z" id="矩形" fill="#FFFFFF"></path>
                    <g id="分组" transform="translate(7.000000, 48.000000)">
                        <path d="M14.2106693,1.31906845 C13.8514912,1.01183631 -5.22005479,15.7645149 3.6473229,20.3882202 C7.74141292,22.523622 9.36041487,17.5899167 9.99505284,13.7771935 C10.4352485,11.131122 11.8665597,8.57915774 13.9082035,6.79250595 L17.5729002,3.58455952" id="Fill-17" fill="#FFFFFF"></path>
                        <path d="M5.50222114,21.598189 C4.82167319,21.598189 4.09926614,21.4002872 3.34040117,21.0044836 C1.04625245,19.8087693 0.596604697,18.033189 0.624960861,16.7558229 C0.759990215,10.4589479 12.631771,1.26827827 13.8132779,0.717474702 L14.1994618,0.537563988 L14.6437084,0.78805506 C14.9286204,1.03301042 14.9677789,1.46894792 14.7287769,1.76234077 C14.6207534,1.89519792 14.476272,1.97546577 14.3223386,2.00176042 C13.0706164,2.66327827 2.17644814,11.3045283 1.9766047,16.7253765 C1.92799413,18.0553318 2.57478474,19.0517604 3.95343444,19.7714033 C4.92294521,20.2765372 5.73447162,20.3485015 6.43257339,19.9872961 C7.73290607,19.3188586 8.76182975,17.0713586 9.32895303,13.6613586 C9.7961546,10.8561354 11.3044325,8.16024256 13.468953,6.26564435 L17.135,3.05908185 C17.4172114,2.81135863 17.8425538,2.84318899 18.0869569,3.13519792 C18.3286595,3.42582292 18.2949022,3.86314435 18.0113405,4.11086756 L14.3466438,7.31881399 C12.4184247,9.00582292 11.0748826,11.4027872 10.6603425,13.8938586 C10.0013992,17.8601979 8.78208415,20.3277426 7.04020548,21.2245283 C6.5554501,21.4736354 6.04233855,21.598189 5.50222114,21.598189" id="Fill-19" fill="#BBBBBB"></path>
                        <path d="M31.4749824,1.43324256 C34.6603249,2.6026622 49.9294442,15.0566354 43.3818708,18.9385551 C39.7846888,21.0698051 37.6147671,17.3968586 36.5210294,13.3031979 C35.4907554,9.44757292 29.2848063,5.34284077 29.2848063,5.34284077" id="Fill-21" fill="#FFFFFF"></path>
                        <path d="M41.3693933,20.2582693 C40.8994912,20.2582693 40.443092,20.1655461 40.0001957,19.9787158 C37.7695108,19.0404122 36.5231898,15.9307247 35.8696477,13.4867068 C34.9203914,9.93139435 28.9790998,5.96367113 28.9196869,5.92492113 C28.6064188,5.71733185 28.5159491,5.28969792 28.7184932,4.96862649 C28.9210372,4.64617113 29.3396282,4.55344792 29.651546,4.76242113 C29.9135029,4.9354122 36.0856947,9.05536756 37.172681,13.1213497 C37.9828571,16.1521533 39.1697652,18.1325551 40.5133072,18.6985818 C41.2708219,19.0196533 42.0999022,18.9006354 43.0437573,18.3401443 C43.9997652,17.7727336 44.4021526,17.0184926 44.3089824,15.9653229 C43.8903914,11.2350551 33.9076712,3.06157292 31.247593,2.08451935 C30.8965166,1.95581399 30.7128767,1.56001042 30.8398043,1.20018899 C30.9640313,0.838983631 31.3529159,0.650769345 31.7026419,0.78224256 C34.2587476,1.72054613 45.1542661,10.1846533 45.6525245,15.8407693 C45.792955,17.4267515 45.1245597,18.7041176 43.7202544,19.5372426 C42.9100783,20.0174658 42.1242074,20.2582693 41.3693933,20.2582693" id="Fill-23" fill="#BBBBBB"></path>
                        <path d="M9.05538356,16.3118586 C9.05538356,16.3118586 7.95354403,13.301814 4.73444423,13.941189" id="Fill-37" fill="#FFFFFF"></path>
                        <path d="M9.05538356,17.0038229 C8.78262427,17.0038229 8.52606849,16.8335997 8.42479648,16.5581979 C8.38698826,16.4571711 7.46068689,14.1127961 4.86272211,14.6206979 C4.4886908,14.6940461 4.14166536,14.4477068 4.0714501,14.0726622 C3.99988454,13.6976176 4.24023679,13.3350283 4.60616634,13.2616801 C7.59571624,12.6665908 9.23767319,14.8393586 9.68732094,16.0682872 C9.81829941,16.4267247 9.64141096,16.8252961 9.29303523,16.9595372 C9.2147182,16.9899836 9.13505088,17.0038229 9.05538356,17.0038229" id="Fill-39" fill="#BBBBBB"></path>
                        <path d="M40.9620098,12.5344256 C40.9620098,12.5344256 38.0642798,13.3384881 37.7307573,16.3111667" id="Fill-41" fill="#FFFFFF"></path>
                        <path d="M37.7319726,17.0038229 C37.706317,17.0038229 37.6806614,17.002439 37.6536556,16.9996711 C37.2836751,16.9553854 37.0176673,16.6121711 37.0608767,16.2329747 C37.4416595,12.8312783 40.6499569,11.9040461 40.7863366,11.8666801 C41.1441644,11.7670372 41.5168454,11.984314 41.6140665,12.3538229 C41.7112877,12.7219479 41.4992916,13.1011443 41.1401135,13.2007872 C41.0401918,13.2298497 38.6771781,13.9342693 38.4017182,16.3907426 C38.3625597,16.7436443 38.0708963,17.0038229 37.7319726,17.0038229" id="Fill-43" fill="#BBBBBB"></path>
                    </g>
                    <g id="分组-9" transform="translate(5.000000, 8.000000)">
                        <g id="分组" transform="translate(1.000000, 0.000000)">
                            <path d="M35.1191547,47.4270792 C35.1150792,53.6122868 30.0900226,70.4901736 23.9048151,70.4860981 C17.7196075,70.4820226 12.7176453,53.5973434 12.7217208,47.4121358 C12.7257962,41.2269283 17.7413434,39.5165887 23.9251925,39.5206642 C30.1104,39.5247396 35.1232302,41.2418717 35.1191547,47.4270792" id="Fill-9" fill="#FFFFFF"></path>
                            <path d="M23.9035925,40.1995019 C16.7416302,40.1995019 13.4038189,42.4912755 13.4011019,47.4130868 C13.3970264,53.6825208 18.3867623,69.8037283 23.9049509,69.8064453 L23.9063094,69.8064453 C26.2728,69.8064453 28.9300075,66.604483 31.2014038,61.0224453 C33.3247245,55.7976906 34.4373283,50.2278792 34.4400453,47.4266717 L35.1192906,47.4266717 L34.4400453,47.4266717 C34.4427623,42.5007849 31.102234,40.2035774 23.9253283,40.1995019 L23.9035925,40.1995019 Z M23.9063094,71.1649358 L23.9035925,71.1649358 C16.9549132,71.1608604 12.0385358,53.1513509 12.0426113,47.4117283 C12.0439698,44.2858415 13.2611774,41.980483 15.6602717,40.5608604 C17.6137811,39.4034264 20.3103849,38.8410113 23.9035925,38.8410113 L23.9266868,38.8410113 C31.8072906,38.8464453 35.8026113,41.7345962 35.7985358,47.4280302 C35.7958189,50.8473509 34.3924981,56.7798792 32.459366,61.5332377 C30.6715925,65.9279547 27.7386113,71.1649358 23.9063094,71.1649358 Z" id="Fill-11" fill="#BBBBBB"></path>
                            <path d="M23.920166,62.4487245 C20.1951849,62.4487245 17.5529208,52.7776302 17.5529208,49.6952151 L18.232166,49.6952151 C18.232166,53.0764981 20.9369208,61.7694792 23.920166,61.7694792 C26.9034113,61.7694792 29.608166,53.0764981 29.608166,49.6952151 L30.2874113,49.6952151 C30.2874113,52.7776302 27.6451472,62.4487245 23.920166,62.4487245" id="Fill-13" fill="#BBBBBB"></path>
                            <g transform="translate(0.000000, 3.240951)">
                                <mask id="mask-2" fill="white">
                                    <use xlink:href="#path-1"></use>
                                </mask>
                                <g id="Clip-16"></g>
                                <path d="M23.5738868,33.4382943 L23.5154717,33.4382943 C14.6784906,33.4328604 8.50550943,31.9480302 4.64467925,28.9009358 C1.51607547,26.4298415 -0.00271698113,23.0241057 0,18.4881057 L0.00271698113,14.7916528 C0.0081509434,6.17746415 5.5874717,1.39286038 17.058566,0.164784906 L17.3479245,2.86546415 C4.24256604,4.26878491 2.72241509,10.3453132 2.71969811,14.7930113 L2.71698113,18.4894642 C2.71426415,22.1899925 3.86218868,24.8213887 6.32784906,26.7681057 C9.64392453,29.385917 15.4270189,30.7158792 23.5168302,30.7213132 L23.5738868,30.7213132 C42.6633962,30.7213132 45.1168302,24.1502943 45.1209057,18.4242566 L45.1236226,14.9044075 C45.1263396,10.1659925 43.5043019,4.52689811 30.8227925,2.97006792 L31.1542642,0.273464151 C42.3876226,1.65369057 47.8460377,6.43965283 47.8406038,14.905766 L47.8378868,18.4256151 C47.8310943,28.665917 40.1189434,33.4382943 23.5738868,33.4382943" id="Fill-15" fill="#BBBBBB" mask="url(#mask-2)"></path>
                            </g>
                            <path d="M30.9885283,4.86271698 C43.9634717,6.45622642 46.4861887,12.3860377 46.4821132,18.1460377 L46.4793962,21.6658868 C46.4753208,28.478717 43.0220377,35.3336604 23.5168302,35.3200755 C4.98430189,35.3092075 1.35441509,28.5412075 1.35849057,21.7297358 L1.36120755,18.033283 C1.36528302,12.0939623 4.14339623,6.15464151 17.2039245,4.75539623" id="Fill-17" fill="#FFFFFF"></path>
                            <path d="M32.0697509,8.15624151 L29.3527698,8.15488302 L29.3554868,4.58069434 C29.2114868,3.50748679 28.7971472,2.99805283 26.8979774,2.83639245 C25.9837132,2.7576 24.9417509,2.71820377 23.8033358,2.71684528 L23.7748075,2.71684528 C22.7586566,2.71684528 21.8240151,2.74809057 20.9939774,2.80922264 C18.4875623,2.99669434 18.4875623,3.88243019 18.4875623,4.46929811 L18.4848453,8.14809057 L15.7678642,8.14673208 L15.7705811,4.46793962 C15.7705811,2.97631698 16.4253736,0.426430189 20.7915623,0.100392453 C21.688166,0.0338264151 22.6920906,-0.000135849057 23.7748075,-0.000135849057 C25.0327698,0.0107320755 26.1304302,0.0433358491 27.1289208,0.128920755 C28.2360906,0.224015094 31.6037887,0.510656604 32.0629585,4.33480755 L32.0724679,4.49646792 L32.0697509,8.15624151 Z" id="Fill-19" fill="#BBBBBB"></path>
                            <path d="M17.1263547,8.14686792 L17.1290717,4.46807547 C17.1304302,2.34203774 18.7565434,1.61388679 20.8920906,1.4549434 C21.6936,1.39516981 22.6554113,1.35713208 23.8046943,1.35849057 C25.0816755,1.35984906 26.1412981,1.40875472 27.0134491,1.48211321 C29.1245434,1.66279245 30.4572226,2.35018868 30.7139774,4.49524528 L30.7112604,8.15501887" id="Fill-21" fill="#FFFFFF"></path>
                            <path d="M18.1207698,8.12635472 L18.1221283,4.98552453 C18.1234868,3.17058113 19.5118642,2.55110943 21.336317,2.41390189 C22.0196377,2.36363774 22.840166,2.33103396 23.8223547,2.33239245 C24.9118642,2.33239245 25.8166189,2.37450566 26.5610717,2.43835472 C28.3624302,2.59050566 29.4994868,3.17873208 29.7195623,5.00997736 L29.7182038,8.13450566" id="Fill-23" fill="url(#linearGradient-3)"></path>
                            <path d="M29.4530264,10.9819019 C27.7494792,10.7699774 25.8149887,10.6545057 23.6210264,10.6531472 C9.11370566,10.6436377 6.26495094,16.0286943 6.26087547,21.4137509 L6.25951698,24.3412981 C6.25544151,29.7358642 9.09740377,35.0964679 23.6047245,35.1059774 C38.8728,35.1168453 41.5761962,29.6869585 41.5802717,24.2896755 L41.5816302,21.5034113 C41.5843472,16.9402415 39.6104604,12.2439396 29.4530264,10.9819019" id="Fill-25" fill="#BBBBBB"></path>
                            <path d="M23.920166,26.8739321 C21.483034,26.8739321 19.5064302,24.8973283 19.5064302,22.4601962 C19.5064302,20.0230642 21.483034,18.0478189 23.920166,18.0478189 C26.3572981,18.0478189 28.3339019,20.0230642 28.3339019,22.4601962 C28.3339019,24.8973283 26.3572981,26.8739321 23.920166,26.8739321" id="Fill-27" fill="#FFFFFF"></path>
                            <path d="M24.6796981,49.1649962 L22.9897358,49.1649962 C22.7954717,49.1649962 22.6392453,49.0087698 22.6392453,48.8145057 L22.6392453,44.7974491 C22.6392453,44.6045434 22.7954717,44.4469585 22.9897358,44.4469585 L24.6796981,44.4469585 C24.8739623,44.4469585 25.0301887,44.6045434 25.0301887,44.7974491 L25.0301887,48.8145057 C25.0301887,49.0087698 24.8739623,49.1649962 24.6796981,49.1649962" id="Fill-29" fill="#BBBBBB"></path>
                            <path d="M24.8893132,45.5683925 L30.612634,44.127034 C30.9454642,44.0428075 31.2660679,44.3009208 31.249766,44.6405434 L31.0296906,49.3327698 C31.0038792,49.8707321 30.4523321,50.2225811 29.9469736,50.0242415 L24.7453132,47.9362415" id="Fill-31" fill="#BBBBBB"></path>
                            <path d="M22.9510189,45.5478792 L17.2276981,44.1065208 C16.8948679,44.0222943 16.5742642,44.2804075 16.590566,44.6186717 L16.8106415,49.3122566 C16.8364528,49.8488604 17.388,50.2020679 17.8933585,50.0037283 L22.9510189,48.0244075" id="Fill-33" fill="#BBBBBB"></path>
                        </g>
                        <g id="分组" transform="translate(0.000000, 41.000000)"></g>
                    </g>
                </g>
            </g>
        </g>
    </g>
</svg>