<?xml version="1.0" encoding="UTF-8"?>
<svg width="126px" height="86px" viewBox="0 0 126 86" version="1.1" xmlns="http://www.w3.org/2000/svg" xmlns:xlink="http://www.w3.org/1999/xlink">
    <!-- Generator: Sketch 52.2 (67145) - http://www.bohemiancoding.com/sketch -->
    <title>分组 15</title>
    <desc>Created with Sketch.</desc>
    <defs>
        <polygon id="path-1" points="0 0.164784906 47.8406038 0.164784906 47.8406038 33.4382943 0 33.4382943"></polygon>
        <linearGradient x1="-1.11022302e-14%" y1="50%" x2="100%" y2="50%" id="linearGradient-3">
            <stop stop-color="#F2837C" offset="0%"></stop>
            <stop stop-color="#E14C46" offset="100%"></stop>
        </linearGradient>
    </defs>
    <g id="20190125" stroke="none" stroke-width="1" fill="none" fill-rule="evenodd">
        <g id="新手引导1" transform="translate(-151.000000, -79.000000)">
            <g id="分组-15" transform="translate(151.000000, 79.000000)">
                <g id="分组-14" transform="translate(52.370699, 21.475853) rotate(-22.000000) translate(-52.370699, -21.475853) translate(40.370699, 7.475853)" fill="#FFFFFF" stroke="#DDDDDD" stroke-width="1.4">
                    <rect id="矩形" x="0.7" y="0.7" width="22.6" height="26.6" rx="3"></rect>
                </g>
                <g id="分组-13" transform="translate(91.344315, 35.467550) rotate(-320.000000) translate(-91.344315, -35.467550) translate(72.844315, 13.967550)">
                    <rect id="矩形" stroke="#DDDDDD" stroke-width="1.4" fill="#FAFAFA" transform="translate(18.500000, 21.500000) rotate(3.000000) translate(-18.500000, -21.500000) " x="2.7" y="1.7" width="31.6" height="39.6" rx="3"></rect>
                    <path d="M11.826309,13.0387616 C10.4455971,13.0387616 9.32630901,11.9194735 9.32630901,10.5387616 C9.32630901,9.15804972 10.4455971,8.03876159 11.826309,8.03876159 C13.2070209,8.03876159 14.326309,9.15804972 14.326309,10.5387616 C14.326309,11.9194735 13.2070209,13.0387616 11.826309,13.0387616 Z M7.59598523,20.9212975 L11.7209894,15.666378 C12.0572255,15.2380405 12.6743763,15.157472 13.1093075,15.4851343 L17.0589869,18.4606874 C17.4876515,18.7836286 18.0948061,18.7105984 18.4346633,18.2952174 L25.6912875,9.42601005 C26.0410151,8.99856524 26.6710378,8.93556297 27.0984826,9.28529054 C27.2420666,9.40276835 27.3501403,9.55787225 27.4106178,9.73325716 L31.3690708,21.2127709 C31.5491105,21.734886 31.2718036,22.3040949 30.7496885,22.4841346 C30.6448075,22.5203005 30.5346393,22.5387616 30.4236979,22.5387616 L8.38258426,22.5387616 C7.83029951,22.5387616 7.38258426,22.0910463 7.38258426,21.5387616 C7.38258426,21.3148534 7.45772998,21.0974234 7.59598523,20.9212975 Z" id="合并形状" fill="#EEEEEE" transform="translate(19.403277, 15.288762) rotate(6.000000) translate(-19.403277, -15.288762) "></path>
                </g>
                <g id="分组-12" transform="translate(40.941406, 39.099609) rotate(-5.000000) translate(-40.941406, -39.099609) translate(19.941406, 17.099609)">
                    <rect id="矩形" stroke="#DDDDDD" stroke-width="1.4" fill="#FAFAFA" transform="translate(21.000000, 22.000000) rotate(-26.000000) translate(-21.000000, -22.000000) " x="7.7" y="5.7" width="26.6" height="32.6" rx="3"></rect>
                    <rect id="矩形" fill="#EEEEEE" transform="translate(15.793344, 28.433563) rotate(-26.000000) translate(-15.793344, -28.433563) " x="14.2933437" y="19.9335628" width="3" height="17"></rect>
                    <rect id="矩形-copy-5" fill="#EEEEEE" transform="translate(22.259984, 30.286280) rotate(-26.000000) translate(-22.259984, -30.286280) " x="20.7599841" y="26.2862802" width="3" height="8"></rect>
                    <rect id="矩形-copy-5" fill="#EEEEEE" transform="translate(26.096398, 26.746233) rotate(-26.000000) translate(-26.096398, -26.746233) " x="24.5963976" y="21.2462334" width="3" height="11"></rect>
                    <rect id="矩形-copy-5" fill="#EEEEEE" transform="translate(29.932811, 23.206187) rotate(-26.000000) translate(-29.932811, -23.206187) " x="28.4328111" y="16.2061866" width="3" height="14"></rect>
                </g>
                <path d="M13.5,79.3243584 C13.5,71.1081195 16.5,67.5 22.5,68.5 C22.5,63 23,58.5 32.5,59.5 C36,55.0801339 37,52.4276435 46,53.7138217 C47,48 50.5,36 60.5,35 C67.1666667,34.3333333 74,36.6666667 81,42 C88,41.3333333 91.1666667,45.3333333 90.5,54 C95.5,55.5 102,57.1837 97.5,68.5 C100.5,66 104,64.0787564 106.5,67.3063885 C111,66 118.5,66.5 117,79 C114,79 79.5,79.1081195 13.5,79.3243584 Z" id="路径-29" fill="#FFFFFF"></path>
                <path d="M37,73 C32,67.6666667 30.8333333,62.5537225 33.5,57.6611675 C35.8333333,53.8752112 39.8333333,52.3214887 45.5,53" id="路径-20" stroke="#DDDDDD" stroke-width="1.4" stroke-linecap="round"></path>
                <path d="M46,57.6611675 C46,45.2203892 50.6666667,37.6666667 60,35 C69.3333333,32.3333333 76.6666667,34.3333333 82,41 C88.3333333,41.9517623 91.1666667,46.1897029 90.5,53.7138217 C93.5,54.5 103,56 97,69.5885" id="路径-21" stroke="#DDDDDD" stroke-width="1.4" stroke-linecap="round"></path>
                <path d="M14,75.3447423 C14.3333333,69.7910808 17.1666667,67.5095 22.5,68.5 C22,64.5 22,58.7031748 32,59.5" id="路径-22" stroke="#DDDDDD" stroke-width="1.4" stroke-linecap="round"></path>
                <path d="" id="路径-23" stroke="#DDDDDD"></path>
                <path d="M97.5,75 C96.5,73 96.5,71 97.5,69 C99,66 104,64.6127771 107,67.3063885 C109,65.8163 118.5,65 117,77.6192038" id="路径-24" stroke="#DDDDDD" stroke-width="1.4" stroke-linecap="round"></path>
                <path d="M1.5,79 L36.5,79" id="路径-25" stroke="#DDDDDD" stroke-width="1.4" stroke-linecap="round"></path>
                <path d="M47.5,79 L57,79" id="路径-26" stroke="#DDDDDD" stroke-width="1.4" stroke-linecap="round"></path>
                <path d="M64,79 L124.5,79" id="路径-27" stroke="#DDDDDD" stroke-width="1.4" stroke-linecap="round"></path>
                <path d="M38.5,85 L51,85" id="路径-26" stroke="#DDDDDD" stroke-width="1.4" stroke-linecap="round"></path>
                <path d="M55,85 L90.5,85" id="路径-27" stroke="#DDDDDD" stroke-width="1.4" stroke-linecap="round"></path>
                <g id="分组" transform="translate(41.000000, 12.000000)">
                    <path d="M15.621283,41.9632302 C15.2599245,41.6616453 -3.92739623,56.1431547 4.99245283,60.6818717 C9.11275472,62.7780226 10.7415849,57.9350038 11.378717,54.1923623 C11.8229434,51.5949283 13.2629434,49.0898717 15.3169811,47.3360604 L19.0039245,44.1870792" id="Fill-1" fill="#FFFFFF"></path>
                    <path d="M6.85942642,61.8696 C6.17474717,61.8696 5.44795472,61.6753358 4.68448302,61.2868075 C2.37640755,60.1130717 1.92538868,58.3701283 1.95255849,57.1162415 C2.08840755,50.9351094 14.0322566,41.9133736 15.2209358,41.3726943 L15.6094642,41.1960906 L16.0564075,41.4419774 C16.3444075,41.6824302 16.3838038,42.1103547 16.1419925,42.3983547 C16.0346717,42.5287698 15.8879547,42.6075623 15.7330868,42.6333736 C14.4751245,43.2827321 3.51346415,51.7651472 3.31240755,57.0863547 C3.26350189,58.3918642 3.91421887,59.3699774 5.30123774,60.0763925 C6.27663396,60.5722415 7.09308679,60.6415245 7.79542642,60.288317 C9.10365283,59.632166 10.1388226,57.4259774 10.7093887,54.0786566 C11.1794264,51.3236377 12.6982189,48.6786566 14.8758792,46.818883 L18.5628226,43.6712604 C18.8467472,43.4280906 19.2773887,43.4606943 19.5205585,43.7459774 C19.7650868,44.0312604 19.7311245,44.4605434 19.4458415,44.7037132 L15.7575396,47.8526943 C13.8189736,49.5073358 12.465917,51.8602415 12.0488604,54.306883 C11.385917,58.200317 10.1592,60.6225057 8.40674717,61.5028075 C7.91904906,61.7473358 7.40282264,61.8696 6.85942642,61.8696" id="Fill-3" fill="#BBBBBB"></path>
                    <path d="M32.9905358,42.0753057 C36.1952151,43.2232302 51.5570264,55.4482868 44.9683472,59.2588528 C41.3506868,61.3509283 39.1675925,57.7454943 38.0672151,53.7270792 C37.0306868,49.9423245 30.7870642,45.9130415 30.7870642,45.9130415" id="Fill-5" fill="#FFFFFF"></path>
                    <path d="M42.9443321,60.5543094 C42.4729358,60.5543094 42.0124075,60.4632906 41.5668226,60.2798943 C39.3225962,59.3588377 38.0687094,56.3063094 37.4125585,53.9058566 C36.4575396,50.4172528 30.4788226,46.5224604 30.4190491,46.4844226 C30.1038792,46.2806491 30.0128604,45.8608755 30.216634,45.5457057 C30.4204075,45.2291774 30.8401811,45.1381585 31.1553509,45.3432906 C31.4188981,45.5131019 37.629917,49.5573283 38.7235019,53.5485736 C39.5372377,56.5236679 40.7313509,58.4676679 42.0830491,59.0232906 C42.8438038,59.3343849 43.6765585,59.2216302 44.6288604,58.6714415 C45.5906717,58.1144604 45.9955019,57.374083 45.901766,56.3402717 C45.4819925,51.6969509 35.4386717,43.6737057 32.7610868,42.7146113 C32.4078792,42.5882717 32.224483,42.1997434 32.3508226,41.8465358 C32.4771623,41.4919698 32.8670491,41.3085736 33.2188981,41.4362717 C35.7918792,42.3573283 46.7521811,50.6658566 47.2548226,56.2180075 C47.3947472,57.7748377 46.7222943,59.0287245 45.3094642,59.8465358 C44.4943698,60.3179321 43.7037283,60.5543094 42.9443321,60.5543094" id="Fill-7" fill="#BBBBBB"></path>
                    <path d="M35.1191547,47.4270792 C35.1150792,53.6122868 30.0900226,70.4901736 23.9048151,70.4860981 C17.7196075,70.4820226 12.7176453,53.5973434 12.7217208,47.4121358 C12.7257962,41.2269283 17.7413434,39.5165887 23.9251925,39.5206642 C30.1104,39.5247396 35.1232302,41.2418717 35.1191547,47.4270792" id="Fill-9" fill="#FFFFFF"></path>
                    <path d="M23.9035925,40.1995019 C16.7416302,40.1995019 13.4038189,42.4912755 13.4011019,47.4130868 C13.3970264,53.6825208 18.3867623,69.8037283 23.9049509,69.8064453 L23.9063094,69.8064453 C26.2728,69.8064453 28.9300075,66.604483 31.2014038,61.0224453 C33.3247245,55.7976906 34.4373283,50.2278792 34.4400453,47.4266717 L35.1192906,47.4266717 L34.4400453,47.4266717 C34.4427623,42.5007849 31.102234,40.2035774 23.9253283,40.1995019 L23.9035925,40.1995019 Z M23.9063094,71.1649358 L23.9035925,71.1649358 C16.9549132,71.1608604 12.0385358,53.1513509 12.0426113,47.4117283 C12.0439698,44.2858415 13.2611774,41.980483 15.6602717,40.5608604 C17.6137811,39.4034264 20.3103849,38.8410113 23.9035925,38.8410113 L23.9266868,38.8410113 C31.8072906,38.8464453 35.8026113,41.7345962 35.7985358,47.4280302 C35.7958189,50.8473509 34.3924981,56.7798792 32.459366,61.5332377 C30.6715925,65.9279547 27.7386113,71.1649358 23.9063094,71.1649358 Z" id="Fill-11" fill="#BBBBBB"></path>
                    <path d="M23.920166,62.4487245 C20.1951849,62.4487245 17.5529208,52.7776302 17.5529208,49.6952151 L18.232166,49.6952151 C18.232166,53.0764981 20.9369208,61.7694792 23.920166,61.7694792 C26.9034113,61.7694792 29.608166,53.0764981 29.608166,49.6952151 L30.2874113,49.6952151 C30.2874113,52.7776302 27.6451472,62.4487245 23.920166,62.4487245" id="Fill-13" fill="#BBBBBB"></path>
                    <g transform="translate(0.000000, 3.240951)">
                        <mask id="mask-2" fill="white">
                            <use xlink:href="#path-1"></use>
                        </mask>
                        <g id="Clip-16"></g>
                        <path d="M23.5738868,33.4382943 L23.5154717,33.4382943 C14.6784906,33.4328604 8.50550943,31.9480302 4.64467925,28.9009358 C1.51607547,26.4298415 -0.00271698113,23.0241057 0,18.4881057 L0.00271698113,14.7916528 C0.0081509434,6.17746415 5.5874717,1.39286038 17.058566,0.164784906 L17.3479245,2.86546415 C4.24256604,4.26878491 2.72241509,10.3453132 2.71969811,14.7930113 L2.71698113,18.4894642 C2.71426415,22.1899925 3.86218868,24.8213887 6.32784906,26.7681057 C9.64392453,29.385917 15.4270189,30.7158792 23.5168302,30.7213132 L23.5738868,30.7213132 C42.6633962,30.7213132 45.1168302,24.1502943 45.1209057,18.4242566 L45.1236226,14.9044075 C45.1263396,10.1659925 43.5043019,4.52689811 30.8227925,2.97006792 L31.1542642,0.273464151 C42.3876226,1.65369057 47.8460377,6.43965283 47.8406038,14.905766 L47.8378868,18.4256151 C47.8310943,28.665917 40.1189434,33.4382943 23.5738868,33.4382943" id="Fill-15" fill="#BBBBBB" mask="url(#mask-2)"></path>
                    </g>
                    <path d="M30.9885283,4.86271698 C43.9634717,6.45622642 46.4861887,12.3860377 46.4821132,18.1460377 L46.4793962,21.6658868 C46.4753208,28.478717 43.0220377,35.3336604 23.5168302,35.3200755 C4.98430189,35.3092075 1.35441509,28.5412075 1.35849057,21.7297358 L1.36120755,18.033283 C1.36528302,12.0939623 4.14339623,6.15464151 17.2039245,4.75539623" id="Fill-17" fill="#FFFFFF"></path>
                    <path d="M32.0697509,8.15624151 L29.3527698,8.15488302 L29.3554868,4.58069434 C29.2114868,3.50748679 28.7971472,2.99805283 26.8979774,2.83639245 C25.9837132,2.7576 24.9417509,2.71820377 23.8033358,2.71684528 L23.7748075,2.71684528 C22.7586566,2.71684528 21.8240151,2.74809057 20.9939774,2.80922264 C18.4875623,2.99669434 18.4875623,3.88243019 18.4875623,4.46929811 L18.4848453,8.14809057 L15.7678642,8.14673208 L15.7705811,4.46793962 C15.7705811,2.97631698 16.4253736,0.426430189 20.7915623,0.100392453 C21.688166,0.0338264151 22.6920906,-0.000135849057 23.7748075,-0.000135849057 C25.0327698,0.0107320755 26.1304302,0.0433358491 27.1289208,0.128920755 C28.2360906,0.224015094 31.6037887,0.510656604 32.0629585,4.33480755 L32.0724679,4.49646792 L32.0697509,8.15624151 Z" id="Fill-19" fill="#BBBBBB"></path>
                    <path d="M17.1263547,8.14686792 L17.1290717,4.46807547 C17.1304302,2.34203774 18.7565434,1.61388679 20.8920906,1.4549434 C21.6936,1.39516981 22.6554113,1.35713208 23.8046943,1.35849057 C25.0816755,1.35984906 26.1412981,1.40875472 27.0134491,1.48211321 C29.1245434,1.66279245 30.4572226,2.35018868 30.7139774,4.49524528 L30.7112604,8.15501887" id="Fill-21" fill="#FFFFFF"></path>
                    <path d="M18.1207698,8.12635472 L18.1221283,4.98552453 C18.1234868,3.17058113 19.5118642,2.55110943 21.336317,2.41390189 C22.0196377,2.36363774 22.840166,2.33103396 23.8223547,2.33239245 C24.9118642,2.33239245 25.8166189,2.37450566 26.5610717,2.43835472 C28.3624302,2.59050566 29.4994868,3.17873208 29.7195623,5.00997736 L29.7182038,8.13450566" id="Fill-23" fill="url(#linearGradient-3)"></path>
                    <path d="M29.4530264,10.9819019 C27.7494792,10.7699774 25.8149887,10.6545057 23.6210264,10.6531472 C9.11370566,10.6436377 6.26495094,16.0286943 6.26087547,21.4137509 L6.25951698,24.3412981 C6.25544151,29.7358642 9.09740377,35.0964679 23.6047245,35.1059774 C38.8728,35.1168453 41.5761962,29.6869585 41.5802717,24.2896755 L41.5816302,21.5034113 C41.5843472,16.9402415 39.6104604,12.2439396 29.4530264,10.9819019" id="Fill-25" fill="#BBBBBB"></path>
                    <path d="M23.920166,26.8739321 C21.483034,26.8739321 19.5064302,24.8973283 19.5064302,22.4601962 C19.5064302,20.0230642 21.483034,18.0478189 23.920166,18.0478189 C26.3572981,18.0478189 28.3339019,20.0230642 28.3339019,22.4601962 C28.3339019,24.8973283 26.3572981,26.8739321 23.920166,26.8739321" id="Fill-27" fill="#FFFFFF"></path>
                    <path d="M24.6796981,49.1649962 L22.9897358,49.1649962 C22.7954717,49.1649962 22.6392453,49.0087698 22.6392453,48.8145057 L22.6392453,44.7974491 C22.6392453,44.6045434 22.7954717,44.4469585 22.9897358,44.4469585 L24.6796981,44.4469585 C24.8739623,44.4469585 25.0301887,44.6045434 25.0301887,44.7974491 L25.0301887,48.8145057 C25.0301887,49.0087698 24.8739623,49.1649962 24.6796981,49.1649962" id="Fill-29" fill="#BBBBBB"></path>
                    <path d="M24.8893132,45.5683925 L30.612634,44.127034 C30.9454642,44.0428075 31.2660679,44.3009208 31.249766,44.6405434 L31.0296906,49.3327698 C31.0038792,49.8707321 30.4523321,50.2225811 29.9469736,50.0242415 L24.7453132,47.9362415" id="Fill-31" fill="#BBBBBB"></path>
                    <path d="M22.9510189,45.5478792 L17.2276981,44.1065208 C16.8948679,44.0222943 16.5742642,44.2804075 16.590566,44.6186717 L16.8106415,49.3122566 C16.8364528,49.8488604 17.388,50.2020679 17.8933585,50.0037283 L22.9510189,48.0244075" id="Fill-33" fill="#BBBBBB"></path>
                    <path d="M10.6065509,57.3297962 C10.6065509,57.3297962 9.49802264,54.3750792 6.25938113,55.0027019" id="Fill-35" fill="#FFFFFF"></path>
                    <path d="M10.6065509,58.0090415 C10.3321358,58.0090415 10.0740226,57.8419472 9.97213585,57.5716075 C9.93409811,57.4724377 9.00489057,55.1725132 6.38843774,55.6697208 C6.01213585,55.7403623 5.66300377,55.4999094 5.59236226,55.1317585 C5.52036226,54.7636075 5.76217358,54.407683 6.13032453,54.335683 C9.14073962,53.7542491 10.7899472,55.8843623 11.2423245,57.0907019 C11.3740981,57.4425509 11.1961358,57.8337962 10.8456453,57.9655698 C10.7668528,57.9954566 10.6867019,58.0090415 10.6065509,58.0090415" id="Fill-37" fill="#BBBBBB"></path>
                </g>
            </g>
        </g>
    </g>
</svg>