<?xml version="1.0" encoding="UTF-8"?>
<svg width="105px" height="74px" viewBox="0 0 105 74" version="1.1" xmlns="http://www.w3.org/2000/svg" xmlns:xlink="http://www.w3.org/1999/xlink">
    <!-- Generator: Sketch 52.2 (67145) - http://www.bohemiancoding.com/sketch -->
    <title>分组 12</title>
    <desc>Created with Sketch.</desc>
    <defs>
        <polygon id="path-1" points="0 0.164784906 47.8406038 0.164784906 47.8406038 33.4382943 0 33.4382943"></polygon>
        <linearGradient x1="-1.11022302e-14%" y1="50%" x2="100%" y2="50%" id="linearGradient-3">
            <stop stop-color="#F2837C" offset="0%"></stop>
            <stop stop-color="#E14C46" offset="100%"></stop>
        </linearGradient>
    </defs>
    <g id="20190125" stroke="none" stroke-width="1" fill="none" fill-rule="evenodd">
        <g id="新手引导2" transform="translate(-1052.000000, -86.000000)">
            <g id="分组-21" transform="translate(1034.000000, 54.000000)">
                <g id="分组-12" transform="translate(18.000000, 32.000000)">
                    <g id="分组-19" transform="translate(1.000000, 21.000000)">
                        <g id="分组-20" transform="translate(7.000000, 0.000000)">
                            <path d="M4.7,41.3 L77.3,41.3 L77.3,4 C77.3,2.17746033 75.8225397,0.7 74,0.7 L8,0.7 C6.17746033,0.7 4.7,2.17746033 4.7,4 L4.7,41.3 Z" id="矩形" stroke="#DDDDDD" stroke-width="1.4" fill="#FAFAFA"></path>
                            <rect id="矩形" fill="#FFFFFF" x="9" y="5" width="11" height="32"></rect>
                            <polygon id="矩形" fill="#FFFFFF" points="23 5 73 5 73 11 23 11"></polygon>
                            <polygon id="矩形" fill="#FFFFFF" points="23 14 73 14 73 37 23 37"></polygon>
                            <path d="M1,40.7 C0.834314575,40.7 0.7,40.8343146 0.7,41 L0.7,43.5 C0.7,45.0463973 1.9536027,46.3 3.5,46.3 L78.5,46.3 C80.0463973,46.3 81.3,45.0463973 81.3,43.5 L81.3,41 C81.3,40.8343146 81.1656854,40.7 81,40.7 L1,40.7 Z" id="矩形" stroke="#DDDDDD" stroke-width="1.4" fill="#FFFFFF"></path>
                        </g>
                        <path d="M0,46.5 L35,46.5" id="路径-25" stroke="#DDDDDD" stroke-width="1.4" stroke-linecap="round"></path>
                        <path d="M62,46.5 L102.5,46.5" id="路径-27" stroke="#DDDDDD" stroke-width="1.4" stroke-linecap="round"></path>
                        <path d="M20.5,52 L33,52" id="路径-26" stroke="#DDDDDD" stroke-width="1.4" stroke-linecap="round"></path>
                        <path d="M37,52 L72.5,52" id="路径-27" stroke="#DDDDDD" stroke-width="1.4" stroke-linecap="round"></path>
                    </g>
                    <g id="分组" transform="translate(55.000000, 41.000000)">
                        <path d="M1,1 C1,1 9.25311959,2.67547571 9.88797495,7.13632031 C10.6121975,12.2203067 7.58647921,15.7214128 7.62594006,16.7649877 C7.6654009,17.8073112 9.89842047,18.3128319 9.44462075,19.5766336 C8.99198165,20.839184 7.07464885,21.6888091 5.33372923,20.241068 C3.59280962,18.7945781 3.19123749,16.4621758 3.48371199,15.3184978 C4.11856734,12.8309357 7.12687644,11.1304342 6.10785815,8.80804215 C5.24552264,6.83976486 2.67244344,6.14655086 2.67244344,6.14655086" id="Fill-1" fill="#FFFFFF"></path>
                        <g fill="#BBBBBB" id="Fill-3">
                            <path d="M7.21624444,22 C6.38513333,22 5.54057778,21.6842353 4.80113333,21.0824706 C2.7148,19.3781176 2.27968889,16.6785882 2.63657778,15.3068235 C2.9348,14.1615294 3.6278,13.2207059 4.2988,12.3109412 C5.30713333,10.9456471 5.90113333,10.0565882 5.43791111,9.02129412 C4.66668889,7.29364706 2.24791111,6.62588235 2.22346667,6.61941176 C1.89591111,6.53141176 1.69791111,6.18070588 1.78102222,5.83388235 C1.86168889,5.48835294 2.19168889,5.27611765 2.52046667,5.36541176 C2.64268889,5.39647059 5.52224444,6.182 6.5428,8.46741176 C7.35068889,10.2765882 6.24213333,11.7816471 5.26191111,13.1081176 C4.66546667,13.9169412 4.04824444,14.7542353 3.81602222,15.6497647 C3.59113333,16.5103529 3.8698,18.6857647 5.54913333,20.0575294 C6.51102222,20.8430588 7.37024444,20.7498824 7.80046667,20.6230588 C8.33824444,20.4625882 8.77213333,20.0898824 8.93346667,19.6485882 C9.01291111,19.4350588 8.85157778,19.2331765 8.18546667,18.7103529 C7.63424444,18.2768235 7.00846667,17.7837647 6.97791111,16.9995294 C6.95957778,16.5103529 7.23824444,15.9474118 7.65991111,15.0958824 C8.48857778,13.4225882 9.8758,10.6234118 9.36735556,7.11376471 C8.87235556,3.70635294 2.79791111,1.76517647 0.497688889,1.30447059 C0.165244444,1.23847059 -0.0510888889,0.900705882 0.0100222222,0.548705882 C0.0723555556,0.196705882 0.395022222,-0.0310588235 0.7238,0.0336470588 C1.09657778,0.107411765 9.84891111,1.90882353 10.5749111,6.91835294 C11.1456889,10.8472941 9.64113333,13.8832941 8.7428,15.6963529 C8.50568889,16.1764706 8.20868889,16.7730588 8.20013333,16.9555294 C8.20624444,17.1134118 8.64991111,17.4628235 8.91513333,17.6711765 C9.54946667,18.1707059 10.5089111,18.9251765 10.0750222,20.1144706 C9.77191111,20.9427059 9.04468889,21.5975294 8.12802222,21.868 C7.8298,21.9572941 7.52424444,22 7.21624444,22"></path>
                        </g>
                    </g>
                    <g id="分组-11" transform="translate(14.000000, 0.000000)">
                        <g id="分组" transform="translate(10.000000, 0.000000)">
                            <path d="M35.1191547,47.4270792 C35.1150792,53.6122868 30.0900226,70.4901736 23.9048151,70.4860981 C17.7196075,70.4820226 12.7176453,53.5973434 12.7217208,47.4121358 C12.7257962,41.2269283 17.7413434,39.5165887 23.9251925,39.5206642 C30.1104,39.5247396 35.1232302,41.2418717 35.1191547,47.4270792" id="Fill-9" fill="#FFFFFF"></path>
                            <path d="M23.9035925,40.1995019 C16.7416302,40.1995019 13.4038189,42.4912755 13.4011019,47.4130868 C13.3970264,53.6825208 18.3867623,69.8037283 23.9049509,69.8064453 L23.9063094,69.8064453 C26.2728,69.8064453 28.9300075,66.604483 31.2014038,61.0224453 C33.3247245,55.7976906 34.4373283,50.2278792 34.4400453,47.4266717 L35.1192906,47.4266717 L34.4400453,47.4266717 C34.4427623,42.5007849 31.102234,40.2035774 23.9253283,40.1995019 L23.9035925,40.1995019 Z M23.9063094,71.1649358 L23.9035925,71.1649358 C16.9549132,71.1608604 12.0385358,53.1513509 12.0426113,47.4117283 C12.0439698,44.2858415 13.2611774,41.980483 15.6602717,40.5608604 C17.6137811,39.4034264 20.3103849,38.8410113 23.9035925,38.8410113 L23.9266868,38.8410113 C31.8072906,38.8464453 35.8026113,41.7345962 35.7985358,47.4280302 C35.7958189,50.8473509 34.3924981,56.7798792 32.459366,61.5332377 C30.6715925,65.9279547 27.7386113,71.1649358 23.9063094,71.1649358 Z" id="Fill-11" fill="#BBBBBB"></path>
                            <path d="M23.920166,62.4487245 C20.1951849,62.4487245 17.5529208,52.7776302 17.5529208,49.6952151 L18.232166,49.6952151 C18.232166,53.0764981 20.9369208,61.7694792 23.920166,61.7694792 C26.9034113,61.7694792 29.608166,53.0764981 29.608166,49.6952151 L30.2874113,49.6952151 C30.2874113,52.7776302 27.6451472,62.4487245 23.920166,62.4487245" id="Fill-13" fill="#BBBBBB"></path>
                            <g transform="translate(0.000000, 3.240951)">
                                <mask id="mask-2" fill="white">
                                    <use xlink:href="#path-1"></use>
                                </mask>
                                <g id="Clip-16"></g>
                                <path d="M23.5738868,33.4382943 L23.5154717,33.4382943 C14.6784906,33.4328604 8.50550943,31.9480302 4.64467925,28.9009358 C1.51607547,26.4298415 -0.00271698113,23.0241057 0,18.4881057 L0.00271698113,14.7916528 C0.0081509434,6.17746415 5.5874717,1.39286038 17.058566,0.164784906 L17.3479245,2.86546415 C4.24256604,4.26878491 2.72241509,10.3453132 2.71969811,14.7930113 L2.71698113,18.4894642 C2.71426415,22.1899925 3.86218868,24.8213887 6.32784906,26.7681057 C9.64392453,29.385917 15.4270189,30.7158792 23.5168302,30.7213132 L23.5738868,30.7213132 C42.6633962,30.7213132 45.1168302,24.1502943 45.1209057,18.4242566 L45.1236226,14.9044075 C45.1263396,10.1659925 43.5043019,4.52689811 30.8227925,2.97006792 L31.1542642,0.273464151 C42.3876226,1.65369057 47.8460377,6.43965283 47.8406038,14.905766 L47.8378868,18.4256151 C47.8310943,28.665917 40.1189434,33.4382943 23.5738868,33.4382943" id="Fill-15" fill="#BBBBBB" mask="url(#mask-2)"></path>
                            </g>
                            <path d="M30.9885283,4.86271698 C43.9634717,6.45622642 46.4861887,12.3860377 46.4821132,18.1460377 L46.4793962,21.6658868 C46.4753208,28.478717 43.0220377,35.3336604 23.5168302,35.3200755 C4.98430189,35.3092075 1.35441509,28.5412075 1.35849057,21.7297358 L1.36120755,18.033283 C1.36528302,12.0939623 4.14339623,6.15464151 17.2039245,4.75539623" id="Fill-17" fill="#FFFFFF"></path>
                            <path d="M32.0697509,8.15624151 L29.3527698,8.15488302 L29.3554868,4.58069434 C29.2114868,3.50748679 28.7971472,2.99805283 26.8979774,2.83639245 C25.9837132,2.7576 24.9417509,2.71820377 23.8033358,2.71684528 L23.7748075,2.71684528 C22.7586566,2.71684528 21.8240151,2.74809057 20.9939774,2.80922264 C18.4875623,2.99669434 18.4875623,3.88243019 18.4875623,4.46929811 L18.4848453,8.14809057 L15.7678642,8.14673208 L15.7705811,4.46793962 C15.7705811,2.97631698 16.4253736,0.426430189 20.7915623,0.100392453 C21.688166,0.0338264151 22.6920906,-0.000135849057 23.7748075,-0.000135849057 C25.0327698,0.0107320755 26.1304302,0.0433358491 27.1289208,0.128920755 C28.2360906,0.224015094 31.6037887,0.510656604 32.0629585,4.33480755 L32.0724679,4.49646792 L32.0697509,8.15624151 Z" id="Fill-19" fill="#BBBBBB"></path>
                            <path d="M17.1263547,8.14686792 L17.1290717,4.46807547 C17.1304302,2.34203774 18.7565434,1.61388679 20.8920906,1.4549434 C21.6936,1.39516981 22.6554113,1.35713208 23.8046943,1.35849057 C25.0816755,1.35984906 26.1412981,1.40875472 27.0134491,1.48211321 C29.1245434,1.66279245 30.4572226,2.35018868 30.7139774,4.49524528 L30.7112604,8.15501887" id="Fill-21" fill="#FFFFFF"></path>
                            <path d="M18.1207698,8.12635472 L18.1221283,4.98552453 C18.1234868,3.17058113 19.5118642,2.55110943 21.336317,2.41390189 C22.0196377,2.36363774 22.840166,2.33103396 23.8223547,2.33239245 C24.9118642,2.33239245 25.8166189,2.37450566 26.5610717,2.43835472 C28.3624302,2.59050566 29.4994868,3.17873208 29.7195623,5.00997736 L29.7182038,8.13450566" id="Fill-23" fill="url(#linearGradient-3)"></path>
                            <path d="M29.4530264,10.9819019 C27.7494792,10.7699774 25.8149887,10.6545057 23.6210264,10.6531472 C9.11370566,10.6436377 6.26495094,16.0286943 6.26087547,21.4137509 L6.25951698,24.3412981 C6.25544151,29.7358642 9.09740377,35.0964679 23.6047245,35.1059774 C38.8728,35.1168453 41.5761962,29.6869585 41.5802717,24.2896755 L41.5816302,21.5034113 C41.5843472,16.9402415 39.6104604,12.2439396 29.4530264,10.9819019" id="Fill-25" fill="#BBBBBB"></path>
                            <path d="M23.920166,27.8739321 C21.483034,27.8739321 19.5064302,25.8973283 19.5064302,23.4601962 C19.5064302,21.0230642 21.483034,19.0478189 23.920166,19.0478189 C26.3572981,19.0478189 28.3339019,21.0230642 28.3339019,23.4601962 C28.3339019,25.8973283 26.3572981,27.8739321 23.920166,27.8739321" id="Fill-27" fill="#FFFFFF"></path>
                            <path d="M24.6796981,49.1649962 L22.9897358,49.1649962 C22.7954717,49.1649962 22.6392453,49.0087698 22.6392453,48.8145057 L22.6392453,44.7974491 C22.6392453,44.6045434 22.7954717,44.4469585 22.9897358,44.4469585 L24.6796981,44.4469585 C24.8739623,44.4469585 25.0301887,44.6045434 25.0301887,44.7974491 L25.0301887,48.8145057 C25.0301887,49.0087698 24.8739623,49.1649962 24.6796981,49.1649962" id="Fill-29" fill="#BBBBBB"></path>
                            <path d="M24.8893132,45.5683925 L30.612634,44.127034 C30.9454642,44.0428075 31.2660679,44.3009208 31.249766,44.6405434 L31.0296906,49.3327698 C31.0038792,49.8707321 30.4523321,50.2225811 29.9469736,50.0242415 L24.7453132,47.9362415" id="Fill-31" fill="#BBBBBB"></path>
                            <path d="M22.9510189,45.5478792 L17.2276981,44.1065208 C16.8948679,44.0222943 16.5742642,44.2804075 16.590566,44.6186717 L16.8106415,49.3122566 C16.8364528,49.8488604 17.388,50.2020679 17.8933585,50.0037283 L22.9510189,48.0244075" id="Fill-33" fill="#BBBBBB"></path>
                        </g>
                        <g id="分组" transform="translate(0.000000, 11.000000)">
                            <path d="M9.39971765,24.5712941 L9.39971765,18.9242353 L9.39971765,24.5712941 Z" id="Fill-1" fill="#FFFFFF"></path>
                            <g transform="translate(0.000000, 0.570918)">
                                <path d="M19.6409896,32.0832941 C19.6409896,32.0832941 13.9532349,32.3719049 11.8778864,34.7754173 C8.68905357,38.4697925 11.6396264,43.6174726 16.1320701,42.1649562 C21.1291115,40.5499977 22.0869647,39.7369986 22.0869647,39.7369986" id="Fill-2" stroke="#BBBBBB" stroke-width="1.2" fill="#FFFFFF"></path>
                                <path d="M21.0353882,42.8020706 L22.7906824,47.7451294 C23.2876235,49.2161882 24.8772706,49.9992471 26.3295059,49.4881882 C27.7751529,48.9780706 28.5356235,47.3780706 28.0255059,45.9192471 L26.2993882,41.2877176" id="Fill-6" fill="#DDDDDD"></path>
                                <g>
                                    <path d="M26.8450824,9.66691765 C29.4220235,16.9177412 25.6949647,24.8960941 18.5213176,27.4899765 C11.3467294,30.0829176 3.44178824,26.3088 0.863905882,19.0589176 C-1.71397647,11.8080941 2.01402353,3.8288 9.18861176,1.23585882 C16.3613176,-1.35708235 24.2672,2.41703529 26.8450824,9.66691765" id="Fill-8" fill="#FFFFFF"></path>
                                    <path d="M26.8450824,9.66691765 C29.4220235,16.9177412 25.6949647,24.8960941 18.5213176,27.4899765 C11.3467294,30.0829176 3.44178824,26.3088 0.863905882,19.0589176 C-1.71397647,11.8080941 2.01402353,3.8288 9.18861176,1.23585882 C16.3613176,-1.35708235 24.2672,2.41703529 26.8450824,9.66691765" id="Stroke-10" stroke="#DDDDDD" stroke-width="2.1"></path>
                                </g>
                                <path d="M6.67228235,17.3907765 C5.99463529,15.4886588 6.09251765,13.4378353 6.94616471,11.6110118 C7.79792941,9.78512941 9.30381176,8.40630588 11.1842824,7.72583529 C11.5146353,7.61195294 11.8666353,7.78136471 11.9824,8.10701176 C12.0981647,8.43642353 11.9306353,8.79595294 11.6059294,8.91265882 C10.0379294,9.48018824 8.78334118,10.6284235 8.07369412,12.1493647 C7.36216471,13.6712471 7.28122353,15.3813647 7.84498824,16.9653647 C7.96169412,17.2928941 7.79322353,17.6533647 7.4704,17.7710118 C7.41392941,17.7907765 7.3584,17.8020706 7.30287059,17.8067765 C7.02992941,17.8256 6.76922353,17.6618353 6.67228235,17.3907765" id="Fill-11" fill="#DDDDDD"></path>
                                <path d="M18.3772235,20.6375529 C18.1767529,20.6516706 17.9725176,20.5669647 17.8398118,20.3937882 C17.6289882,20.1189647 17.6779294,19.7227294 17.9518118,19.5100235 C19.2732235,18.4766118 20.1155765,16.9820235 20.3188706,15.3029647 C20.3602824,14.9566118 20.6736941,14.7156706 21.0144,14.7542588 C21.3541647,14.7984941 21.5988706,15.1119059 21.5574588,15.4573176 C21.3118118,17.4733176 20.3028706,19.2662588 18.7141647,20.5076706 C18.6134588,20.5867294 18.4967529,20.6290824 18.3772235,20.6375529" id="Fill-13" fill="#DDDDDD"></path>
                                <path d="M21.2302118,33.9141647 C21.2302118,33.9141647 22.0895059,33.9395765 27.8353882,32.9588706 C32.3313882,32.1908706 30.3812706,40.4101647 28.9751529,44.2473412 C28.4273882,45.7447529 27.0993882,46.8205176 25.5276235,46.9965176 C13.4909176,48.3480471 15.9671529,40.1259294 15.9671529,40.1259294 C13.6556235,37.9188706 15.4090353,33.8275765 15.4090353,33.8275765 C11.3883294,30.8656941 15.9238588,28.9466353 15.9238588,28.9466353" id="Fill-15" fill="#FFFFFF"></path>
                                <path d="M24.5077647,47.7230118 C20.5811765,47.9978353 17.8357647,47.2176 16.3411765,45.3992471 C14.8136471,43.5441882 15.0950588,41.2110118 15.2795294,40.3131294 C13.4771765,38.2651294 14.2668235,35.2034824 14.6621176,34.0411294 C13.5364706,33.1074824 13.0244706,32.1390118 13.1374118,31.1564235 C13.3407059,29.4058353 15.4442353,28.4684235 15.6823529,28.3667765 C16.0004706,28.2368941 16.3637647,28.3818353 16.4983529,28.7037176 C16.632,29.0237176 16.4842353,29.3926588 16.1689412,29.5281882 C15.704,29.7267765 14.4748235,30.4336 14.376,31.3060706 C14.2922353,32.0552471 15.0912941,32.8147765 15.7764706,33.3183059 L16.1774118,33.6166588 L15.9816471,34.0787765 C15.9665882,34.1145412 14.4334118,37.7936 16.3967059,39.6674824 L16.6752941,39.9338353 L16.5661176,40.3074824 C16.5576471,40.3328941 15.8423529,42.8326588 17.3068235,44.6039529 C18.6348235,46.2096 21.4461176,46.8166588 25.4592941,46.3705412 C26.7929412,46.2218353 27.9167059,45.3220706 28.3910588,44.0270118 C29.7802353,40.2350118 30.6178824,35.4265412 29.4338824,33.9837176 C29.2324706,33.7361882 28.8682353,33.4199529 27.9392941,33.5808941 C22.2969412,34.5437176 21.3105882,34.5484235 21.2117647,34.5437176 C20.8672941,34.5324235 20.5962353,34.2434824 20.6056471,33.8961882 C20.6169412,33.5498353 20.9209412,33.2825412 21.2362353,33.2853647 C21.3002353,33.2797176 22.3167059,33.2627765 27.7312941,32.3376 C29.1524706,32.1004235 29.9684706,32.6623059 30.3948235,33.1808941 C32.6122353,35.8811294 29.88,43.5950118 29.5618824,44.4656 C28.9209412,46.2114824 27.4028235,47.4208941 25.5976471,47.6232471 C25.2258824,47.6646588 24.8616471,47.6985412 24.5077647,47.7230118" id="Fill-17" fill="#BBBBBB"></path>
                                <path d="M15.9250824,28.9472941 C15.9250824,28.9472941 23.7641412,24.1802353 27.2389647,27.5242353 C29.3952,29.6004706 29.3735529,32.568 27.1335529,33.0969412 L20.1688471,34.3891765" id="Fill-19" fill="#FFFFFF"></path>
                                <path d="M20.2118588,35.0180706 C19.8993882,35.0397176 19.6142118,34.8223059 19.5558588,34.5041882 C19.4928,34.1616 19.7177412,33.8321882 20.0556235,33.7700706 L27.0212706,32.4768941 C27.5925647,32.3423059 27.9897412,31.9667765 28.1422118,31.3983059 C28.3680941,30.5540706 28.0452706,29.1696 26.8095059,27.9799529 C23.7158588,25.0048941 16.3219765,29.4425412 16.2476235,29.4867765 C15.9539765,29.6656 15.5699765,29.5714824 15.3911529,29.2731294 C15.2123294,28.9747765 15.3064471,28.5870118 15.6038588,28.4081882 C15.9389176,28.2011294 23.8946824,23.4359529 27.6688,27.0688941 C29.0824471,28.4288941 29.7403294,30.2594824 29.3459765,31.7296 C29.0739765,32.7413647 28.3191529,33.4651294 27.2772706,33.7088941 L20.2824471,35.0096 C20.2589176,35.0133647 20.2363294,35.0161882 20.2118588,35.0180706" id="Fill-21" fill="#BBBBBB"></path>
                                <path d="M29.9039059,39.5263059 C29.9039059,39.5263059 20.8356706,41.6326588 19.4916706,39.9771294" id="Fill-23" fill="#FFFFFF"></path>
                                <path d="M23.5665882,41.1899294 C21.5270588,41.3320471 19.6738824,41.1946353 19.0094118,40.3776941 C18.792,40.1075765 18.8305882,39.7104 19.0978824,39.4892235 C19.3623529,39.2727529 19.7548235,39.3085176 19.976,39.5786353 C20.6291765,40.3871059 25.5675294,39.8882824 29.7632941,38.9113412 C30.0936471,38.8388706 30.4324706,39.0459294 30.5115294,39.3847529 C30.5887059,39.7235765 30.3797647,40.0624 30.0437647,40.1395765 C28.8258824,40.4238118 26.0569412,41.0158118 23.5665882,41.1899294" id="Fill-25" fill="#BBBBBB"></path>
                            </g>
                        </g>
                    </g>
                </g>
            </g>
        </g>
    </g>
</svg>