<?xml version="1.0" encoding="UTF-8"?>
<svg width="117px" height="81px" viewBox="0 0 117 81" version="1.1" xmlns="http://www.w3.org/2000/svg" xmlns:xlink="http://www.w3.org/1999/xlink">
    <!-- Generator: Sketch 52.2 (67145) - http://www.bohemiancoding.com/sketch -->
    <title>分组 17</title>
    <desc>Created with Sketch.</desc>
    <defs>
        <polygon id="path-1" points="0.088889638 0.367066974 25.3115505 0.367066974 25.3115505 37.8181818 0.088889638 37.8181818"></polygon>
        <polygon id="path-3" points="0 0.126836364 43.5709091 0.126836364 43.5709091 35.4799909 0 35.4799909"></polygon>
        <polygon id="path-5" points="1.39229091 1.41236364 20.9399273 1.41236364 20.9399273 10.3499636 1.39229091 10.3499636"></polygon>
        <linearGradient x1="-1.11022302e-14%" y1="50%" x2="100%" y2="50%" id="linearGradient-7">
            <stop stop-color="#F2837C" offset="0%"></stop>
            <stop stop-color="#E14C46" offset="100%"></stop>
        </linearGradient>
    </defs>
    <g id="20190125" stroke="none" stroke-width="1" fill="none" fill-rule="evenodd">
        <g id="新手引导1" transform="translate(-1304.000000, -157.000000)">
            <g id="分组-17" transform="translate(1304.000000, 156.000000)">
                <path d="M15,74.5 L115.5,74.5" id="路径-27" stroke="#DDDDDD" stroke-width="1.4" stroke-linecap="round"></path>
                <path d="M1,74.5 L9.5,74.5" id="路径-27" stroke="#DDDDDD" stroke-width="1.4" stroke-linecap="round"></path>
                <path d="M60,81 L101.5,81" id="路径-27" stroke="#DDDDDD" stroke-width="1.4" stroke-linecap="round"></path>
                <path d="M44,81 L52.5,81" id="路径-27" stroke="#DDDDDD" stroke-width="1.4" stroke-linecap="round"></path>
                <rect id="矩形" fill="#FAFAFA" opacity="0.59749349" x="22" y="26" width="67" height="9"></rect>
                <path d="M24,25 L95,25 C96.6568542,25 98,26.3431458 98,28 L98,72.3376623 C98,73.9945166 96.6568542,75.3376623 95,75.3376623 L24,75.3376623 C22.3431458,75.3376623 21,73.9945166 21,72.3376623 L21,28 C21,26.3431458 22.3431458,25 24,25 Z M24.7662338,26.7662338 C23.6616643,26.7662338 22.7662338,27.6616643 22.7662338,28.7662338 L22.7662338,71.5714286 C22.7662338,72.6759981 23.6616643,73.5714286 24.7662338,73.5714286 L94.2337662,73.5714286 C95.3383357,73.5714286 96.2337662,72.6759981 96.2337662,71.5714286 L96.2337662,28.7662338 C96.2337662,27.6616643 95.3383357,26.7662338 94.2337662,26.7662338 L24.7662338,26.7662338 Z" id="合并形状" fill="#DDDDDD"></path>
                <rect id="矩形" fill="#DDDDDD" x="22" y="33" width="76" height="2"></rect>
                <rect id="矩形-copy-2" fill="#FAFAFA" x="58" y="39" width="11" height="11" rx="1"></rect>
                <rect id="矩形-copy-3" fill="#FAFAFA" x="58" y="54" width="11" height="11" rx="1"></rect>
                <rect id="矩形-copy-2" fill="#FAFAFA" x="27" y="54" width="27" height="11" rx="1"></rect>
                <g id="分组-5" transform="translate(23.010742, 49.031250) rotate(-15.000000) translate(-23.010742, -49.031250) translate(4.010742, 42.031250)">
                    <rect id="矩形" stroke="#DDDDDD" stroke-width="1.4" fill="#FFFFFF" x="0.7" y="0.7" width="36.6" height="12.6" rx="2"></rect>
                    <polygon id="矩形" fill="#EEEEEE" points="4 4 34 4 34 6 4 6"></polygon>
                    <polygon id="矩形" fill="#EEEEEE" points="4 8 20 8 20 10 4 10"></polygon>
                </g>
                <g id="分组-5" transform="translate(23.638933, 60.884121)">
                    <rect id="矩形" stroke="#DDDDDD" stroke-width="1.4" fill="#FFFFFF" x="0.7" y="0.7" width="26.6" height="12.6" rx="2"></rect>
                    <polygon id="矩形" fill="#EEEEEE" points="13 4 24 4 24 6 13 6"></polygon>
                    <polygon id="矩形" fill="#EEEEEE" points="13 8 24 8 24 10 13 10"></polygon>
                    <circle id="椭圆形" fill="#EEEEEE" cx="7" cy="7" r="3"></circle>
                </g>
                <path d="M64,13 L101,14 L101,78 L85,80.1172384 C80.6666667,78.7057461 77.350072,75.6666667 75.0502161,71 C69.6910215,70.8110913 63.5375766,65.6872039 63,58.7968252 C62.4057778,51.1803924 66.4225165,44.8943735 75.0502161,39.9387683 C66.350072,37.3129228 62,33 62,27 C62,21.7942958 62.6666667,17.1276291 64,13 Z" id="矩形" fill="#FFFFFF"></path>
                <g id="分组" transform="translate(65.000000, 0.000000)">
                    <path d="M9.37367273,45.9205818 C0.000581818182,50.4413091 1.34167273,60.2260364 4.87330909,64.4194909 C6.94312727,66.8762182 10.2173091,67.5467636 11.9074909,66.9940364 C13.8711273,66.3511273 14.0136727,65.4129455 13.0114909,63.6049455 C11.2471273,60.4165818 5.42021818,59.6834909 6.58676364,55.7213091 C7.93076364,51.1511273 11.3533091,50.2158545 11.3533091,50.2158545" id="Fill-1" fill="#FFFFFF"></path>
                    <path d="M10.6286545,67.9028364 C8.60538182,67.9028364 6.03229091,66.9239273 4.31738182,64.8875636 C2.37701818,62.5850182 0.832290909,58.3246545 1.75738182,53.9988364 C2.32465455,51.3472 4.0512,47.6802909 9.05774545,45.2657455 C9.42429091,45.0941091 9.85483636,45.2439273 10.0279273,45.6046545 C10.2039273,45.9668364 10.0512,46.4017455 9.68901818,46.5748364 C6.14574545,48.2839273 3.89556364,50.9573818 3.17992727,54.3028364 C2.35810909,58.1472 3.71810909,61.9188364 5.42865455,63.9508364 C7.32538182,66.1995636 10.2766545,66.7653818 11.6817455,66.3028364 C12.3508364,66.0846545 12.7581091,65.8330182 12.8584727,65.5755636 C12.9733818,65.2861091 12.8104727,64.7421091 12.3755636,63.9581091 C11.7646545,62.8526545 10.5079273,62.0264727 9.29483636,61.2293818 C7.29629091,59.9159273 5.03156364,58.4279273 5.88974545,55.5159273 C7.3312,50.6126545 11.0053818,49.5566545 11.1610182,49.5144727 C11.5450182,49.4112 11.9479273,49.6366545 12.0541091,50.0235636 C12.1602909,50.4119273 11.9319273,50.8119273 11.5450182,50.9181091 C11.4242909,50.9515636 8.48756364,51.8344727 7.28465455,55.9275636 C6.75810909,57.7137455 8.00901818,58.6432 10.0919273,60.0133818 C11.4548364,60.9079273 12.8628364,61.8344727 13.6482909,63.2526545 C14.1370182,64.1341091 14.5850182,65.1610182 14.2126545,66.1079273 C13.8504727,67.0301091 12.8526545,67.4504727 12.1341091,67.6861091 C11.6919273,67.8301091 11.1799273,67.9028364 10.6286545,67.9028364" id="Fill-3" fill="#BBBBBB"></path>
                    <path d="M7.71243636,53.2820364 C8.45861818,60.1911273 15.7008,79.3984 22.4178909,77.7620364 C28.8571636,76.1911273 32.0542545,56.9867636 31.3080727,50.0776727 C30.5618909,43.1685818 25.7575273,41.4958545 18.4804364,41.9322182 C11.5000727,42.3496727 6.96625455,46.3729455 7.71243636,53.2820364" id="Fill-5" fill="#FFFFFF"></path>
                    <g transform="translate(6.818182, 40.769745)">
                        <mask id="mask-2" fill="white">
                            <use xlink:href="#path-1"></use>
                        </mask>
                        <g id="Clip-8"></g>
                        <path d="M16.2245818,1.9584 C14.9140364,1.80712727 13.4129455,1.78530909 11.7053091,1.88858182 C8.06458182,2.10676364 5.21221818,3.3184 3.46094545,5.39112727 C1.92785455,7.20349091 1.30967273,9.57294545 1.61803636,12.4340364 C2.23621818,18.1591273 7.23403636,31.8362182 12.4471273,35.4958545 C13.5104,36.2405818 14.5111273,36.5067636 15.4260364,36.2856727 C17.9293091,35.6747636 20.3394909,31.5511273 22.0340364,24.9707636 C23.6151273,18.8413091 24.1024,12.4907636 23.7678545,9.38676364 C23.2762182,4.83258182 21.0144,2.51403636 16.2245818,1.9584 M14.2813091,37.7896727 C13.4071273,37.6878545 12.5140364,37.3198545 11.6122182,36.6856727 C5.9904,32.7394909 0.831127273,18.6944 0.172218182,12.5896727 C-0.176872727,9.36494545 0.575127273,6.5504 2.34821818,4.45294545 C4.36421818,2.06894545 7.57003636,0.679854545 11.6194909,0.436945455 C17.4667636,0.0864 24.3002182,0.770036364 25.2122182,9.23112727 C25.9002182,15.5860364 23.0420364,35.9264 15.7707636,37.6980364 C15.2820364,37.8173091 14.7845818,37.8478545 14.2813091,37.7896727" id="Fill-7" fill="#BBBBBB" mask="url(#mask-2)"></path>
                    </g>
                    <path d="M18.5604364,71.3773091 C18.1604364,71.3307636 17.7517091,71.1649455 17.3386182,70.8827636 C13.9713455,68.5729455 10.9284364,58.7111273 10.5444364,55.1664 C10.3931636,53.7584 10.5211636,52.4944 10.9240727,51.4107636 L11.6077091,51.6653091 C11.2426182,52.6413091 11.1291636,53.7933091 11.2688,55.0878545 C11.6862545,58.9598545 14.7829818,68.2485818 17.7488,70.2834909 C18.2448,70.6194909 18.6898909,70.7314909 19.1189818,70.6194909 C20.4920727,70.2514909 21.7778909,67.6129455 22.6477091,63.3802182 C23.4535273,59.4500364 23.6542545,55.3598545 23.4375273,53.3525818 C23.2862545,51.9329455 22.9080727,50.8551273 22.2840727,50.0565818 L22.8571636,49.6085818 C23.5684364,50.5162182 23.9931636,51.7162182 24.1618909,53.2754909 C24.5997091,57.3322182 23.2513455,70.2645818 19.3066182,71.3220364 C19.0608,71.3874909 18.8135273,71.4064 18.5604364,71.3773091" id="Fill-9" fill="#BBBBBB"></path>
                    <path d="M16.9277091,48.6648727 L22.1538909,47.0445091 C22.4535273,46.9252364 22.7793455,47.1696 22.8026182,47.5317818 L23.1051636,52.5514182 C23.1400727,53.1245091 22.6629818,53.5521455 22.1713455,53.3877818 L17.1255273,51.9463273" id="Fill-11" fill="#BBBBBB"></path>
                    <path d="M15.3850182,48.9504 L10.8264727,48.4296727 C10.5588364,48.3802182 10.3319273,48.6362182 10.3755636,48.9373091 L10.9733818,53.1133091 C11.0417455,53.5904 11.5057455,53.8624 11.8824727,53.6456727 L15.6933818,51.7314909" id="Fill-13" fill="#BBBBBB"></path>
                    <path d="M17.3069091,52.1499636 C17.3069091,52.1499636 17.1294545,52.4961455 16.8254545,52.6386909 C16.52,52.7826909 15.8552727,52.7856 15.8552727,52.7856 C15.4581818,52.8277818 15.0989091,52.5397818 15.0567273,52.1412364 L14.712,48.9601455 C14.6712727,48.5776 14.9476364,48.2343273 15.3301818,48.1921455 C15.3301818,48.1921455 16.0865455,48.0292364 16.3149091,48.1194182 C16.5912727,48.2314182 16.9069091,48.5965091 16.9069091,48.5965091 L17.3069091,52.1499636 Z" id="Fill-15" fill="#BBBBBB"></path>
                    <path d="M29.3403636,52.7303273 C50.4327273,48.8888727 39.7956364,25.4794182 39.0581818,23.4590545 C38.4050909,21.6757818 39.6210909,27.5565091 37.6894545,27.6088727 C35.4421818,27.6699636 33.816,29.7717818 34.2989091,31.9666909 C35.1512727,35.8357818 35.3301818,39.3354182 32.8865455,43.1026909 C30.0690909,47.4503273 27.8116364,48.2386909 27.8116364,48.2386909" id="Fill-17" fill="#FFFFFF"></path>
                    <path d="M29.3396364,53.4576 C28.9949091,53.4576 28.6894545,53.2117818 28.6254545,52.8597818 C28.5527273,52.4656 28.8145455,52.0874182 29.2101818,52.0146909 C34.4,51.0692364 38.0116364,48.8161455 39.9461818,45.3165091 C41.6901818,42.1616 42.9221818,36.3870545 39.4283636,26.4816 C39.2203636,27.4808727 38.7505455,28.3070545 37.7090909,28.3361455 C36.8596364,28.3594182 36.0727273,28.7579636 35.5490909,29.4270545 C35.0210909,30.1034182 34.8247273,30.9717818 35.0094545,31.8096 C35.9330909,36.0016 36.0290909,39.5928727 33.4967273,43.4983273 C30.5789091,48.0030545 28.1541818,48.8888727 28.0509091,48.9252364 C27.6770909,49.0576 27.2581818,48.8583273 27.1258182,48.4772364 C26.9934545,48.0976 27.1927273,47.6830545 27.5723636,47.5506909 C27.5854545,47.5463273 29.6698182,46.7303273 32.2778182,42.7070545 C34.5338182,39.2263273 34.4334545,35.9579636 33.5883636,32.1223273 C33.3105455,30.8597818 33.6072727,29.5506909 34.4029091,28.5325091 C35.1941818,27.5186909 36.3854545,26.9165091 37.6698182,26.8816 C37.7556364,26.8801455 38.1789091,26.7245091 38.1178182,23.9026909 C38.1018182,23.1376 38.0887273,22.5325091 38.7476364,22.4088727 C39.4138182,22.2823273 39.6392727,22.9339636 39.7410909,23.2103273 C39.7774545,23.3121455 39.8414545,23.4706909 39.9258182,23.6816 C44.6632727,35.5085091 43.2436364,42.3579636 41.2189091,46.0205091 C39.0647273,49.9201455 35.1112727,52.4190545 29.4705455,53.4459636 C29.4269091,53.4546909 29.3832727,53.4576 29.3396364,53.4576" id="Fill-19" fill="#BBBBBB"></path>
                    <path d="M29.2110545,53.9972364 C28.4721455,53.9972364 27.7477818,53.6059636 27.1979636,52.9063273 C26.6656,52.2270545 26.3281455,51.3077818 26.2437818,50.3186909 C26.0576,48.1252364 27.1470545,46.3012364 28.7237818,46.1688727 C29.1266909,46.1252364 29.4757818,46.4306909 29.5106909,46.8306909 C29.5441455,47.2321455 29.2474182,47.5826909 28.8474182,47.6176 C28.2030545,47.6714182 27.5703273,48.7448727 27.6925091,50.1950545 C27.7521455,50.8961455 27.9892364,51.5565091 28.3426909,52.0088727 C28.5099636,52.2226909 28.8488727,52.5659636 29.2648727,52.5412364 C29.6706909,52.5005091 30.0168727,52.8030545 30.0503273,53.2030545 C30.0852364,53.6030545 29.7870545,53.9550545 29.3885091,53.9899636 C29.3288727,53.9943273 29.2692364,53.9972364 29.2110545,53.9972364" id="Fill-21" fill="#BBBBBB"></path>
                    <path d="M31.9589818,8.29134545 C31.9589818,8.29134545 31.2113455,5.72116364 31.0746182,5.67752727 C30.9364364,5.63243636 28.0709818,4.46734545 28.0142545,4.44552727 C27.9560727,4.42225455 21.3058909,2.45570909 21.2026182,2.44552727 C21.1008,2.43534545 16.3706182,2.91098182 16.3604364,2.96770909 C16.3488,3.02589091 15.9458909,4.6608 15.8789818,4.83389091 C15.8120727,5.00552727 15.3786182,7.97716364 15.4702545,8.01061818 C15.5618909,8.04261818 25.8891636,10.2418909 26.1408,10.3189818 C26.3924364,10.3960727 29.2855273,11.0026182 29.5589818,10.9298909 C29.8324364,10.8600727 31.9589818,8.29134545 31.9589818,8.29134545" id="Fill-23" fill="#FFFFFF"></path>
                    <path d="M3.05047273,29.4276364 C5.48101818,33.2632727 10.6039273,35.0930909 16.1064727,36.3425455 C22.2272,32.8821818 22.8744727,28.4618182 19.8417455,20.5941818 C17.0752,13.4203636 12.8206545,10.6596364 3.25410909,13.8581818 C2.80465455,14.8821818 2.42501818,16.0050909 2.12538182,17.2443636 C0.909381818,22.5345455 1.21047273,26.5243636 3.05047273,29.4276364" id="Fill-25" fill="#545A6D"></path>
                    <path d="M39.2501818,16.1669818 C39.3490909,18.9742545 38.7658182,22.1669818 38.1694545,25.6942545 C37.6734545,29.0062545 37.8378182,31.4033455 37.5556364,33.2942545 C38.8938182,31.2971636 39.8189091,28.6077091 40.3381818,25.1444364 C40.9243636,21.6709818 40.5607273,18.6935273 39.2501818,16.1669818" id="Fill-27" fill="#FFFFFF"></path>
                    <path d="M15.7195636,5.26152727 C7.23083636,5.4128 3.14501818,10.2768 1.49556364,16.9938909 C-1.95752727,31.7808 6.66938182,35.6004364 18.8395636,38.0106182 C32.7348364,40.9808 40.5355636,38.6331636 42.5617455,25.3400727 C43.7486545,18.4135273 41.3675636,12.2317091 32.9457455,8.40916364" id="Fill-29" fill="#FFFFFF"></path>
                    <g transform="translate(0.000000, 4.406109)">
                        <mask id="mask-4" fill="white">
                            <use xlink:href="#path-3"></use>
                        </mask>
                        <g id="Clip-32"></g>
                        <path d="M25.7813818,35.3922909 C23.6708364,35.2381091 21.3188364,34.8773818 18.6875636,34.3159273 C11.9181091,32.9748364 5.20247273,31.0490182 2.00392727,26.0904727 C-0.173527273,22.7144727 -0.572072727,18.2432 0.786472727,12.4221091 C2.75738182,4.4032 7.77556364,0.269381818 15.7072,0.126836364 L15.7333818,1.58283636 C8.4432,1.71229091 4.01847273,5.36756364 2.20174545,12.7610182 C0.9392,18.1704727 1.27374545,22.2752 3.2272,25.3021091 C6.13192727,29.8053818 12.5144727,31.6104727 18.9799273,32.8919273 C27.3464727,34.6766545 32.6730182,34.3682909 36.2642909,31.8897455 C39.1908364,29.8664727 41.0162909,26.2475636 41.8424727,20.8250182 C43.1079273,13.4417455 40.0126545,8.00901818 32.6453818,4.66501818 L33.2461091,3.33992727 C41.1777455,6.94138182 44.6482909,13.0664727 43.2795636,21.0577455 C42.3908364,26.8846545 40.3661091,30.8235636 37.0904727,33.0853818 C34.3268364,34.9966545 30.7122909,35.7544727 25.7813818,35.3922909" id="Fill-31" fill="#BBBBBB" mask="url(#mask-4)"></path>
                    </g>
                    <g transform="translate(13.090909, 0.042473)">
                        <mask id="mask-6" fill="white">
                            <use xlink:href="#path-5"></use>
                        </mask>
                        <g id="Clip-34"></g>
                        <path d="M16.5370182,5.76523636 C16.6446545,6.15941818 16.6635636,6.57687273 16.5762909,7.01323636 C16.5021091,7.38850909 16.4541091,7.67505455 16.4032,7.98778182 C16.3901091,8.05905455 16.3784727,8.13178182 16.3653818,8.20887273 C17.1319273,8.00232727 17.9173818,7.84378182 18.6679273,7.74341818 C18.1442909,7.01323636 17.4068364,6.35141818 16.5370182,5.76523636 Z M14.4744727,10.3499636 L14.7202909,9.11069091 C14.8395636,8.50705455 14.9064727,8.11141818 14.9675636,7.74778182 C15.0213818,7.42196364 15.0722909,7.12232727 15.1508364,6.7296 C15.4446545,5.25032727 12.8395636,3.79578182 10.0730182,3.19069091 C10.0497455,3.18632727 10.0250182,3.18050909 10.0017455,3.17614545 C9.93774545,3.1616 9.87374545,3.14850909 9.80974545,3.13541818 C6.99229091,2.57832727 3.84174545,2.84887273 3.52465455,4.44741818 L2.81774545,8.00232727 L1.39229091,7.71869091 L2.09774545,4.16378182 C2.63301818,1.47723636 6.49774545,0.995781818 10.0933818,1.70850909 C10.1922909,1.72887273 10.2912,1.74923636 10.3886545,1.7696 C14.1588364,2.54050909 19.0330182,4.64087273 20.5239273,8.07214545 L20.9399273,9.03505455 L19.8941091,9.08887273 C18.5922909,9.15578182 17.0519273,9.4656 15.6701091,9.93978182 L14.4744727,10.3499636 Z" id="Fill-33" fill="#BBBBBB" mask="url(#mask-6)"></path>
                    </g>
                    <path d="M20.1770182,10.1080727 C8.47956364,7.86225455 4.20029091,12.5313455 2.52610909,18.7815273 C0.293381818,29.0011636 5.9152,33.0346182 15.0468364,35.4898909 C27.0032,38.5822545 31.1428364,35.9873455 33.3915636,25.5233455 C35.1632,17.2789818 32.5610182,12.4848 20.1770182,10.1080727" id="Fill-35" fill="#BBBBBB"></path>
                    <path d="M17.0228364,8.18690909 C17.0228364,8.18690909 17.4344727,6.07781818 17.5886545,5.29381818 C17.6381091,5.04072727 17.7515636,4.81527273 17.9421091,4.64072727 C18.4337455,4.18836364 19.6395636,3.53381818 22.2839273,4.05018182 C23.7122909,4.32945455 24.9035636,4.87781818 25.7064727,5.33018182 C26.3872,5.71272727 26.7377455,6.48945455 26.5922909,7.25745455 L26.0657455,10.0327273 C26.0657455,10.0327273 22.2548364,9.10036364 20.9748364,8.84 C19.9944727,8.63927273 17.0228364,8.18690909 17.0228364,8.18690909" id="Fill-43" fill="url(#linearGradient-7)"></path>
                </g>
                <ellipse id="椭圆形" fill="#FFFFFF" cx="82.5" cy="23" rx="4.5" ry="5"></ellipse>
            </g>
        </g>
    </g>
</svg>